<?xml version="1.0" encoding="utf-8"?>
<!-- Generator: Adobe Illustrator 22.0.0, SVG Export Plug-In . SVG Version: 6.00 Build 0)  -->
<svg version="1.1" id="图层_1" xmlns="http://www.w3.org/2000/svg" xmlns:xlink="http://www.w3.org/1999/xlink" x="0px" y="0px"
	 viewBox="0 0 74 123.8" style="enable-background:new 0 0 74 123.8;" xml:space="preserve">
<style type="text/css">
	.st0{fill:#009DDF;}
</style>
<g id="client-2" transform="translate(-663.2 -334.95)">
	<g id="XMLID_4235_">
		<path id="XMLID_4251_" class="st0" d="M700,377.4c4.9,0,8.8-3.9,8.8-8.8c0-4.9-3.9-8.8-8.8-8.8s-8.8,3.9-8.8,8.8v0
			C691.2,373.5,695.1,377.4,700,377.4z M700,364.9c2.1,0,3.8,1.7,3.8,3.8c0,2.1-1.7,3.8-3.8,3.8c-2.1,0-3.8-1.7-3.8-3.8v0
			C696.2,366.6,697.9,364.9,700,364.9z"/>
		<path id="XMLID_4254_" class="st0" d="M718,364.6c-0.8-11.3-4.8-18.4-8.2-22.5c-2.4-3-5.4-5.3-8.8-7c-0.6-0.2-1.3-0.2-1.9,0
			c-3.4,1.7-6.4,4-8.8,7c-3.4,4.1-7.5,11.3-8.2,22.5c-11.7,6.5-18.9,18.8-18.9,32.2v53.1c0,4.9,4,8.8,8.8,8.8c4.8,0,8.8-3.9,8.8-8.8
			V428c0-0.3,0.3-0.6,0.6-0.6c0.3,0,0.6,0.3,0.6,0.6v15.6c0,4.9,3.9,8.8,8.8,8.8c4.9,0,8.8-3.9,8.8-8.8c0,0,0,0,0,0V428
			c0-0.3,0.3-0.6,0.6-0.6c0.3,0,0.6,0.3,0.6,0.6v15.6c0,4.9,4,8.8,8.8,8.8c4.8,0,8.8-3.9,8.8-8.8V428c0-0.3,0.3-0.6,0.6-0.6
			c0.3,0,0.6,0.3,0.6,0.6v21.9c0,4.9,4,8.8,8.8,8.8c4.8,0,8.8-3.9,8.8-8.8v-53.1C737,383.4,729.7,371.2,718,364.6z M718.1,390.6
			c0.3,0.2,0.6,0.3,1,0.6c2.3,1.6,3.4,4.6,3.4,8.7v3.8h-4.4V390.6z M686.9,368.7c0-9.6,2.4-17.4,7-23.2c1.7-2.1,3.8-3.9,6.1-5.3
			c2.3,1.4,4.4,3.2,6.1,5.3c4.7,5.7,7,13.5,7,23.2v36.5l-4.8,4.8h-16.7l-4.8-4.8L686.9,368.7L686.9,368.7z M677.5,403.7v-3.8
			c0-5.9,2.4-8.4,4.4-9.3v13.1L677.5,403.7L677.5,403.7z M731.9,449.9c0,2.1-1.7,3.8-3.8,3.8c-2.1,0-3.8-1.7-3.8-3.8V428
			c0-3.1-2.5-5.6-5.6-5.6c-3.1,0-5.6,2.5-5.6,5.6v15.6c0,2.1-1.7,3.8-3.8,3.8c-2.1,0-3.8-1.7-3.8-3.8V428c0-3.1-2.5-5.6-5.6-5.6
			c-3.1,0-5.6,2.5-5.6,5.6v15.6c0,2.1-1.7,3.8-3.8,3.8c-2.1,0-3.8-1.7-3.8-3.8c0,0,0,0,0,0V428c0-3.1-2.5-5.6-5.6-5.6
			c-3.1,0-5.6,2.5-5.6,5.6v21.9c0,2.1-1.7,3.8-3.8,3.8c-2.1,0-3.8-1.7-3.8-3.8v-53.1c0-10.5,5.1-20.2,13.7-26.2v14.7
			c-1.3,0.4-2.5,0.9-3.6,1.6c-2.6,1.8-5.8,5.5-5.8,13v6.3c0,1.4,1.1,2.5,2.5,2.5c0,0,0,0,0,0h8.3l5.5,5.5c0.5,0.5,1.1,0.7,1.8,0.7
			h18.8c0.7,0,1.3-0.3,1.8-0.7l5.5-5.5h8.3c1.4,0,2.5-1.1,2.5-2.5c0,0,0,0,0,0v-6.3c0-7.6-3.2-11.3-5.8-13c-1.1-0.7-2.3-1.2-3.6-1.6
			v-14.7c8.7,5.9,13.8,15.7,13.8,26.2v53.1H731.9z"/>
	</g>
</g>
</svg>
