<?xml version="1.0" encoding="utf-8"?>
<!-- Generator: Adobe Illustrator 22.0.0, SVG Export Plug-In . SVG Version: 6.00 Build 0)  -->
<svg version="1.1" id="图层_1" xmlns="http://www.w3.org/2000/svg" xmlns:xlink="http://www.w3.org/1999/xlink" x="0px" y="0px"
	 viewBox="0 0 105 105" style="enable-background:new 0 0 105 105;" xml:space="preserve">
<style type="text/css">
	.st0{fill:#009DDF;}
</style>
<g id="client-5" transform="translate(-647.5 -147.4)">
	<g id="XMLID_4313_">
		<path id="XMLID_4333_" class="st0" d="M700,147.4c-29,0-52.5,23.5-52.5,52.5s23.5,52.5,52.5,52.5s52.5-23.5,52.5-52.5l0,0
			C752.5,170.9,729,147.4,700,147.4z M700,152.4c26.2,0,47.5,21.2,47.5,47.4c0,11.6-4.2,22.8-11.9,31.5c-3.8,0.6-7.1,2.9-9,6.2
			c-0.5-0.1-1.1-0.1-1.6-0.1c-2.1,0-4.1,0.5-5.9,1.5c-2.4-2.9-5.9-4.6-9.7-4.6v-13.1l0,0c0.7,0,1.3-0.3,1.8-0.7l5.5-5.5h8.3
			c1.4,0,2.5-1.1,2.5-2.5c0,0,0,0,0,0v-6.3c0-7.6-3.2-11.3-5.8-13c-1.1-0.7-2.3-1.2-3.6-1.6v-4.1c0-13.7-4.6-22-8.4-26.6
			c-2.4-3-5.4-5.3-8.8-7c-0.6-0.2-1.3-0.2-1.9,0c-3.4,1.7-6.4,4-8.8,7c-3.8,4.6-8.4,12.9-8.4,26.6v4.1c-1.3,0.4-2.5,0.9-3.6,1.6
			c-2.6,1.8-5.8,5.5-5.8,13v6.3c0,1.4,1.1,2.5,2.5,2.5c0,0,0,0,0,0h8.3l5.5,5.5c0.5,0.5,1.1,0.7,1.8,0.7v13.1
			c-3.8,0-7.3,1.7-9.7,4.6c-1.8-1-3.8-1.5-5.9-1.5c-0.5,0-1.1,0-1.6,0.1c-1.9-3.3-5.2-5.6-9-6.2c-17.4-19.6-15.5-49.6,4.1-67
			C677.1,156.6,688.4,152.4,700,152.4z M677.5,209.9v-3.8c0-5.9,2.4-8.4,4.4-9.3v13.1H677.5z M686.9,193.7v-6.3
			c0-9.6,2.4-17.4,7-23.2c1.7-2.1,3.8-3.9,6.1-5.3c3.1,1.8,13.1,8.9,13.1,28.5v24l-4.8,4.8h-16.7l-4.8-4.8v-17.7H686.9z
			 M718.1,196.9c0.3,0.2,0.6,0.3,1,0.6c2.3,1.6,3.4,4.6,3.4,8.7v3.8h-4.4V196.9z"/>
		<path id="XMLID_4345_" class="st0" d="M700,196.2c4.9,0,8.8-3.9,8.8-8.8c0-4.9-3.9-8.8-8.8-8.8c-4.9,0-8.8,3.9-8.8,8.8
			c0,0,0,0,0,0C691.2,192.3,695.1,196.2,700,196.2z M700,183.7c2.1,0,3.8,1.7,3.8,3.8c0,2.1-1.7,3.8-3.8,3.8c-2.1,0-3.8-1.7-3.8-3.8
			c0,0,0,0,0,0C696.2,185.4,697.9,183.7,700,183.7z"/>
	</g>
</g>
</svg>
