<?xml version="1.0" encoding="utf-8"?>
<!-- Generator: Adobe Illustrator 22.0.0, SVG Export Plug-In . SVG Version: 6.00 Build 0)  -->
<svg version="1.1" id="图层_1" xmlns="http://www.w3.org/2000/svg" xmlns:xlink="http://www.w3.org/1999/xlink" x="0px" y="0px"
	 viewBox="0 0 105 98.8" style="enable-background:new 0 0 105 98.8;" xml:space="preserve">
<style type="text/css">
	.st0{fill:#009DDF;}
</style>
<g id="client-3" transform="translate(-247.5 -353.65)">
	<g id="XMLID_4214_">
		<path id="XMLID_4279_" class="st0" d="M321.7,399.4c-1.1-0.7-2.3-1.2-3.6-1.6v-10.4c0.1-5.5-0.8-11-2.6-16.2
			c0-0.2-0.1-0.4-0.2-0.5c-1.3-3.6-3.2-6.9-5.6-9.9c-2.4-3-5.4-5.3-8.8-7c-0.6-0.2-1.3-0.2-1.9,0c-3.4,1.7-6.4,4-8.8,7
			c-2.4,3-4.3,6.3-5.6,9.9c-0.1,0.2-0.1,0.3-0.2,0.5c-1.8,5.2-2.7,10.7-2.6,16.2v10.4c-1.3,0.4-2.5,0.9-3.6,1.6
			c-2.6,1.8-5.8,5.5-5.8,13v6.3c0,1.4,1.1,2.5,2.5,2.5c0,0,0,0,0,0h8.3l5.5,5.5c0.5,0.5,1.1,0.7,1.8,0.7h18.8c0.7,0,1.3-0.3,1.8-0.7
			l5.5-5.5h8.3c1.4,0,2.5-1.1,2.5-2.5c0,0,0,0,0,0v-6.3C327.5,404.9,324.3,401.2,321.7,399.4z M281.9,416.2h-4.4v-3.8
			c0-5.9,2.4-8.4,4.4-9.3V416.2z M293.9,364.3c1.7-2.1,3.8-3.9,6.1-5.3c2.3,1.4,4.4,3.2,6.1,5.3c1.2,1.6,2.3,3.2,3.2,5h-18.7
			C291.6,367.5,292.7,365.9,293.9,364.3L293.9,364.3z M313.1,399.9v17.7l-4.8,4.8h-16.7l-4.8-4.8v-30.2c-0.1-4.4,0.6-8.8,1.8-13.1
			h22.7c1.2,4.3,1.9,8.7,1.8,13.1L313.1,399.9z M322.5,416.2h-4.4v-13.1c0.3,0.2,0.6,0.3,1,0.6c2.3,1.6,3.4,4.6,3.4,8.7V416.2z"/>
		<path id="XMLID_4293_" class="st0" d="M290.6,428.7c-1.4,0-2.5,1.1-2.5,2.5c0,0,0,0,0,0V450c0,1.4,1.1,2.5,2.5,2.5
			s2.5-1.1,2.5-2.5v-18.8C293.1,429.8,292,428.7,290.6,428.7C290.6,428.7,290.6,428.7,290.6,428.7z"/>
		<path id="XMLID_4297_" class="st0" d="M309.4,428.7c-1.4,0-2.5,1.1-2.5,2.5c0,0,0,0,0,0V450c0,1.4,1.1,2.5,2.5,2.5
			s2.5-1.1,2.5-2.5v-18.8C311.9,429.8,310.8,428.7,309.4,428.7z"/>
		<path id="XMLID_4298_" class="st0" d="M300.1,428.7c-1.4,0-2.5,1.1-2.5,2.5c0,0,0,0,0,0V450c0,1.4,1.1,2.5,2.5,2.5
			s2.5-1.1,2.5-2.5v-18.8C302.6,429.8,301.5,428.7,300.1,428.7C300.1,428.7,300.1,428.7,300.1,428.7z"/>
		<path id="XMLID_4299_" class="st0" d="M265.6,388.7h1.9v1.9c0,0.7,0.6,1.3,1.3,1.3c0.7,0,1.3-0.6,1.3-1.3v-1.9h1.9
			c0.7,0,1.3-0.6,1.3-1.3c0-0.7-0.6-1.3-1.3-1.3h-2v-1.9c0-0.7-0.6-1.3-1.3-1.3c-0.7,0-1.3,0.6-1.3,1.3v1.9h-1.9
			c-0.7,0-1.3,0.6-1.3,1.3C264.3,388.1,264.9,388.6,265.6,388.7L265.6,388.7z"/>
		<path id="XMLID_4301_" class="st0" d="M328.1,388.7h1.9v1.9c0,0.7,0.6,1.3,1.3,1.3c0.7,0,1.3-0.6,1.3-1.3v-1.9h1.9
			c0.7,0,1.3-0.6,1.3-1.3c0-0.7-0.6-1.3-1.3-1.3h-1.9v-1.9c0-0.7-0.6-1.3-1.3-1.3c-0.7,0-1.3,0.6-1.3,1.3v1.9h-1.9
			c-0.7,0-1.3,0.6-1.3,1.3C326.8,388.1,327.4,388.7,328.1,388.7L328.1,388.7z"/>
		<path id="XMLID_4303_" class="st0" d="M300,378.7c-4.8,0-8.7,3.8-8.7,8.6c0,0,0,0.1,0,0.1c0,1.4,1.1,2.5,2.5,2.5c0,0,0,0,0,0
			c0.5,0,1-0.2,1.4-0.4c0.7-0.5,1.1-1.3,1.1-2.1c0-1.3,0.7-2.4,1.7-3.1c0.6-0.4,1.4-0.6,2.1-0.6c2.1,0,3.8,1.7,3.8,3.8
			c0,1.4,1.1,2.5,2.5,2.5c0,0,0,0,0,0c0.7,0,1.5-0.3,1.9-0.9c0.4-0.4,0.6-1,0.6-1.6C308.8,382.7,304.8,378.8,300,378.7z"/>
		<path id="XMLID_4304_" class="st0" d="M247.5,449.9c0,1.4,1.1,2.5,2.5,2.5s2.5-1.1,2.5-2.5c0-14.8,7-28.8,18.8-37.8
			c-0.1-2.3,0.3-4.6,1.1-6.8C256.9,414.8,247.5,431.7,247.5,449.9L247.5,449.9z"/>
		<path id="XMLID_4305_" class="st0" d="M327.6,405.3c0.8,2.2,1.1,4.5,1.1,6.8c11.8,9,18.8,23,18.8,37.8c0,1.4,1.1,2.5,2.5,2.5
			s2.5-1.1,2.5-2.5C352.5,431.7,343,414.9,327.6,405.3L327.6,405.3z"/>
	</g>
</g>
</svg>
