<?xml version="1.0" encoding="utf-8"?>
<!-- Generator: Adobe Illustrator 22.0.0, SVG Export Plug-In . SVG Version: 6.00 Build 0)  -->
<svg version="1.1" id="图层_1" xmlns="http://www.w3.org/2000/svg" xmlns:xlink="http://www.w3.org/1999/xlink" x="0px" y="0px"
	 viewBox="0 0 100 105.9" style="enable-background:new 0 0 100 105.9;" xml:space="preserve">
<style type="text/css">
	.st0{fill:#009DDF;}
</style>
<g id="client-1" transform="translate(-249.899 -535.15)">
	<g id="XMLID_1751_">
		<path id="XMLID_2959_" class="st0" d="M300,560.2c-4.9,0-8.8,3.9-8.8,8.8s3.9,8.8,8.8,8.8c4.9,0,8.8-3.9,8.8-8.8l0,0
			C308.8,564.1,304.9,560.2,300,560.2z M300,572.7c-2.1,0-3.8-1.7-3.8-3.8s1.7-3.8,3.8-3.8c2.1,0,3.8,1.7,3.8,3.8l0,0
			C303.8,571,302.1,572.7,300,572.7z"/>
		<path id="XMLID_2964_" class="st0" d="M315.5,552.6c-1.3-3.8-3.3-7.3-5.8-10.3c-2.4-3-5.4-5.3-8.8-7c-0.6-0.2-1.3-0.2-1.9,0
			c-3.4,1.7-6.4,4-8.8,7c-2.5,3.1-4.5,6.6-5.8,10.3c-26.2,8.6-40.6,36.8-32,63c2.8,8.5,7.8,16.1,14.4,22l0,0c6,5.2,15,4.5,20.2-1.4
			c2.3-2.6,3.5-5.9,3.5-9.4V615h18.8v11.8c0,7.9,6.4,14.3,14.3,14.3c3.4,0,6.8-1.2,9.4-3.5l0,0c20.7-18.3,22.7-49.9,4.4-70.6
			C331.5,560.3,323.9,555.4,315.5,552.6z M265.6,601.4h-1.9v1.9c0,0.7-0.6,1.3-1.3,1.3c-0.7,0-1.3-0.6-1.3-1.3v-1.9h-1.9
			c-0.7,0-1.3-0.6-1.3-1.3c0-0.7,0.6-1.3,1.3-1.3h1.9V597c0-0.7,0.6-1.3,1.3-1.3c0.7,0,1.3,0.6,1.3,1.3l0,0v1.9h1.9
			c0.7,0,1.3,0.6,1.3,1.3C266.8,600.9,266.3,601.4,265.6,601.4L265.6,601.4z M270.6,581.4c0-0.7,0.6-1.3,1.3-1.3h1.9v-1.9
			c0-0.7,0.6-1.3,1.3-1.3c0.7,0,1.3,0.6,1.3,1.3l0,0v1.9h1.9c0.7,0,1.3,0.6,1.3,1.3c0,0.7-0.6,1.3-1.3,1.3h-1.9v1.9
			c0,0.7-0.6,1.3-1.3,1.3c-0.7,0-1.3-0.6-1.3-1.3v-1.9h-1.9C271.2,582.7,270.6,582.1,270.6,581.4z M291.7,610.2l-5.5-5.5
			c-0.5-0.5-1.1-0.7-1.8-0.7h-6.9v-3.8c0-9.5,6.1-10,6.9-10c1.3,0.1,2.4-1,2.5-2.3c0-0.1,0-0.1,0-0.2v-18.8c0-9.6,2.4-17.4,7-23.2
			c1.7-2.1,3.8-3.9,6.1-5.3c2.3,1.4,4.4,3.2,6.1,5.3c4.7,5.7,7,13.5,7,23.2v18.8c0,1.4,1.1,2.5,2.5,2.5c0,0,0,0,0,0
			c0.3,0,6.9,0.1,6.9,10v3.8h-6.9c-0.7,0-1.3,0.3-1.8,0.7l-5.5,5.5L291.7,610.2z M328.1,582.7h-1.9v1.9c0,0.7-0.6,1.3-1.3,1.3
			c-0.7,0-1.3-0.6-1.3-1.3v-1.9h-1.9c-0.7,0-1.3-0.6-1.3-1.3c0-0.7,0.6-1.3,1.3-1.3h1.9v-1.9c0-0.7,0.6-1.3,1.3-1.3
			c0.7,0,1.3,0.6,1.3,1.3l0,0v1.9h1.9c0.7,0,1.3,0.6,1.3,1.3C329.4,582.1,328.8,582.7,328.1,582.7z"/>
	</g>
</g>
</svg>
