<?xml version="1.0" encoding="utf-8"?>
<!-- Generator: Adobe Illustrator 22.0.0, SVG Export Plug-In . SVG Version: 6.00 Build 0)  -->
<svg version="1.1" id="图层_1" xmlns="http://www.w3.org/2000/svg" xmlns:xlink="http://www.w3.org/1999/xlink" x="0px" y="0px"
	 viewBox="0 0 125.2 125" style="enable-background:new 0 0 125.2 125;" xml:space="preserve">
<style type="text/css">
	.st0{fill:#009DDF;}
</style>
<g id="client-4" transform="translate(-37.3 -337.399)">
	<g id="XMLID_4212_">
		<circle id="XMLID_4294_" class="st0" cx="100" cy="387.4" r="6.3"/>
		<path id="XMLID_4290_" class="st0" d="M160.8,443.7l-49.5-99c-2.9-6.3-10.4-9-16.7-6.1c-2.7,1.3-4.9,3.4-6.1,6.1l-49.5,99
			c-1.1,1.9-1.7,4-1.7,6.2c0,6.9,5.6,12.5,12.5,12.5h12.5c0-6.9,5.6-12.5,12.5-12.5l0,0h3.1c0-6.9,5.6-12.5,12.5-12.5v-15.6h18.8
			v15.6c6.9,0,12.5,5.6,12.5,12.5h3.1c6.9,0,12.5,5.6,12.5,12.5H150c6.9,0,12.5-5.6,12.5-12.5C162.5,447.7,161.9,445.6,160.8,443.7
			L160.8,443.7z M65.6,426.2h-1.9v1.9c0,0.7-0.6,1.3-1.3,1.3c-0.7,0-1.3-0.6-1.3-1.3v-1.9h-1.9c-0.7,0-1.3-0.6-1.3-1.3
			c0-0.7,0.6-1.3,1.3-1.3l0,0h1.9v-1.9c0-0.7,0.6-1.3,1.3-1.3c0.7,0,1.3,0.6,1.3,1.3v1.9h1.9c0.7,0,1.3,0.6,1.3,1.3
			C66.9,425.6,66.3,426.2,65.6,426.2z M78.1,438.7h-1.9v1.9c0,0.7-0.6,1.3-1.3,1.3c-0.7,0-1.3-0.6-1.3-1.3v-1.9h-1.9
			c-0.7,0-1.3-0.6-1.3-1.3c0-0.7,0.6-1.3,1.3-1.3h1.9v-1.9c0-0.7,0.6-1.3,1.3-1.3c0.7,0,1.3,0.6,1.3,1.3v1.9h1.9
			c0.7,0,1.3,0.6,1.3,1.3C79.4,438.1,78.8,438.7,78.1,438.7z M115.6,412.4l-6.3,6.3H90.6l-6.3-6.3H75v-6.3c0-12.5,9.4-12.5,9.4-12.5
			v-6.3c0-25,15.6-31.3,15.6-31.3s15.6,6.3,15.6,31.3v6.3c0,0,9.4,0,9.4,12.5v6.3H115.6z M128.1,438.7h-1.9v1.9
			c0,0.7-0.6,1.3-1.3,1.3c-0.7,0-1.3-0.6-1.3-1.3v-1.9h-1.9c-0.7,0-1.3-0.6-1.3-1.3c0-0.7,0.6-1.3,1.3-1.3l0,0h1.9v-1.9
			c0-0.7,0.6-1.3,1.3-1.3c0.7,0,1.3,0.6,1.3,1.3v1.9h1.9c0.7,0,1.3,0.6,1.3,1.3C129.4,438.1,128.8,438.7,128.1,438.7z M140.6,426.2
			h-1.9v1.9c0,0.7-0.6,1.3-1.3,1.3c-0.7,0-1.3-0.6-1.3-1.3v-1.9h-1.9c-0.7,0-1.3-0.6-1.3-1.3c0-0.7,0.6-1.3,1.3-1.3h1.9v-1.9
			c0-0.7,0.6-1.3,1.3-1.3s1.3,0.6,1.3,1.3v1.9h1.9c0.7,0,1.3,0.6,1.3,1.3C141.9,425.6,141.3,426.2,140.6,426.2z"/>
	</g>
</g>
</svg>
