<?xml version="1.0" encoding="utf-8"?>
<!-- Generator: Adobe Illustrator 22.0.0, SVG Export Plug-In . SVG Version: 6.00 Build 0)  -->
<svg version="1.1" id="图层_1" xmlns="http://www.w3.org/2000/svg" xmlns:xlink="http://www.w3.org/1999/xlink" x="0px" y="0px"
	 viewBox="0 0 105 105" style="enable-background:new 0 0 105 105;" xml:space="preserve">
<style type="text/css">
	.st0{fill:#009DDF;}
</style>
<g id="client-6" transform="translate(-47.512 -147.418)">
	<g id="XMLID_4357_">
		<path id="XMLID_4380_" class="st0" d="M97.1,181.6l-11.8-3.9c-0.9-0.3-1.9-0.1-2.6,0.6l-22.1,22.1c-1,0.9-1,2.4-0.1,3.4
			c0,0,0.1,0.1,0.1,0.1l4.4,4.4c0.5,0.5,1.1,0.7,1.8,0.7h0.5l9.7-1.9l8,7.9l0,0l7.9,7.9l-1.9,9.7c-0.2,0.8,0.1,1.7,0.7,2.3l4.4,4.4
			c0.5,0.5,1.1,0.7,1.8,0.7c0.7,0,1.3-0.2,1.8-0.7l22.1-22.1c0.7-0.7,0.9-1.7,0.6-2.6l-3.9-11.8l1.1-1.1
			c14.9-14.9,24.1-27.2,27.1-36.3c2.6-7.7-0.1-10.8-0.6-11.4c-0.6-0.6-3.7-3.2-11.4-0.6c-9.2,3.1-21.4,12.2-36.3,27.1L97.1,181.6z
			 M66,202.2L85.2,183l8,2.7l-16.5,16.5l-9,1.8L66,202.2z M114.4,206.8l2.7,8L97.8,234l-1.7-1.7l1.8-9l14.8-14.8L114.4,206.8z
			 M134.6,158.7c5.1-2.1,7.3-1.4,7.9-1.1c0,0.1,0.1,0.5,0.1,0.6c0.2,1.9,0,3.8-0.7,5.6c-1.1,2.9-2.4,5.8-4.1,8.4l-9.9-9.9
			C130,160.9,132.2,159.7,134.6,158.7z M123.5,165.1l11.4,11.4c-5.7,7.7-12,15-18.9,21.7l-2.2,2.2l0,0l-18.1,18.1l-5.3-5.3
			l18.1-18.1c1-1,1-2.5,0-3.5c-1-1-2.5-1-3.5,0c0,0,0,0,0,0l-18.1,18.1l-5.3-5.3l18.1-18.1l0,0l2.2-2.2
			C108.5,177.2,115.8,170.8,123.5,165.1L123.5,165.1z"/>
		<path id="XMLID_4386_" class="st0" d="M117.7,191c2.3,0,4.6-1,6.2-2.6c1.7-1.6,2.6-3.9,2.6-6.2c0-2.3-0.9-4.6-2.6-6.2
			c-3.4-3.4-9-3.4-12.4,0c-3.4,3.4-3.5,8.9-0.1,12.3c0,0,0.1,0.1,0.1,0.1C113.1,190.1,115.4,191,117.7,191z M115,179.6
			c0.7-0.7,1.7-1.1,2.7-1.1c1,0,2,0.4,2.7,1.1c0.7,0.7,1.1,1.7,1.1,2.7c0,1-0.4,2-1.1,2.7c-1.5,1.5-3.8,1.5-5.3,0
			c-0.7-0.7-1.1-1.7-1.1-2.7C113.9,181.3,114.3,180.3,115,179.6z"/>
		<path id="XMLID_4389_" class="st0" d="M83.8,237.5c3.3-3.6,5.9-7.9,7.5-12.5c0.3-0.9,0-1.8-0.6-2.5l-6.6-6.6l0,0l-6.6-6.6
			c-0.6-0.7-1.6-0.9-2.5-0.6c-4.6,1.6-8.9,4.2-12.5,7.5c-5.5,5.1-11.5,14.1-9.1,28.4c0.2,1.1,1,1.9,2.1,2.1c2.1,0.4,4.2,0.5,6.3,0.5
			C70.2,247.2,78.2,243.7,83.8,237.5L83.8,237.5z M58,241.9c-1-8.9,1.6-16.3,7.7-22c2.7-2.5,5.9-4.6,9.3-6l3.7,3.7l-7.1,7.1
			c-1,0.9-1,2.5,0,3.5c0.5,0.5,1.1,0.8,1.8,0.7c0.7,0,1.3-0.2,1.8-0.7l7.1-7.1l3.7,3.7c-1.4,3.4-3.5,6.6-6,9.3
			C74.3,240.4,66.9,242.9,58,241.9z"/>
		<path id="XMLID_4390_" class="st0" d="M56.5,219c-10.6-24,0.4-52.1,24.4-62.6c12.9-5.7,27.7-5.3,40.4,1c1.7-1.1,3.3-2.1,4.9-3
			c-25.2-14.4-57.3-5.8-71.7,19.4c-8.9,15.5-9.3,34.5-1.1,50.3C54.3,222.3,55.3,220.6,56.5,219L56.5,219z"/>
		<path id="XMLID_4391_" class="st0" d="M145.5,173.7c-0.9,1.6-1.9,3.2-3,4.9c11.8,23.5,2.3,52-21.2,63.8c-12.6,6.3-27.4,6.7-40.4,1
			c-1.6,1.2-3.3,2.2-5.1,3.1c25.8,13.3,57.5,3.3,70.8-22.5C154.8,208.2,154.4,189.2,145.5,173.7z"/>
	</g>
</g>
</svg>
