<?xml version="1.0" encoding="utf-8"?>
<!-- Generator: Adobe Illustrator 22.0.0, SVG Export Plug-In . SVG Version: 6.00 Build 0)  -->
<svg version="1.1" id="图层_1" xmlns="http://www.w3.org/2000/svg" xmlns:xlink="http://www.w3.org/1999/xlink" x="0px" y="0px"
	 viewBox="0 0 216 35.9" style="enable-background:new 0 0 216 35.9;" xml:space="preserve">
<style type="text/css">
	.st0{fill:#67C0B2;}
	.st1{fill:none;stroke:#67C0B2;stroke-miterlimit:10;}
</style>
<g>
	<path class="st0" d="M9.8,19.4h9.8v9.9c0,2.2-0.7,3.9-2.1,4.9s-2.9,1.6-4.5,1.6H6.6c-1.8,0-3.3-0.6-4.6-1.9s-2-2.8-2-4.6V12.9
		c0-1.8,0.6-3.4,1.9-4.6c1.3-1.3,2.8-2,4.7-2h6.6c4.1,0,6.3,2.2,6.5,6.6h-3.3c-0.3-2.2-1.4-3.3-3.3-3.3H9.8c-0.9,0-1.7,0.3-2.3,1
		c-0.6,0.6-1,1.4-1,2.3v16.4c0,0.9,0.3,1.7,1,2.3c0.6,0.6,1.4,1,2.3,1c2.1-0.1,3.2-1.2,3.3-3.3v-6.5H9.8V19.4z"/>
	<path class="st0" d="M45.2,12.9v23h-6.5v-3.3c-0.3,2.2-1.4,3.3-3.3,3.3h-3.3c-1.8,0-3.3-0.6-4.6-1.9c-1.3-1.3-2-2.8-2-4.6V12.9h6.6
		v16.4c0,0.9,0.3,1.7,1,2.3c0.6,0.7,1.4,1,2.3,1c0.9,0,1.7-0.3,2.3-1s1-1.4,1-2.3V12.9H45.2z"/>
	<path class="st0" d="M51,35.8v-23h6.6v3.3c0.1-1.1,0.5-1.9,1-2.5c0.6-0.5,1.3-0.8,2.2-0.8h3.3c1.8,0,3.3,0.6,4.6,1.9
		c1.3,1.3,1.9,2.8,1.9,4.6v16.4h-6.5V19.4c0-0.9-0.3-1.7-1-2.3c-0.6-0.6-1.4-1-2.3-1c-0.9,0-1.7,0.3-2.3,1c-0.6,0.6-1,1.4-1,2.3
		v16.4H51z"/>
	<path class="st0" d="M79.8,6.3h6.5v6.6h3.3v3.3h-3.3v13.1c0,1.1,0.4,1.9,1.1,2.5s1.4,0.8,1.9,0.8h0.3v3.3h-3.3
		c-1.8,0-3.3-0.6-4.6-1.9c-1.3-1.3-1.9-2.8-1.9-4.6V16.1h-3.3v-3.2h3.3V6.3z"/>
	<path class="st0" d="M95.4,35.8V6.3h6.6v29.5H95.4z"/>
	<path class="st0" d="M127.4,26h-13.1v3.3c0,0.9,0.3,1.7,1,2.3c0.6,0.7,1.4,1,2.3,1h3.3c2.2,0,3.3-1.1,3.3-3.3h3.3
		c-0.5,4.4-2.7,6.6-6.5,6.6h-6.6c-1.8,0-3.3-0.6-4.6-1.9c-1.3-1.3-2-2.8-2-4.6v-9.8c0-1.8,0.7-3.3,2-4.6s2.8-1.9,4.6-1.9h6.6
		c1.8,0,3.3,0.6,4.6,1.9c1.3,1.3,1.9,2.8,1.9,4.6V26H127.4z M114.3,22.7h6.6v-3.3c0-0.9-0.3-1.7-1-2.3s-1.4-1-2.3-1s-1.7,0.3-2.3,1
		c-0.6,0.7-1,1.4-1,2.3C114.3,19.4,114.3,22.7,114.3,22.7z"/>
	<path class="st0" d="M149.6,19.4h-3.3c-0.3-2.2-1.3-3.3-3.1-3.3c-1.2,0-2,0.2-2.6,0.7s-0.9,1.1-0.9,2s1.6,2.3,4.8,4
		c2.6,1.4,4.1,2.5,4.5,3.5c0.4,0.9,0.6,1.9,0.6,3c0,1.8-0.6,3.4-1.9,4.6c-1.3,1.3-2.8,1.9-4.6,1.9h-3.3c-4.4,0-6.6-2.2-6.6-6.6h3.3
		c0.3,2.2,1.3,3.3,3.1,3.3c1.2,0,2.1-0.2,2.6-0.7c0.6-0.5,0.9-1.1,0.9-2.1s-1.6-2.2-4.8-3.9c-2.6-1.4-4.1-2.5-4.5-3.5
		s-0.6-1.9-0.6-3c0-1.8,0.7-3.4,2-4.6c1.3-1.3,2.8-1.9,4.6-1.9h3.3C147.2,12.9,149.4,15.1,149.6,19.4z"/>
	<path class="st0" d="M161.9,12.9h6.6c1.8,0,3.3,0.6,4.6,1.9s1.9,2.8,1.9,4.6v9.9c0,1.8-0.6,3.3-1.9,4.6c-1.3,1.3-2.8,2-4.6,2h-6.6
		c-1.8,0-3.3-0.6-4.6-1.9s-2-2.8-2-4.6v-9.8c0-1.8,0.7-3.3,2-4.6C158.6,13.5,160.2,12.9,161.9,12.9z M161.9,19.4v9.9
		c0,0.9,0.3,1.7,1,2.3c0.6,0.7,1.4,1,2.3,1c0.9,0,1.7-0.3,2.3-1s1-1.4,1-2.3v-9.8c0-0.9-0.3-1.7-1-2.3s-1.4-1-2.3-1
		c-0.9,0-1.7,0.3-2.3,1C162.3,17.9,161.9,18.5,161.9,19.4z"/>
	<path class="st0" d="M180.9,35.8v-23h6.6v3.3c0.1-1.1,0.5-1.9,1-2.5c0.6-0.5,1.3-0.8,2.2-0.8h3.3c1.8,0,3.3,0.6,4.6,1.9
		s1.9,2.8,1.9,4.6v16.4H194V19.4c0-0.9-0.3-1.7-1-2.3s-1.4-1-2.3-1c-0.9,0-1.7,0.3-2.3,1s-1,1.4-1,2.3v16.4H180.9z"/>
</g>
<circle class="st1" cx="208.9" cy="7.1" r="6.6"/>
<g>
	<path class="st0" d="M206.9,8c0,0.7,0,1.2,0,1.7c0,0.5,0,1,0,1.7h-1.1V2.9h3.2c0.8,0,1.5,0.2,2,0.7s0.7,1.1,0.7,1.8
		c0,0.6-0.2,1.1-0.5,1.5s-0.7,0.7-1.2,0.9l2,3.5h-1.2L209,8H206.9z M206.9,3.8c0,0.4,0,0.8,0,1.1s0,0.6,0,1s0,0.7,0,1.1h2.1
		c0.5,0,1-0.1,1.3-0.4c0.3-0.3,0.4-0.7,0.4-1.2s-0.2-0.9-0.5-1.2s-0.7-0.4-1.3-0.4C208.9,3.8,206.9,3.8,206.9,3.8z"/>
</g>
</svg>
