<?xml version="1.0" encoding="utf-8"?>
<!-- Generator: Adobe Illustrator 22.0.0, SVG Export Plug-In . SVG Version: 6.00 Build 0)  -->
<svg version="1.1" id="图层_1" xmlns="http://www.w3.org/2000/svg" xmlns:xlink="http://www.w3.org/1999/xlink" x="0px" y="0px"
	 viewBox="0 0 284.3 97.9" style="enable-background:new 0 0 284.3 97.9;" xml:space="preserve">
<style type="text/css">
	.st0{fill:#FFFFFF;}
	.st1{enable-background:new    ;}
</style>
<polygon class="st0" points="37.5,2.6 0,21.9 0,58.1 44,58.1 44,97.9 82.1,79.5 82.1,43.9 37.3,43.9 "/>
<polygon class="st0" points="44,39.3 82.1,39.3 82.1,20.8 44,2.6 "/>
<polygon class="st0" points="37.3,62.8 0,62.8 0,79.3 37.3,97.9 "/>
<g class="st1">
	<path class="st0" d="M113.7,47h3.9v10.8h13.5V47h3.9v25.7h-3.9V61.2h-13.5v11.5h-3.9C113.7,72.7,113.7,47,113.7,47z"/>
	<path class="st0" d="M144.1,47h18.5v3.4H148v7.5h13.7v3.4H148v8.2h15.2v3.4h-19.1L144.1,47L144.1,47z"/>
	<path class="st0" d="M171.2,47h4l13.2,19.1h0.1V47h3.9v25.7h-3.8l-13.3-19.3h-0.1v19.3h-3.9L171.2,47L171.2,47z"/>
	<path class="st0" d="M211.7,47h3.9v17.4c0,2.9-0.6,5-1.8,6.5c-1.4,1.5-3.6,2.3-6.5,2.3c-2.6,0-4.5-0.7-5.8-2.1
		c-1.4-1.4-2.1-3.4-2.1-5.9v-0.9h3.9v0.8c0,3.1,1.3,4.6,4,4.6c1.5,0,2.6-0.4,3.3-1.3s1-2.3,1-4.1V47H211.7z"/>
	<path class="st0" d="M245.3,50.3c2.2,2.4,3.2,5.6,3.2,9.6c0,3.9-1.1,7.1-3.2,9.5c-2.3,2.5-5.3,3.8-9.3,3.8c-3.9,0-7-1.3-9.3-3.8
		c-2.1-2.4-3.2-5.6-3.2-9.5s1.1-7.1,3.2-9.5c2.2-2.6,5.3-3.9,9.3-3.9S243.1,47.7,245.3,50.3z M229.7,52.7c-1.4,1.8-2.2,4.1-2.2,7.2
		c0,3,0.7,5.4,2.2,7.1c1.5,1.8,3.7,2.7,6.4,2.7s4.9-0.9,6.3-2.7c1.5-1.8,2.2-4.2,2.2-7.2s-0.7-5.5-2.2-7.3s-3.6-2.7-6.3-2.7
		C233.3,49.9,231.2,50.8,229.7,52.7z"/>
	<path class="st0" d="M256.5,47h3.9v16c0,2.3,0.5,4,1.6,5.1s2.8,1.7,5.1,1.7c2.3,0,4-0.6,5.1-1.7s1.6-2.8,1.6-5.1V47h3.9v15.9
		c0,3.3-0.9,5.9-2.8,7.7c-1.9,1.8-4.5,2.6-7.8,2.6c-3.4,0-6-0.9-7.8-2.6c-1.9-1.8-2.8-4.4-2.8-7.7L256.5,47L256.5,47z"/>
</g>
<g>
	<path class="st0" d="M107.6,6c1.8,1.8,2.7,4,2.7,6.5s-0.9,4.7-2.7,6.5c-1.8,1.8-4,2.7-6.5,2.7c-2.6,0-4.7-0.9-6.5-2.7
		c-1.8-1.8-2.7-4-2.7-6.5c0-2.6,0.9-4.7,2.7-6.5c1.8-1.8,4-2.7,6.5-2.7S105.7,4.2,107.6,6z M95.3,6.8c-1.6,1.6-2.4,3.5-2.4,5.7
		s0.8,4.1,2.4,5.7s3.5,2.4,5.7,2.4s4.1-0.8,5.7-2.4s2.4-3.5,2.4-5.7s-0.8-4.1-2.4-5.7s-3.5-2.4-5.7-2.4C98.8,4.4,96.9,5.2,95.3,6.8z
		 M96.7,7h4.7c1.1,0,2,0.3,2.7,0.8s1,1.3,1,2.4c0,1.3-0.6,2.1-1.8,2.6c0.6,0.1,1,0.5,1.3,1.1c0.2,0.4,0.3,1,0.3,1.7
		c0.1,1.2,0.3,2,0.8,2.5h-2c-0.3-0.5-0.5-1.2-0.5-2.3c-0.1-0.9-0.3-1.4-0.5-1.7c-0.3-0.4-0.9-0.5-1.7-0.5h-2.6V18h-1.7
		C96.7,18,96.7,7,96.7,7z M98.5,8.5V12h2.7c0.7,0,1.3-0.2,1.7-0.5c0.4-0.3,0.5-0.8,0.5-1.3c0-1.1-0.7-1.7-2.2-1.7H98.5z"/>
</g>
</svg>
