<?xml version="1.0" encoding="utf-8"?>
<!-- Generator: Adobe Illustrator 22.0.0, SVG Export Plug-In . SVG Version: 6.00 Build 0)  -->
<svg version="1.1" id="a622e68e-7a65-46e9-94a9-d455de519afc"
	 xmlns="http://www.w3.org/2000/svg" xmlns:xlink="http://www.w3.org/1999/xlink" x="0px" y="0px" viewBox="0 0 971.4 502"
	 style="enable-background:new 0 0 971.4 502;" xml:space="preserve">
<style type="text/css">
	.st0{opacity:0.7;}
	.st1{fill:url(#SVGID_1_);}
	.st2{fill:#BDBDBD;}
	.st3{opacity:0.1;}
	.st4{fill:#535461;}
	.st5{opacity:0.5;}
	.st6{fill:url(#SVGID_2_);}
	.st7{fill:#FFFFFF;}
	.st8{fill:#E7475E;}
	.st9{fill:#E0E0E0;}
	.st10{fill:none;stroke:#E7475E;stroke-width:2;stroke-miterlimit:10;}
	.st11{fill:none;stroke:#FFFFFF;stroke-miterlimit:10;}
	.st12{fill:url(#SVGID_3_);}
	.st13{opacity:0.6;fill:none;stroke:#535461;stroke-width:3;stroke-miterlimit:10;enable-background:new    ;}
	.st14{fill:#4DB6AC;}
	.st15{opacity:0.3;fill:none;stroke:#535461;stroke-miterlimit:10;enable-background:new    ;}
	.st16{opacity:0.1;enable-background:new    ;}
	.st17{fill:url(#SVGID_4_);}
	.st18{fill:#3AD29F;}
	.st19{fill:#4D8AF0;}
	.st20{fill:#F55F44;}
	.st21{fill:#D9475A;}
</style>
<title>responsive</title>
<g class="st0">
	
		<linearGradient id="SVGID_1_" gradientUnits="userSpaceOnUse" x1="599.5" y1="-166.1702" x2="599.5" y2="302.8898" gradientTransform="matrix(1 0 0 -1 -114.28 302.8898)">
		<stop  offset="0" style="stop-color:#808080;stop-opacity:0.25"/>
		<stop  offset="0.54" style="stop-color:#808080;stop-opacity:0.12"/>
		<stop  offset="1" style="stop-color:#808080;stop-opacity:0.1"/>
	</linearGradient>
	<path class="st1" d="M738.4,0H232c-9,0-16.3,7.4-16.3,16.4v348.5c0,9,7.3,16.4,16.3,16.4h174.2v60.2h-7.9c-4.6,0-8.3,3.7-8.3,8.3
		c0,0,0,0,0,0v12.1h16.2v7.1h158.1v-7.1h16.2v-12.1c0-4.6-3.7-8.3-8.3-8.3c0,0,0,0,0,0h-7.5V441h-0.5v-59.6h174.2
		c9,0,16.3-7.4,16.3-16.4V16.4C754.7,7.4,747.4,0,738.4,0z"/>
</g>
<rect x="407.7" y="371" class="st2" width="156" height="92"/>
<g class="st3">
	<path d="M410.8,380H561c1.8-7.9,3.3-13,3.3-13h-157C407.2,367,408.8,372.1,410.8,380z"/>
</g>
<path class="st4" d="M235.8,3h499.8c8.9,0,16.1,7.2,16.1,16.1V327l0,0h-532l0,0V19.1C219.7,10.2,226.9,3,235.8,3
	C235.8,3,235.8,3,235.8,3z"/>
<path class="st2" d="M735.6,377H235.8c-8.9,0-16.1-7.2-16.1-16.1V327h532v33.9C751.7,369.8,744.5,377,735.6,377z"/>
<circle class="st4" cx="485.7" cy="352" r="9"/>
<path class="st2" d="M399.9,436h171.7c4.5,0,8.2,3.7,8.2,8.2V456l0,0h-188l0,0v-11.8C391.7,439.7,395.4,436,399.9,436
	C399.9,436,399.9,436,399.9,436z"/>
<g class="st5">
	
		<linearGradient id="SVGID_2_" gradientUnits="userSpaceOnUse" x1="485.72" y1="243.0098" x2="485.72" y2="430.7698" gradientTransform="matrix(1 0 0 -1 0 501.8898)">
		<stop  offset="0" style="stop-color:#808080;stop-opacity:0.25"/>
		<stop  offset="0.54" style="stop-color:#808080;stop-opacity:0.12"/>
		<stop  offset="1" style="stop-color:#808080;stop-opacity:0.1"/>
	</linearGradient>
	<path class="st6" d="M325.2,71.1h321c2.5,0,4.5,2,4.5,4.5v178.8c0,2.5-2,4.5-4.5,4.5h-321c-2.5,0-4.5-2-4.5-4.5V75.6
		C320.7,73.1,322.7,71.1,325.2,71.1z"/>
</g>
<path class="st7" d="M329.5,72.5H642c2.5,0,4.5,2,4.5,4.5v175c0,2.5-2,4.5-4.5,4.5H329.5c-2.5,0-4.5-2-4.5-4.5V77
	C325,74.5,327,72.5,329.5,72.5z"/>
<g class="st5">
	<path class="st8" d="M419,148.5h26.4c2.5,0,4.5,2,4.5,4.5v22.9c0,2.5-2,4.5-4.5,4.5H419c-2.5,0-4.5-2-4.5-4.5V153
		C414.5,150.5,416.5,148.5,419,148.5z"/>
</g>
<path class="st9" d="M462.4,148.5h92.2c1,0,1.8,0.8,1.8,1.8v0c0,1-0.8,1.8-1.8,1.8h-92.2c-1,0-1.8-0.8-1.8-1.8v0
	C460.6,149.3,461.4,148.5,462.4,148.5z"/>
<path class="st9" d="M462.4,159.2h92.2c1,0,1.8,0.8,1.8,1.8v0c0,1-0.8,1.8-1.8,1.8h-92.2c-1,0-1.8-0.8-1.8-1.8v0
	C460.6,160,461.4,159.2,462.4,159.2z"/>
<g class="st5">
	<path class="st8" d="M419,198.1h26.4c2.5,0,4.5,2,4.5,4.5v22.9c0,2.5-2,4.5-4.5,4.5H419c-2.5,0-4.5-2-4.5-4.5v-22.9
		C414.5,200.2,416.5,198.1,419,198.1z"/>
</g>
<path class="st9" d="M462.4,198.1h92.2c1,0,1.8,0.8,1.8,1.8v0c0,1-0.8,1.8-1.8,1.8h-92.2c-1,0-1.8-0.8-1.8-1.8v0
	C460.6,198.9,461.4,198.1,462.4,198.1z"/>
<path class="st9" d="M462.2,208.8h93.1c0.9,0,1.6,0.7,1.6,1.6v0.4c0,0.9-0.7,1.6-1.6,1.6h-93.1c-0.9,0-1.6-0.7-1.6-1.6v-0.4
	C460.6,209.5,461.3,208.8,462.2,208.8z"/>
<line class="st10" x1="485.7" y1="42" x2="485.7" y2="20"/>
<line class="st10" x1="485.7" y1="79" x2="485.7" y2="50.1"/>
<circle class="st8" cx="485.7" cy="79" r="4"/>
<circle class="st11" cx="485.7" cy="46" r="4"/>
<line class="st10" x1="485.7" y1="42" x2="485.7" y2="20"/>
<line class="st10" x1="485.7" y1="79" x2="485.7" y2="50.1"/>
<circle class="st8" cx="485.7" cy="79" r="4"/>
<circle class="st11" cx="485.7" cy="46" r="4"/>
<line class="st10" x1="485.7" y1="279" x2="485.7" y2="310"/>
<line class="st10" x1="485.7" y1="251" x2="485.7" y2="279.9"/>
<circle class="st8" cx="485.7" cy="251" r="4"/>
<line class="st10" x1="305.7" y1="168.5" x2="274.2" y2="168.5"/>
<line class="st10" x1="333.2" y1="168.5" x2="304.4" y2="168.5"/>
<circle class="st8" cx="333.2" cy="168.5" r="4"/>
<g class="st3">
	<rect x="408.2" y="435.5" width="156" height="3"/>
</g>
<g class="st0">
	
		<linearGradient id="SVGID_3_" gradientUnits="userSpaceOnUse" x1="132.0019" y1="-13.0667" x2="302.99" y2="-13.0667" gradientTransform="matrix(1 0 0 -1 -114.28 302.8898)">
		<stop  offset="0" style="stop-color:#808080;stop-opacity:0.25"/>
		<stop  offset="0.54" style="stop-color:#808080;stop-opacity:0.12"/>
		<stop  offset="1" style="stop-color:#808080;stop-opacity:0.1"/>
	</linearGradient>
	<path class="st12" d="M179.2,367.1h-72.4l1-8.1c20.5-18.4,33.7-67.3,33.7-67.3c-0.3,0-0.6,0.1-0.9,0.2c-12,2.4-20.5,7.4-26.5,13.3
		l2.5-21.7c37.8-8.1,52.8-58.1,52.8-58.1c-24.1,5.4-39.2,13.6-48.5,21.5l3.7-31.8c25.6,8.8,52-37.8,52-37.8l-1-0.2l0.5-0.3l-0.8,0.3
		c-28.2-6.1-43.4,10.1-48.2,16.8l0.4-3.1c-0.7,2-1.5,4-2.2,5.9l0,0v0.1c-2,5.4-3.8,10.8-5.5,16.1l0,0l0,0c-1.4,4.5-2.8,9-4.1,13.4
		v-0.1c0,0-1.2-28.5-31.2-36c0,0,3.1,62.1,26.9,51.9l0,0c-2.2,9-4,17.7-5.6,26.1l0,0c-1,5.5-1.9,10.8-2.6,16l-0.1,0.2l0.1-0.1
		l-0.1,0.4l0,0l0,0c-0.7,4.7-1.2,9.3-1.7,13.8c0.5-8.6-1.1-33.5-30.4-56.9c0,0-39,68.5,27.5,82c0.1,0.1,0.3,0.3,0.4,0.4l-0.1-0.3
		l0.6,0.1l0.3-3.5c-0.8,14.7-0.7,29.4,0.2,44.1l0,0c0.1,1,0.1,2,0.2,3H27.1c-27.9,57.8,15.5,89.5,15.5,89.5h120
		C209.2,397.7,179.2,367.1,179.2,367.1z M101.2,301.4L101.2,301.4L101.2,301.4z"/>
</g>
<path class="st13" d="M102.7,389c0,0-19-83,23-190"/>
<path class="st8" d="M28.7,364h147c0,0,29,37-16,92h-116C43.7,456,1.7,418,28.7,364z"/>
<path class="st14" d="M123.6,204.5c0,0,14.6-26,49.6-18c0,0-28.9,49.3-55,33.1L123.6,204.5z"/>
<path class="st14" d="M114.4,232.1c0,0-1.1-26.6-30.1-33.6c0,0,3,58,26,48.5L114.4,232.1z"/>
<path class="st14" d="M104.9,271.4c0,0,5.4-27.9,61.4-39.9c0,0-17.9,57.6-63.9,55.3L104.9,271.4z"/>
<path class="st14" d="M100.3,302.6c0,0,5.9-29.1-29.1-56.1c0,0-38,64.7,27.5,76.8L100.3,302.6z"/>
<path class="st14" d="M99.3,342.7c0,0-4.1-41.2,39.9-49.2c0,0-16.1,57.5-40,67.7L99.3,342.7z"/>
<path class="st15" d="M118.7,220c0,0,38-29,54-34"/>
<path class="st15" d="M102.2,286.5c0,0,46-49,64-55"/>
<path class="st15" d="M84.2,198.5c0,0,28,38,26,48"/>
<path class="st15" d="M71.2,246.5c0,0,15,68,27,77"/>
<path class="st15" d="M99.2,361.5c0,0,24-66,40-68"/>
<g class="st3">
	<path d="M175.7,364h-147c-0.3,0.7-0.6,1.3-1,2h143c0,0,28.3,36.1-14.4,90h3.4C204.7,401,175.7,364,175.7,364z"/>
</g>
<rect y="455.6" class="st9" width="971.4" height="32.9"/>
<rect x="41.2" y="488.5" class="st9" width="889.1" height="13.5"/>
<rect x="41.2" y="488.5" class="st16" width="889.1" height="4.5"/>
<line class="st10" x1="690.2" y1="168.5" x2="696.2" y2="168.5"/>
<line class="st10" x1="637.2" y1="168.5" x2="682.1" y2="168.5"/>
<circle class="st8" cx="637.2" cy="168.5" r="4"/>
<circle class="st11" cx="686.2" cy="168.5" r="4"/>
<g class="st0">
	
		<linearGradient id="SVGID_4_" gradientUnits="userSpaceOnUse" x1="933" y1="-66.3853" x2="1030.96" y2="-66.3853" gradientTransform="matrix(1 0 0 -1 -114.28 302.8898)">
		<stop  offset="0" style="stop-color:#808080;stop-opacity:0.25"/>
		<stop  offset="0.54" style="stop-color:#808080;stop-opacity:0.12"/>
		<stop  offset="1" style="stop-color:#808080;stop-opacity:0.1"/>
	</linearGradient>
	<path class="st17" d="M912.7,444.9l0.1-0.2c0.2-0.3,0.4-0.7,0.6-1l0.1-0.2c0.2-0.3,0.4-0.7,0.6-1l0.1-0.2c0.2-0.4,0.4-0.8,0.6-1.2
		l0,0c0.4-0.8,0.7-1.7,0.9-2.5l0.1-0.3c0.1-0.3,0.2-0.6,0.3-0.9l0.1-0.4c0.1-0.3,0.1-0.6,0.2-0.8c0-0.2,0.1-0.3,0.1-0.5
		s0.1-0.6,0.1-0.8s0-0.3,0.1-0.5s0.1-0.6,0.1-0.9c0-0.1,0-0.3,0-0.4c0-0.5,0-0.9,0-1.4V349h-13.8v-40.5h-17V349h-11.7v-58.1h-17V349
		h-6.4v-66.5h-17V349h-15v82.6c0,13.5,11.2,24.4,25,24.4h48c8,0,15.5-3.7,20.2-10.1l0,0C912.2,445.6,912.5,445.2,912.7,444.9z"/>
</g>
<rect x="835.7" y="321" class="st4" width="16" height="100"/>
<rect x="835.7" y="288" class="st18" width="16" height="33"/>
<rect x="857.7" y="329" class="st4" width="16" height="100"/>
<rect x="857.7" y="296" class="st19" width="16" height="33"/>
<rect x="884.7" y="346" class="st4" width="16" height="100"/>
<rect x="884.7" y="313" class="st20" width="16" height="33"/>
<path class="st8" d="M821.7,352h92l0,0v79.5c0,13-10.5,23.5-23.5,23.5h-45c-13,0-23.5-10.5-23.5-23.5V352L821.7,352z"/>
<g class="st3">
	<path d="M821.7,352v4h88v79.5c0,5.3-1.8,10.4-5,14.5c5.7-4.4,9-11.3,9-18.5V352H821.7z"/>
</g>
<path class="st21" d="M403.7,121.5c0,0,20.5-0.3,33.6-7c13.1-6.6,16.5-10,6.4-13.8c0,0,34,0-4.1,16.8v9.8h4.9v5.8h-23.4v-5.6h4.3
	V121C425.4,121,412.7,122.7,403.7,121.5z"/>
<path class="st21" d="M439.5,111V98.3h-14.1c0,0-1,6.4-9.3,6.4v4h9.3v8.4C425.4,117,433.7,114.8,439.5,111z"/>
<g>
	<path d="M466.9,127.3c-0.1,0.4-0.2,0.5-0.3,0.5c-0.1,0-0.2-0.1-0.3-0.4c-0.1-0.4-0.3-0.8-0.6-1.2c-0.3-0.4-0.6-0.8-1-1.2
		c-0.1-0.1-0.2-0.2-0.2-0.3c-0.1,0.5-0.2,0.9-0.3,1.3c-0.1,0.4-0.1,0.7-0.2,1c-0.1,0.3-0.1,0.6-0.2,0.8c-0.1,0.2-0.1,0.4-0.2,0.7
		c-0.1,0.4-0.4,0.7-0.6,1c-0.2,0.3-0.4,0.4-0.7,0.6c-0.2,0.1-0.5,0.2-0.7,0.3c-0.2,0-0.5,0-0.7,0c-0.2,0-0.3-0.1-0.3-0.1
		s0.1-0.1,0.3-0.2c0.3-0.1,0.6-0.2,0.9-0.4c0.2-0.1,0.4-0.3,0.7-0.6c0.2-0.2,0.4-0.6,0.5-1c0.2-0.4,0.4-0.9,0.5-1.6
		c0.2-0.8,0.4-1.6,0.6-2.5c0.1-0.8,0.2-1.6,0.2-2.5c0-0.4,0-0.8-0.1-1c-0.1-0.2-0.2-0.4-0.4-0.6c-0.1-0.1-0.2-0.2-0.1-0.3
		c0.1-0.1,0.2-0.1,0.5,0c0.2,0,0.3,0.1,0.4,0.1c0.1,0.1,0.2,0.1,0.2,0.3s0.1,0.3,0.1,0.5c0,0.2,0,0.4,0,0.7c0,0.3-0.1,0.7-0.1,1.2
		c-0.1,0.5-0.1,1.1-0.2,1.7c0,0.1,0,0.1,0,0.2s0,0.1-0.1,0.2c0,0,0.2,0.1,0.4,0.2c0.5,0.4,0.9,0.8,1.3,1.1c0.1,0.1,0.1,0.1,0.2,0.1
		s0.1,0,0.1,0s0.1-0.1,0.1-0.3c0-0.1,0.1-0.4,0.1-0.6c0-0.4,0-0.8,0-1.3c0-0.5,0-1,0-1.6s0-1.1,0-1.6c0-0.5,0-1-0.1-1.3
		c0-0.5-0.1-1-0.1-1.3c-0.1-0.3-0.1-0.6-0.3-0.7c-0.1-0.1-0.2-0.3-0.4-0.3s-0.3,0-0.5,0c-0.3,0-0.6,0.1-0.9,0.2
		c-0.3,0.1-0.7,0.3-1,0.5c-0.2,0.1-0.3,0.3-0.4,0.5s-0.1,0.6-0.2,1c0,0.1,0,0.1,0,0.3s-0.1,0.4-0.2,0.8c-0.1,0.5-0.2,1-0.3,1.6
		c-0.1,0.5-0.1,1.1-0.1,1.6c0,0.5,0,1,0,1.5s0.1,0.9,0.1,1.2s0,0.5,0,0.6c-0.1,0.1-0.1,0-0.2-0.1c-0.2-0.2-0.3-0.5-0.4-0.7
		c-0.1-0.2-0.1-0.5-0.1-0.8c0-0.1,0-0.3,0-0.5c0-0.2,0-0.5,0-0.8c0-0.3,0-0.6,0.1-0.9s0.1-0.7,0.1-1c0-0.3,0.1-0.6,0.1-0.8
		c0-0.2,0.1-0.4,0.1-0.5c0.1-0.4,0.1-0.7,0.1-1.1c0-0.4-0.1-0.9-0.3-1.4c0-0.1,0-0.2,0-0.2c0.1,0,0.1,0.1,0.2,0.2
		c0.1,0.1,0.2,0.3,0.3,0.4c0.1,0.1,0.2,0.2,0.3,0.4c0.1-0.4,0.1-0.6,0.2-0.8c0.1-0.2,0.1-0.4,0.3-0.6c0.1-0.2,0.3-0.4,0.5-0.6
		c0.2-0.2,0.4-0.3,0.7-0.4c0.7-0.2,1.2-0.3,1.5-0.3c0.3,0,0.6,0.1,0.7,0.2c0.3,0.3,0.5,0.5,0.6,0.7c0.1,0.2,0.1,0.5,0.1,0.8
		c0,0.1,0,0.3,0,0.4s0,0.3,0,0.5c0,0.2,0,0.4,0,0.7c0,0.3,0,0.6,0.1,1c0,0.5,0.1,1,0.1,1.6c0,0.6,0,1.3,0,1.9c0,0.6-0.1,1.2-0.1,1.8
		C467.1,126.5,467,127,466.9,127.3z M465.1,127.6c0.6,0.3,1.2,0.6,1.6,0.9s0.8,0.8,1.1,1.3c0.2,0.4,0.3,0.7,0.2,0.8
		c-0.1,0.1-0.3,0-0.6-0.3c-0.6-0.5-1-1-1.4-1.3c-0.4-0.4-0.7-0.7-1-1c-0.2-0.3-0.3-0.4-0.3-0.4S464.9,127.5,465.1,127.6z
		 M476.5,119.1c0.1,0.2,0.1,0.4,0,0.4c-0.1,0.1-0.4,0.2-0.9,0.3c-0.2,0-0.5,0.1-0.8,0.2c-0.3,0.1-0.6,0.2-1,0.3c0,0.2,0,0.5,0,0.8
		s0,0.6,0,0.9c0.1-0.2,0.1-0.3,0.2-0.4c0.1-0.3,0.1-0.4,0.2-0.4s0.2,0.1,0.3,0.3c0.2,0.3,0.3,0.6,0.3,0.7c0,0.1-0.1,0.3-0.2,0.4
		c-0.1,0.1-0.2,0.2-0.3,0.3s-0.2,0.3-0.4,0.4c0,0.9,0,1.8,0.1,2.8s0.1,1.8,0.1,2.6c0,0.8,0,1.5,0.1,2.1c0,0.6,0,0.9,0,1.1
		c0,0.5-0.1,0.8-0.2,0.8c-0.1,0-0.4-0.1-0.9-0.3c-0.2-0.1-0.5-0.3-0.8-0.6c-0.3-0.2-0.6-0.5-1-0.7c-0.3-0.3-0.6-0.5-0.9-0.8
		c-0.3-0.3-0.5-0.5-0.7-0.7c-0.4-0.5-0.5-0.8-0.5-0.8s0.2,0.1,0.5,0.4c0.2,0.2,0.4,0.4,0.7,0.6c0.3,0.2,0.5,0.4,0.8,0.6
		c0.3,0.2,0.5,0.4,0.8,0.6c0.2,0.2,0.5,0.3,0.6,0.4c0.4,0.2,0.6,0.2,0.7,0.1c0.1-0.1,0.1-0.5,0.1-1c0-0.1,0-0.4,0-0.7
		c0-0.4,0-0.9,0-1.4s0-1.2-0.1-1.9c0-0.7,0-1.4-0.1-2.2c-0.5,0.6-0.9,1.1-1.3,1.5c-0.4,0.4-0.8,0.7-1.2,1s-0.8,0.5-1.2,0.7
		c-0.4,0.2-0.8,0.4-1.3,0.5c-0.3,0.1-0.6,0.1-0.7,0.1c-0.1,0-0.1-0.1,0.2-0.2c0.5-0.2,0.9-0.4,1.4-0.7c0.4-0.3,0.9-0.6,1.3-1
		s0.9-0.8,1.3-1.3c0.4-0.5,0.9-1.1,1.3-1.7c0-0.4,0-0.8,0-1.2c0-0.4,0-0.8,0-1.2c-0.5,0.2-1,0.4-1.5,0.7c-0.4,0.2-0.8,0.4-1,0.6
		c-0.3,0.2-0.6,0.4-0.9,0.4c-0.3,0-0.6-0.1-1-0.2c-0.3-0.1-0.4-0.2-0.4-0.3c0-0.1,0.1-0.1,0.4-0.1c0.2,0,0.4,0,0.6-0.1
		c0.2,0,0.4-0.1,0.8-0.3c0.5-0.3,1-0.5,1.6-0.7c0.5-0.2,1-0.4,1.4-0.6c0-0.5,0-1,0-1.4c0-0.4,0-0.6,0-0.7c0-0.9,0.1-1.6,0-2
		c0-0.4-0.1-0.7-0.2-0.8c-0.4-0.4-0.6-0.7-0.5-0.8c0.1-0.1,0.5,0.1,1.3,0.4c0.4,0.2,0.5,0.3,0.6,0.4s0,0.3-0.1,0.5
		c-0.1,0.3-0.2,0.6-0.3,1.1c0,0.5-0.1,1.1-0.1,1.8c0,0.1,0,0.2,0,0.4c0,0.2,0,0.4,0,0.8c0.3-0.1,0.6-0.3,0.9-0.4
		c0.3-0.1,0.5-0.2,0.7-0.3c0.3-0.1,0.6-0.2,0.7-0.1C476.4,118.9,476.5,119,476.5,119.1z"/>
	<path d="M491.9,118c-0.4,0.1-0.8,0.1-1.3-0.3c-0.4,0.6-0.7,1.3-1,1.9c-0.3,0.6-0.6,1.3-0.9,1.9c-0.3,0.6-0.5,1.3-0.7,1.9
		c-0.2,0.7-0.4,1.4-0.6,2.2c-0.1,0.3-0.2,0.7-0.3,0.9c-0.1,0.3-0.3,0.7-0.6,1.1c-0.1,0.2-0.2,0.4-0.3,0.6c-0.1,0.2-0.2,0.3-0.3,0.4
		c-0.1,0.1-0.2,0.3-0.3,0.4c-0.1,0.1-0.1,0.3-0.2,0.4c-0.1,0.1-0.1,0.3-0.1,0.4c0,0.1-0.1,0.3-0.1,0.5c-0.1,0.6-0.3,1-0.4,0.9
		c-0.2,0-0.3-0.4-0.3-1.2c0-0.3,0-0.6,0.1-0.9c0.1-0.3,0.3-0.6,0.6-0.9c0.4-0.4,0.7-0.9,0.8-1.4c0.1-0.5,0.2-1.1,0.2-1.8
		c0-0.3-0.1-0.6-0.3-0.8c-0.2-0.2-0.4-0.2-0.6-0.2c-0.2,0.1-0.4,0.3-0.6,0.4c-0.1,0.1-0.3,0.3-0.4,0.4c-0.4,0.3-0.6,0.5-0.7,0.5
		c-0.1,0-0.1-0.1-0.2-0.5c0-0.3,0-0.5,0.2-0.7c0.1-0.1,0.3-0.3,0.4-0.3c0.3-0.1,0.5-0.4,0.8-0.6c0.3-0.2,0.6-0.6,0.9-1
		c0.2-0.3,0.4-0.6,0.5-0.8c0.1-0.2,0.2-0.4,0.2-0.5s0-0.3-0.1-0.4s-0.2-0.3-0.4-0.5c-0.1-0.1-0.2-0.1-0.3-0.2s-0.2-0.1-0.4,0
		c-0.1,0-0.4,0.1-0.6,0.2s-0.5,0.3-0.9,0.6c-0.5,0.3-0.8,0.5-1,0.5c-0.2,0-0.3-0.1-0.3-0.3c0-0.2,0-0.4,0.1-0.5
		c0.1-0.1,0.3-0.3,0.7-0.5c0.4-0.2,1-0.6,1.7-1.2c0.7-0.6,1.6-1.6,2.5-2.8c0.1-0.2,0.2-0.4,0.2-0.6c0-0.2-0.1-0.5-0.4-0.9
		c-0.1-0.1-0.1-0.3,0-0.3c0.1-0.1,0.2,0,0.4,0.1c0.2,0.1,0.4,0.3,0.6,0.5c0.2,0.2,0.4,0.4,0.7,0.7c0.1,0.2,0.2,0.3,0.1,0.4
		c-0.1,0.1-0.2,0.3-0.5,0.5c-0.2,0.2-0.4,0.4-0.7,0.6c-0.2,0.2-0.5,0.5-0.7,0.7c-0.2,0.2-0.5,0.5-0.7,0.7c-0.2,0.2-0.4,0.4-0.5,0.6
		c0.3,0.4,0.5,0.6,0.7,0.9c0.2,0.2,0.4,0.4,0.6,0.7c0.2,0.3,0.3,0.5,0.2,0.7c-0.1,0.2-0.2,0.4-0.4,0.6c-0.1,0.2-0.3,0.4-0.4,0.6
		c-0.1,0.2-0.3,0.4-0.4,0.6c-0.1,0.1-0.1,0.3-0.2,0.4c0,0.1-0.1,0.2,0,0.3c0,0.1,0.1,0.2,0.1,0.3c0.1,0.1,0.2,0.3,0.4,0.4
		c0.1,0.1,0.1,0.2,0.2,0.4c0.1,0.2,0.1,0.5,0,0.8c0.4-1,0.7-1.9,1-2.6c0.3-0.7,0.6-1.4,0.9-2c0.3-0.6,0.6-1.2,0.9-1.8
		s0.7-1.2,1.2-1.9c-0.2-0.1-0.3-0.3-0.2-0.3s0.2-0.1,0.5,0c0.1,0,0.2,0,0.3,0c0.1,0,0.3,0,0.4-0.1c0.1,0,0.3-0.1,0.4-0.1
		s0.3-0.1,0.4-0.1c0.1,0,0.2-0.1,0.4-0.1c0.1-0.1,0.3-0.1,0.5-0.2s0.3-0.1,0.5-0.2c0.1-0.1,0.3-0.1,0.4-0.2c0.2-0.1,0.4-0.1,0.5-0.1
		c0.1,0,0.3,0.1,0.5,0.3c0.2,0.2,0.2,0.3,0.2,0.4c0,0.1-0.2,0.3-0.5,0.5c-0.2,0.1-0.4,0.3-0.6,0.6c-0.2,0.3-0.5,0.6-0.8,0.9
		c-0.8,1-1.6,1.9-2.2,2.7s-1.5,1.6-2.3,2.3c-0.2,0.2-0.4,0.2-0.4,0.1c-0.1-0.1-0.1-0.2-0.1-0.3c0-0.1,0-0.1,0-0.2
		c0-0.1,0-0.1,0.1-0.3c0-0.1,0.1-0.2,0.2-0.3c0.1-0.1,0.3-0.2,0.5-0.4c0.2-0.1,0.5-0.4,0.9-0.8c0.4-0.4,0.7-0.8,1.2-1.3
		c0.4-0.5,0.8-1,1.3-1.6c0.4-0.5,0.8-1,1.1-1.5c-0.3,0-0.6,0.1-0.8,0.2C492.6,117.8,492.3,117.9,491.9,118z M498.2,129.7
		c0,0.1,0.1,0.1,0,0.2c0,0.1-0.1,0.1-0.2,0.2c-0.1,0.1-0.2,0.1-0.4,0.1s-0.3,0-0.6-0.1c-0.2-0.1-0.5-0.1-0.8-0.1
		c-0.3,0-0.7-0.1-1-0.1c-0.4,0-0.7-0.1-1-0.1c-0.4,0-0.7,0-1,0c-0.3,0-0.6,0-1,0.1c-0.4,0.1-0.8,0.1-1.2,0.2
		c-0.4,0.1-0.8,0.2-1.2,0.3c-0.4,0.1-0.7,0.2-1,0.3c-0.5,0.2-0.9,0.1-0.9-0.2c0-0.1,0-0.2,0.1-0.3c0.1-0.1,0.3-0.1,0.6-0.2
		c0.4-0.1,0.7-0.2,1-0.3s0.5-0.2,0.7-0.2c0.2-0.1,0.4-0.1,0.6-0.3c0.2-0.1,0.3-0.2,0.5-0.3c0.3-0.3,0.7-0.7,1.1-1.2s0.8-1.1,1.2-1.9
		c-0.4,0-0.8,0.1-1.1,0.1c-0.3,0.1-0.7,0.2-1,0.3c-0.3,0.1-0.6,0.1-0.8,0c-0.3-0.1-0.5-0.3-0.7-0.6c-0.2-0.3-0.1-0.4,0.2-0.3
		c0.5,0.2,1,0.3,1.5,0.1c0.4-0.1,0.7-0.2,1-0.4c0.3-0.1,0.5-0.2,0.6-0.2c0.3-0.1,0.5-0.1,0.6-0.1s0.4,0.1,0.5,0.2
		c0.1,0.1,0.2,0.3,0.1,0.6s-0.3,0.6-0.6,1c-0.1,0.1-0.2,0.2-0.3,0.4c-0.1,0.2-0.3,0.4-0.4,0.7c-0.1,0.2-0.3,0.5-0.5,0.8
		c-0.2,0.3-0.3,0.5-0.4,0.8c0.8-0.1,1.6-0.1,2.3-0.1c0.7,0,1.4,0,2,0.1c0.4,0,0.7,0.1,1,0.2C497.9,129.5,498.1,129.6,498.2,129.7z
		 M493.6,121c-0.1-0.1-0.2-0.2-0.1-0.2c0-0.1,0.2-0.1,0.4-0.1c1.2,0.2,1.9,0.4,2.4,0.8c0.3,0.3,0.5,0.5,0.4,0.7
		c-0.1,0.2-0.2,0.3-0.4,0.3c-0.4,0.1-1,0.2-1.5,0.4c-0.5,0.1-1.2,0.4-1.9,0.6c-0.4,0.1-0.6,0.1-0.6,0.1s0.1-0.1,0.4-0.3
		c0.6-0.2,1.1-0.4,1.5-0.6s0.6-0.3,0.7-0.4c0.1-0.1,0.2-0.2,0.2-0.3c0-0.1-0.1-0.1-0.2-0.2c-0.3-0.1-0.5-0.2-0.7-0.3
		C494.2,121.2,493.9,121.1,493.6,121z"/>
	<path d="M519.6,122.9c0.1,0.4,0.1,0.7,0,0.9s-0.3,0.3-0.7,0.3c-0.5,0.1-1.1,0.1-1.8,0.2c-0.7,0.1-1.3,0.2-1.9,0.4
		c-0.3,0.1-0.5,0.1-0.6,0.1c-0.1,0-0.1,0,0-0.1c0.1-0.1,0.4-0.1,0.8-0.3c0.4-0.1,1-0.3,1.7-0.5c1.2-0.4,1.7-0.7,1.6-0.9
		s-0.8-0.4-2.1-0.3c-0.8,0-1.7,0.1-2.8,0.1c-1,0.1-1.9,0.2-2.9,0.4c-0.9,0.1-1.8,0.4-2.6,0.6c-0.8,0.2-1.5,0.4-2.1,0.6
		c-0.4,0.2-0.9,0.3-1.3,0.2c-0.4-0.1-0.9-0.2-1.3-0.6c-0.5-0.4-0.7-0.6-0.5-0.7c0.1-0.1,0.4,0,0.8,0.2c0.3,0.1,0.6,0.2,1,0.2
		c0.4,0,0.9-0.1,1.5-0.3c0.7-0.2,1.5-0.4,2.3-0.5c0.9-0.2,1.7-0.3,2.6-0.5s1.8-0.3,2.8-0.4s1.9-0.2,2.8-0.2c0.7,0,1.3,0.1,1.8,0.2
		C519.2,122.3,519.5,122.6,519.6,122.9z"/>
	<path d="M530.4,121.6c0.2-0.4,0.4-0.6,0.4-0.6c0.1,0,0.1,0.2,0,0.5c-0.3,1-0.7,1.9-1.1,2.9c-0.4,1-0.8,1.9-1.2,2.7
		c-0.4,0.8-0.7,1.6-1,2.2c-0.3,0.7-0.5,1.2-0.7,1.5c-0.2,0.4-0.3,0.6-0.4,0.6s-0.2-0.3-0.2-0.7c0-0.2,0-0.5,0.1-0.9
		c0.1-0.4,0.2-0.7,0.4-0.9c0.4-0.5,0.7-1,0.7-1.5s0.1-1-0.1-1.6c-0.1-0.4-0.3-0.7-0.5-0.9c-0.2-0.2-0.4-0.2-0.5-0.1
		c-0.2,0.2-0.4,0.3-0.5,0.4c-0.1,0.1-0.2,0.2-0.4,0.4c-0.4,0.4-0.6,0.6-0.8,0.6c-0.1,0-0.2-0.1-0.2-0.4c0-0.2,0.1-0.4,0.1-0.5
		c0.1-0.1,0.2-0.2,0.4-0.3c0.1-0.1,0.4-0.3,0.8-0.6s0.8-0.7,1.2-1.3c0.4-0.6,0.7-1,0.7-1.2s-0.1-0.5-0.3-0.6c-0.4-0.3-0.7-0.4-1-0.3
		c-0.3,0.1-0.7,0.2-1.1,0.6c-0.3,0.2-0.5,0.4-0.6,0.3c-0.1,0-0.1-0.1-0.1-0.3c0-0.1,0-0.2,0-0.3s0.1-0.1,0.1-0.2s0.1-0.1,0.3-0.2
		c0.1-0.1,0.3-0.2,0.5-0.3c0.1-0.1,0.2-0.1,0.4-0.3c0.1-0.1,0.3-0.2,0.5-0.4c0.2-0.2,0.5-0.4,0.8-0.8c0.3-0.3,0.7-0.7,1.1-1.3
		c0.2-0.2,0.3-0.5,0.3-0.7c0-0.3-0.2-0.6-0.4-1c-0.1-0.1-0.1-0.3-0.1-0.3c0.1-0.1,0.2,0,0.4,0.2c0.2,0.2,0.4,0.4,0.6,0.6
		c0.2,0.2,0.4,0.4,0.4,0.6c0.1,0.1,0.1,0.3,0,0.5c-0.1,0.2-0.4,0.5-0.8,0.9c-0.3,0.2-0.5,0.4-0.8,0.7c-0.3,0.3-0.6,0.7-1,1.2
		c0.4,0.1,0.7,0.3,1,0.5c0.2,0.2,0.4,0.4,0.5,0.5c0.1,0.2,0.1,0.4,0.1,0.5c0,0.2-0.1,0.3-0.2,0.4c-0.1,0.2-0.3,0.4-0.6,0.8
		c-0.3,0.4-0.5,0.7-0.8,1.1c0.4,0.2,0.6,0.5,0.8,0.8c0.2,0.3,0.3,0.7,0.3,1c0.3-0.5,0.6-1,0.8-1.5c0.2-0.4,0.4-0.8,0.6-1.2
		c0.2-0.4,0.4-0.7,0.5-1C530.2,122.2,530.3,121.9,530.4,121.6z M540.8,132.2c0.1,0.5,0.2,0.7,0.1,0.9c-0.1,0.1-0.2,0.1-0.5-0.1
		c-0.2-0.1-0.4-0.3-0.7-0.5c-0.3-0.2-0.7-0.6-1-1c-0.4-0.4-0.8-0.9-1.2-1.5c-0.4-0.6-0.8-1.3-1.2-2.1c-0.6,0.4-1.3,0.6-2.1,0.9
		c-0.8,0.2-1.6,0.3-2.5,0.4c-0.5,0-0.7,0-0.8-0.1c0-0.1,0.2-0.2,0.6-0.3c0.9-0.1,1.8-0.3,2.5-0.6c0.8-0.3,1.4-0.6,1.9-0.9
		c0-0.1-0.1-0.1-0.1-0.2c0-0.1-0.1-0.1-0.1-0.2c-0.3-0.7-0.6-1.5-0.9-2.4c-0.3,0.2-0.5,0.3-0.7,0.4c-0.2,0.1-0.4,0.2-0.5,0.3
		c-0.1,0.1-0.2,0.1-0.3,0.2c-0.1,0.1-0.1,0.1-0.2,0.1c-0.3,0.2-0.5,0.4-0.7,0.5s-0.3,0.2-0.4,0.3c-0.1,0-0.2,0.1-0.3,0
		c-0.1,0-0.2-0.1-0.3-0.1c-0.2-0.1-0.3-0.3-0.3-0.5s0.3-0.5,0.7-0.9c0.3-0.4,0.7-0.8,1.1-1.3c0.4-0.5,0.8-1.1,1.2-1.6
		c-0.1-0.2-0.1-0.5-0.2-0.7c-0.1-0.2-0.1-0.5-0.2-0.7c-0.4,0.3-0.7,0.5-1,0.5c-0.2,0.1-0.4,0.1-0.5,0.1c-0.2,0-0.3-0.1-0.4-0.1
		c-0.1,0-0.2-0.1-0.4-0.2c-0.2-0.2-0.2-0.3,0.1-0.3c0.3,0,0.6-0.1,1-0.2c0.3-0.1,0.6-0.3,1-0.5c-0.1-0.5-0.2-1-0.4-1.6
		c-0.1-0.5-0.2-1.1-0.4-1.6c-0.1-0.6-0.3-1-0.4-1.3c-0.2-0.3-0.4-0.5-0.8-0.6c-0.3-0.1-0.4-0.2-0.4-0.3c0-0.1,0.2-0.1,0.5,0
		c0.3,0.1,0.6,0.1,0.8,0.2c0.2,0.1,0.4,0.2,0.5,0.3c0.1,0.1,0.3,0.3,0.4,0.6c0.1,0.2,0.1,0.5,0.2,0.8c0,0.4,0.1,0.8,0.2,1.3
		s0.2,1.1,0.4,1.8c0.2-0.1,0.4-0.3,0.7-0.4s0.5-0.3,0.8-0.4c0.3-0.1,0.5-0.3,0.7-0.4c0.2-0.1,0.4-0.2,0.5-0.2c0.3-0.1,0.5-0.1,0.6,0
		s0,0.4-0.3,0.8c-0.2,0.3-0.4,0.6-0.6,0.9c-0.2,0.3-0.4,0.5-0.5,0.8c-0.2,0.3-0.4,0.5-0.5,0.8c-0.2,0.3-0.4,0.5-0.6,0.8
		c0,0.1,0.1,0.1,0.1,0.2s0,0.1,0.1,0.2c0.1,0.2,0.1,0.4,0.2,0.6s0.1,0.4,0.1,0.5c0.4-0.2,0.7-0.4,1-0.6c0.3-0.2,0.6-0.3,0.7-0.4
		c0.1-0.1,0.2-0.1,0.3-0.2c0.1-0.1,0.1-0.1,0-0.2c0-0.1-0.1-0.2-0.3-0.4c-0.1-0.2-0.4-0.4-0.7-0.7c-0.1-0.1-0.2-0.3-0.1-0.3
		c0.1,0,0.1,0,0.3,0.1c0.4,0.4,0.7,0.7,1,0.9c0.3,0.2,0.6,0.4,1,0.5c0.2,0.1,0.3,0.2,0.3,0.4c-0.1,0.1-0.3,0.3-0.6,0.4
		c-0.5,0.1-0.9,0.2-1.3,0.4c-0.4,0.1-0.8,0.3-1.2,0.6c-0.1,0-0.1,0.1-0.2,0.1s-0.1,0.1-0.1,0.1c0.2,0.5,0.3,1,0.5,1.4
		c0.1,0.5,0.4,0.9,0.5,1.3l0.1-0.1c0.4-0.4,0.7-0.8,0.7-1c0.1-0.2,0-0.5-0.1-0.7c-0.1-0.1-0.1-0.2,0-0.2c0.1-0.1,0.2,0,0.4,0.1
		c0.3,0.2,0.5,0.3,0.6,0.5s0.1,0.4,0,0.7c-0.1,0.2-0.2,0.5-0.4,0.7c-0.2,0.2-0.4,0.4-0.6,0.7l-0.3,0.3c0.3,0.6,0.7,1.2,1,1.7
		c0.4,0.5,0.8,1,1.3,1.6c0.2,0.2,0.4,0.3,0.5,0.2s0.2-0.2,0.2-0.4c0-0.1,0-0.3,0.1-0.6s0.1-0.6,0.1-1c0-0.4,0.1-0.7,0.1-1.1
		c0-0.4,0.1-0.7,0.1-1c0-0.4,0.1-0.7,0.2-0.6c0.1,0,0.1,0.2,0.1,0.6c0,0.4,0,1,0,1.5c0,0.5,0,1,0.1,1.5s0.1,0.9,0.1,1.3
		C540.7,131.7,540.7,132,540.8,132.2z M532.1,125.5c0.3-0.3,0.7-0.5,1.1-0.8c0.4-0.3,0.9-0.5,1.3-0.8c-0.1-0.2-0.1-0.4-0.2-0.6
		s-0.1-0.4-0.2-0.6c-0.4,0.4-0.7,0.9-1.1,1.5C532.8,124.6,532.4,125,532.1,125.5z M534.3,119.9c0.1,0.3,0.2,0.7,0.3,1.2
		c0.4-0.5,0.7-1,1-1.4c0.3-0.4,0.5-0.7,0.6-0.9c-0.2,0.1-0.5,0.3-0.9,0.5C534.9,119.5,534.6,119.7,534.3,119.9z M537.5,117.1
		c-0.3-0.2-0.4-0.3-0.3-0.4c0.1-0.1,0.3-0.1,0.7,0c0.4,0.1,0.8,0.2,1.1,0.3c0.3,0.1,0.5,0.3,0.6,0.4c0.4,0.3,0.5,0.5,0.4,0.7
		c-0.1,0.1-0.3,0.1-0.7,0c-0.4-0.1-0.7-0.3-1-0.4C538,117.5,537.8,117.3,537.5,117.1z"/>
</g>
</svg>
