<?xml version="1.0" encoding="utf-8"?>
<!-- Generator: Adobe Illustrator 22.0.0, SVG Export Plug-In . SVG Version: 6.00 Build 0)  -->
<svg version="1.1" id="图层_1" xmlns="http://www.w3.org/2000/svg" xmlns:xlink="http://www.w3.org/1999/xlink" x="0px" y="0px"
	 viewBox="0 0 695.4 157.4" style="enable-background:new 0 0 695.4 157.4;" xml:space="preserve">
<style type="text/css">
	.st0{fill:#009DDF;}
	.st1{fill:#868789;}
	.st2{font-family:'Arial-BoldMT';}
	.st3{font-size:29.9251px;}
</style>
<g>
	<path class="st0" d="M378.2,21.8c3.2-1.1,5.1,0,6.8,2.6c9.7,14.8,19.6,29.5,29.5,44.3c3.4,5.1,7,10.2,10.8,15.7
		c0-21.2,0-41.9,0-62.8c9,0,17.7,0,26.6,0c0,31.7,0,63.4,0,95.3c-0.6,0-1.2,0.1-1.9,0.1c-11.8,0-23.5,0-35.3,0c-1.2,0-2-0.3-2.7-1.4
		c-6.7-9.9-13.4-19.8-20.1-29.7c-4.3-6.4-8.6-12.7-12.9-19.1c-0.3-0.5-0.7-1.2-0.7-1.8C378.2,50.7,378.2,36.3,378.2,21.8z"/>
	<path class="st0" d="M339.6,116.6c-4.4,0-8.7,0-13,0c-8.1,0-16.1,0-24.2,0c-1.4,0-2.2-0.4-3.1-1.6c-9.2-13.9-18.6-27.7-27.9-41.5
		c-0.4-0.6-0.9-1.2-1.4-1.8c-3.5-3.8-4.3-8.3-4.1-13.4c0.3-11.5,0.1-23.1,0.1-34.6c0-0.8,0-1.6,0-2.4c2.9-0.6,4.7-0.1,6.5,2.6
		c11.2,17,22.6,33.9,33.9,50.9c2,3,4.2,6,6.6,9.4c0-21.1,0-41.9,0-62.8c9,0,17.7,0,26.7,0C339.6,52.9,339.6,84.6,339.6,116.6z"/>
	<path class="st0" d="M554.3,20.6c10.5,0,20.7,0,30.8,0c2.6,0,3.1,2.4,4.3,3.8c5.1,6,10,12.3,15,18.5c1.8,2.2,3.6,4.5,5.6,7
		c1.5-1.9,3-3.6,4.4-5.4c6.1-7.7,12.1-15.4,18.1-23.1c0.3-0.4,0.9-0.7,1.4-0.7c9,0,17.9,0,27.4,0c-2.9,3.7-5.5,7.2-8.2,10.6
		c-4.2,5.4-8.5,10.7-12.7,16c-4.8,6.1-9.5,12.1-14.3,18.2c-5.2,6.6-10.4,13.2-15.6,19.7c-4.9,6.2-9.8,12.5-14.7,18.7
		c-3.1,4-6.2,7.9-9.4,11.9c-0.5,0.6-1.4,1.3-2.1,1.3c-10.3,0.1-20.5,0-30.8,0c-0.1,0-0.3-0.1-0.7-0.3c1.7-2.2,3.3-4.4,4.9-6.5
		c4.1-5.3,8.3-10.6,12.5-15.9c5.2-6.6,10.4-13.2,15.5-19.8c1.6-2,3.2-4.1,4.7-6.2c0.3-0.4,0.3-1.5,0-1.9
		c-6.1-7.8-12.2-15.7-18.4-23.4c-4.8-6.1-9.7-12.2-14.6-18.3C556.4,23.6,555.5,22.3,554.3,20.6z"/>
	<path class="st0" d="M102.5,80.4c-6.9,0-13.5,0-20.2,0c0-5.7,0-11.3,0-17c15.7,0,31.4,0,47.4,0c0,0.8,0,1.6,0,2.4
		c0,8.9,0.2,17.8-0.1,26.7c-0.1,4.4-0.9,8.8-1.9,13.1c-1.2,4.9-4.8,7.8-9.4,9.7c-3.4,1.4-7,1.9-10.7,1.8c-15.5-0.1-30.9,0-46.6,0
		c0-7.7,0-15.3,0-23c10.4,2.9,21,1.3,31.5,1.6c1.8,0.1,3.6-0.5,5.4-0.8c3.1-0.5,4.3-2.8,4.5-5.5C102.7,86.5,102.5,83.5,102.5,80.4z"
		/>
	<path class="st0" d="M164,21.2c0,32,0,63.8,0,95.7c-8.8,0-17.5,0-26.4,0c0-31.8,0-63.7,0-95.7C146.2,21.2,155,21.2,164,21.2z"/>
	<path class="st0" d="M459.8,21.2c8.9,0,17.6,0,26.4,0c0,32,0,63.8,0,95.8c-8.8,0-17.5,0-26.4,0C459.8,85.1,459.8,53.2,459.8,21.2z"
		/>
	<path class="st0" d="M233.9,117.9c0-32.4,0-64.7,0-97.1c8.7,0,17.5,0,26.6,0c0,0.7,0,1.5,0,2.3c0,28.1,0,56.3,0,84.4
		c0,1.7-0.4,2.4-2.1,2.9c-7.7,2.3-15.3,4.9-22.9,7.3C235,117.9,234.5,117.9,233.9,117.9z"/>
	<path class="st0" d="M346.6,118.5c0-32.4,0-64.8,0-97.2c8.7,0,17.3,0,26.2,0c0,1.1,0,1.9,0,2.7c0,28,0,56,0.1,84
		c0,1.8-0.6,2.6-2.2,3.2c-7.5,2.3-15,4.8-22.5,7.2C347.6,118.5,347.1,118.5,346.6,118.5z"/>
	<path class="st0" d="M55.3,117.1c-2.8-0.5-5.5-0.8-8.2-1.4c-8.5-1.9-13.4-7.6-15.5-15.6c-1.3-5.1-1.6-10.6-1.9-15.9
		c-0.4-8.9-0.6-17.7-0.4-26.6c0.1-6.3-0.1-12.8,2.1-19c2.6-7.6,7.3-13,14.8-15.7c2.8-1,5.9-1,9.1-1.5
		C55.3,53.4,55.3,85.2,55.3,117.1z"/>
	<path class="st0" d="M128.7,53.6c-8.8,0-17.8,0-26.9,0c-0.2-1.7-0.4-3.4-0.7-5c-0.7-3.9-3.2-5.2-6.4-5.2c-8.4-0.2-16.9-0.2-25.3,0
		c-2.8,0.1-5.6,1.2-8.4,1.8c0-7.7,0-15.7,0-23.9c0.6,0,1.3-0.1,1.9-0.1c13.9,0,27.7-0.2,41.6,0.1c4.4,0.1,8.8,1,13,2.3
		c6.4,1.9,10.1,6.9,11,13.2C129.4,42.1,128.7,47.8,128.7,53.6z"/>
	<path class="st0" d="M629.7,67.6c12.2,16.4,24.3,32.7,36.6,49.2c-0.7,0.1-1.3,0.2-1.8,0.2c-10.2,0-20.4,0-30.5,0
		c-1.2,0-1.8-0.3-2.5-1.3c-5.8-8.1-11.8-16.1-17.7-24.1c-0.9-1.2-1.2-2.2-0.1-3.5c3.7-4.6,7.3-9.2,10.9-13.8
		C626.2,72.1,627.9,69.9,629.7,67.6z"/>
	<path class="st0" d="M491.9,21.2c18.7,0,37.3,0,56.2,0c-1.5,4.6-2.9,9-4.4,13.3c-0.8,2.4-1.1,5.7-2.8,7c-1.7,1.2-4.9,0.4-7.5,0.4
		c-13,0-25.9,0-38.9,0c-0.8,0-1.6,0-2.6,0C491.9,34.9,491.9,28.2,491.9,21.2z"/>
	<path class="st0" d="M169.6,41.9c0-7.1,0-13.8,0-20.7c18.7,0,37.3,0,56.2,0c-0.8,2.4-1.6,4.7-2.4,6.9c-1.4,4.1-2.7,8.3-4.2,12.4
		c-0.2,0.6-1,1.3-1.6,1.3C201.7,41.9,185.8,41.9,169.6,41.9z"/>
	<path class="st0" d="M225.8,96.8c-2.2,6.8-4.4,13.4-6.7,20.1c-16.4,0-32.8,0-49.4,0c0-6.6,0-13.3,0-20.1
		C188.3,96.8,206.9,96.8,225.8,96.8z"/>
	<path class="st0" d="M541.4,117c-16.6,0-32.9,0-49.4,0c0-6.7,0-13.4,0-20.2c18.6,0,37.1,0,56.1,0
		C545.9,103.6,543.7,110.2,541.4,117z"/>
	<path class="st0" d="M544.3,60.2c-1.8,5.8-3.6,11.4-5.5,16.9c-0.2,0.6-1.1,1.4-1.7,1.4c-15,0.1-30,0.1-45.2,0.1
		c0-6.1,0-12.2,0-18.4C509.3,60.2,526.7,60.2,544.3,60.2z"/>
	<path class="st0" d="M169.7,60.1c17.5,0,34.8,0,52.3,0c-1.8,5.8-3.6,11.6-5.5,17.3c-0.2,0.5-1,1.1-1.5,1.1c-15.1,0.1-30.1,0-45.3,0
		C169.7,72.4,169.7,66.3,169.7,60.1z"/>
</g>
<text transform="matrix(1 0 0 1 374.223 154.9271)" class="st1 st2 st3">KNOWN AS JOCLIFT</text>
</svg>
