<?xml version="1.0" encoding="utf-8"?>
<!-- Generator: Adobe Illustrator 22.0.0, SVG Export Plug-In . SVG Version: 6.00 Build 0)  -->
<svg version="1.1" xmlns="http://www.w3.org/2000/svg" xmlns:xlink="http://www.w3.org/1999/xlink" x="0px" y="0px"
	 viewBox="0 0 466.3 184" style="enable-background:new 0 0 466.3 184;" xml:space="preserve">
<style type="text/css">
	.st0{display:none;}
	.st1{display:inline;}
	.st2{fill:#D9475A;}
</style>
<g id="图层_1" class="st0">
	<g id="_x30_pnQnQ.tif" class="st1">
		
			<image style="overflow:visible;" width="570" height="368" id="Layer_0_1_" xlink:href="AE1E45A243E1273C.png"  transform="matrix(0.5 0 0 0.5 130.8325 0)">
		</image>
	</g>
</g>
<g id="图层_2">
	<path class="st2" d="M0,104.2c0,0,68.5-1.1,112.1-23.2s54.9-33.4,21.5-45.9c0,0,113.3,0-13.6,56.1V124h16.4v19.3H58.3v-18.7h14.2
		v-22.1C72.5,102.5,30,108.2,0,104.2z"/>
	<path class="st2" d="M119.5,69.2V26.6h-47c0,0-3.4,21.3-31.1,21.3v13.3h31.1v28C72.5,89.2,100.2,81.8,119.5,69.2z"/>
	<g>
		<path d="M210.8,123.5c-0.4,1.2-0.8,1.8-1.1,1.8c-0.4,0-0.7-0.5-1-1.4c-0.3-1.2-1-2.6-2.1-4.1c-1-1.5-2.1-2.8-3.2-3.9
			c-0.4-0.4-0.7-0.8-0.8-1.1c-0.3,1.7-0.6,3.1-0.9,4.4c-0.3,1.2-0.5,2.3-0.8,3.3c-0.2,1-0.5,1.9-0.8,2.6c-0.3,0.8-0.5,1.5-0.8,2.3
			c-0.5,1.3-1.2,2.4-1.9,3.2c-0.7,0.9-1.5,1.5-2.4,2c-0.8,0.5-1.7,0.8-2.5,0.9c-0.8,0.1-1.6,0.1-2.3,0c-0.7-0.1-1-0.3-1-0.5
			c0-0.2,0.4-0.4,1-0.6c1.1-0.4,2-0.8,2.9-1.2c0.8-0.4,1.5-1,2.2-1.9c0.6-0.8,1.3-1.9,1.8-3.2c0.6-1.3,1.2-3,1.8-5.2
			c0.8-2.8,1.4-5.5,1.9-8.2c0.4-2.7,0.7-5.5,0.7-8.5c0-1.4,0-2.6-0.3-3.4c-0.2-0.8-0.7-1.5-1.3-2c-0.5-0.4-0.7-0.8-0.4-1
			c0.2-0.2,0.8-0.2,1.8,0c0.6,0.1,1,0.3,1.4,0.5c0.3,0.2,0.6,0.5,0.8,0.9c0.2,0.4,0.3,0.9,0.4,1.6c0.1,0.6,0.1,1.5,0,2.5
			c0,1.1-0.2,2.5-0.3,4.1c-0.2,1.6-0.4,3.6-0.8,5.8c0,0.2-0.1,0.5-0.1,0.7c0,0.2-0.1,0.5-0.2,0.7c0.1,0,0.6,0.2,1.3,0.6
			c1.6,1.4,3,2.6,4.3,3.6c0.2,0.2,0.4,0.4,0.6,0.5c0.2,0.1,0.3,0,0.4-0.1c0.1-0.1,0.2-0.5,0.2-0.9c0.1-0.5,0.2-1.2,0.3-2.1
			c0.1-1.2,0.1-2.6,0.1-4.4s0-3.5,0-5.3c0-1.8-0.1-3.6-0.1-5.3c-0.1-1.7-0.1-3.2-0.2-4.5c-0.1-1.8-0.3-3.2-0.5-4.3
			c-0.2-1.1-0.5-1.9-0.9-2.4c-0.4-0.5-0.8-0.9-1.3-1c-0.5-0.1-1-0.1-1.6,0c-0.9,0.1-1.9,0.4-3,0.7c-1.1,0.3-2.3,0.9-3.5,1.7
			c-0.6,0.4-1.1,1-1.4,1.8c-0.3,0.8-0.5,2-0.6,3.5c0.1,0.2,0.1,0.5,0.1,1c0,0.5-0.2,1.4-0.6,2.8c-0.4,1.6-0.7,3.3-0.9,5.2
			c-0.2,1.8-0.3,3.6-0.3,5.3c0,1.7,0,3.4,0.1,5c0.1,1.6,0.2,2.9,0.3,4c0.1,1.1,0,1.8-0.1,2c-0.2,0.2-0.5,0.1-0.8-0.3
			c-0.7-0.8-1.1-1.6-1.4-2.4c-0.2-0.8-0.4-1.6-0.5-2.6c0-0.3-0.1-0.9,0-1.6c0-0.7,0.1-1.6,0.1-2.6c0-1,0.1-2,0.2-3.1
			c0.1-1.1,0.2-2.2,0.3-3.2c0.1-1,0.2-1.9,0.3-2.8c0.1-0.8,0.2-1.4,0.2-1.8c0.2-1.2,0.3-2.5,0.2-3.8c-0.1-1.4-0.5-2.9-1-4.7
			c-0.1-0.4-0.1-0.6,0-0.6c0.2,0,0.4,0.2,0.8,0.6c0.4,0.5,0.8,0.9,1.1,1.3c0.3,0.4,0.6,0.8,1,1.3c0.2-1.2,0.5-2.1,0.6-2.7
			c0.2-0.6,0.5-1.2,1.1-1.9c0.5-0.7,1.1-1.4,1.8-1.9c0.7-0.6,1.5-1,2.5-1.4c2.2-0.7,3.9-1,5-1c1.1,0.1,1.9,0.3,2.4,0.7
			c1,0.9,1.7,1.6,2,2.3c0.3,0.7,0.4,1.6,0.3,2.7c0,0.5-0.1,1-0.1,1.5c0,0.5,0,1,0,1.7c0,0.6,0,1.4,0.1,2.3c0,0.9,0.1,1.9,0.2,3.2
			c0.1,1.6,0.2,3.4,0.3,5.5c0,2.1,0,4.3,0,6.4c-0.1,2.1-0.2,4.1-0.4,6C211.4,120.9,211.1,122.4,210.8,123.5z M204.9,124.5
			c2.1,1,3.9,2,5.3,3.1s2.6,2.6,3.6,4.3c0.8,1.4,1.1,2.3,0.8,2.6c-0.3,0.4-1,0-2.1-1c-1.9-1.8-3.4-3.2-4.6-4.4
			c-1.2-1.2-2.3-2.4-3.4-3.5c-0.8-0.9-1.1-1.4-1-1.5C203.6,124,204.1,124.1,204.9,124.5z M243,96c0.3,0.7,0.3,1.2,0,1.5
			c-0.3,0.3-1.3,0.6-2.9,0.9c-0.8,0.1-1.7,0.3-2.8,0.6c-1,0.3-2.1,0.7-3.3,1.1c0,0.8,0.1,1.7,0.1,2.6c0,0.9,0,1.9,0.1,2.9
			c0.3-0.6,0.5-1,0.6-1.4c0.2-1,0.4-1.4,0.7-1.4c0.3,0,0.6,0.4,1,0.9c0.7,1.1,1,1.9,0.9,2.5c-0.1,0.5-0.3,1-0.7,1.3
			c-0.3,0.2-0.7,0.6-1.1,1c-0.4,0.4-0.8,0.9-1.3,1.4c0,3,0.1,6.1,0.2,9.3c0.1,3.2,0.2,6.1,0.3,8.8c0.1,2.7,0.1,5,0.2,7
			c0,1.9,0.1,3.1,0.1,3.6c0,1.7-0.3,2.6-0.8,2.8c-0.5,0.1-1.5-0.2-2.9-1.1c-0.7-0.5-1.6-1.1-2.7-1.9c-1.1-0.8-2.1-1.6-3.2-2.5
			c-1.1-0.9-2.1-1.8-3-2.7c-1-0.9-1.7-1.7-2.2-2.4c-1.2-1.7-1.8-2.6-1.8-2.8c0-0.2,0.6,0.2,1.7,1.3c0.6,0.6,1.4,1.3,2.2,2
			c0.9,0.7,1.7,1.4,2.6,2.1c0.9,0.7,1.8,1.3,2.6,1.9s1.6,1,2.1,1.3c1.2,0.7,2,0.8,2.4,0.4c0.4-0.4,0.5-1.6,0.5-3.4
			c0-0.4,0-1.2,0-2.5c0-1.3-0.1-2.9-0.1-4.8c0-1.9-0.1-4-0.2-6.4c-0.1-2.3-0.1-4.7-0.2-7.2c-1.6,2-3,3.7-4.3,5
			c-1.3,1.4-2.6,2.5-3.9,3.5c-1.3,1-2.6,1.7-3.9,2.4c-1.3,0.6-2.8,1.2-4.3,1.7c-1.1,0.4-1.9,0.5-2.4,0.5c-0.5,0-0.2-0.3,0.8-0.7
			c1.6-0.7,3.1-1.5,4.6-2.4c1.5-0.9,3-2,4.5-3.3c1.5-1.3,3-2.7,4.4-4.4c1.5-1.7,2.9-3.6,4.3-5.8c0-1.4-0.1-2.8-0.1-4.1
			c0-1.4-0.1-2.7-0.1-3.9c-1.8,0.7-3.4,1.5-4.9,2.3c-1.5,0.8-2.7,1.5-3.5,2.1c-1.1,0.8-2.1,1.2-3,1.3c-0.9,0-2-0.2-3.4-0.8
			c-0.9-0.4-1.3-0.7-1.2-1c0-0.3,0.5-0.4,1.5-0.4c0.6,0,1.3-0.1,1.9-0.2c0.7-0.1,1.5-0.4,2.6-1c1.8-0.9,3.5-1.7,5.2-2.4
			c1.7-0.7,3.3-1.4,4.8-2c-0.1-1.8-0.1-3.4-0.1-4.6c0-1.3,0-2.1,0-2.5c0.1-3,0.2-5.2,0.1-6.7c-0.1-1.5-0.3-2.4-0.6-2.7
			c-1.4-1.5-1.9-2.4-1.6-2.6c0.3-0.2,1.7,0.3,4.2,1.5c1.2,0.6,1.8,1.1,1.9,1.5c0.1,0.4,0,0.9-0.4,1.6c-0.5,0.9-0.8,2.1-1,3.7
			c-0.1,1.6-0.2,3.6-0.3,5.9c0,0.2,0,0.7,0,1.4c0,0.7,0,1.5,0.1,2.6c1.1-0.5,2.1-0.9,3-1.2c0.9-0.3,1.7-0.6,2.3-0.9
			c1.1-0.4,1.9-0.6,2.5-0.5C242.4,95.3,242.8,95.6,243,96z"/>
		<path d="M294.3,92.5c-1.3,0.5-2.8,0.2-4.5-0.9c-1.3,2.1-2.5,4.3-3.5,6.3c-1.1,2.1-2.1,4.2-2.9,6.3c-0.9,2.1-1.7,4.3-2.5,6.5
			c-0.8,2.3-1.5,4.7-2.1,7.2c-0.3,1.1-0.7,2.2-1.1,3.1c-0.4,1-1.1,2.2-2,3.6c-0.4,0.8-0.8,1.4-1.1,2c-0.3,0.6-0.6,1.1-0.9,1.5
			c-0.4,0.5-0.7,1-1,1.5c-0.3,0.5-0.5,1-0.7,1.4c-0.2,0.5-0.3,1-0.5,1.5c-0.1,0.5-0.2,1.1-0.4,1.7c-0.4,2.1-0.9,3.2-1.4,3
			c-0.6-0.1-1-1.5-1.1-4c-0.1-1,0.1-2,0.5-2.9s1.1-1.9,2.1-3c1.3-1.4,2.2-3,2.7-4.6c0.5-1.7,0.7-3.6,0.6-5.9c0-1.1-0.4-2-1.1-2.6
			c-0.7-0.6-1.3-0.8-1.9-0.6c-0.8,0.4-1.5,0.9-2,1.3c-0.5,0.5-1,0.9-1.5,1.4c-1.2,1.1-2,1.7-2.3,1.8c-0.3,0-0.5-0.5-0.6-1.7
			c0-1,0.1-1.7,0.6-2.2c0.4-0.5,0.9-0.9,1.4-1.1c0.9-0.5,1.8-1.2,2.8-2c1-0.8,2-2,3-3.5c0.7-1,1.3-1.9,1.6-2.6
			c0.4-0.7,0.6-1.3,0.6-1.8c0-0.5-0.1-1-0.4-1.5c-0.3-0.5-0.8-1-1.4-1.7c-0.3-0.3-0.6-0.5-0.9-0.6c-0.3-0.1-0.8-0.2-1.3,0
			c-0.5,0.1-1.2,0.4-2,0.8c-0.8,0.4-1.8,1.1-3,1.9c-1.6,1.1-2.7,1.7-3.3,1.8c-0.6,0.1-0.9-0.3-1-1.1c0-0.7,0.1-1.3,0.4-1.6
			c0.3-0.4,1.1-0.9,2.4-1.6c1.4-0.7,3.3-2,5.7-4.1c2.4-2.1,5.2-5.2,8.3-9.4c0.5-0.7,0.8-1.3,0.7-2c-0.1-0.6-0.5-1.7-1.3-3
			c-0.3-0.5-0.4-0.9-0.1-1.1c0.2-0.2,0.7-0.1,1.4,0.4c0.7,0.5,1.3,1,2,1.6c0.7,0.6,1.4,1.3,2.3,2.3c0.5,0.6,0.7,1.1,0.4,1.5
			c-0.2,0.4-0.8,1-1.8,1.8c-0.7,0.6-1.5,1.3-2.3,2c-0.8,0.8-1.7,1.6-2.5,2.4c-0.8,0.8-1.6,1.6-2.3,2.4c-0.7,0.8-1.3,1.5-1.7,2
			c1,1.2,1.8,2.1,2.5,2.9c0.7,0.7,1.3,1.5,1.9,2.3c0.7,1,0.9,1.8,0.7,2.5c-0.3,0.7-0.7,1.4-1.2,2.1c-0.4,0.6-0.9,1.2-1.3,1.9
			c-0.4,0.7-0.9,1.4-1.4,2c-0.3,0.5-0.5,0.9-0.6,1.2c-0.1,0.3-0.2,0.7-0.1,1c0,0.3,0.2,0.7,0.5,1c0.3,0.4,0.7,0.9,1.2,1.4
			c0.2,0.3,0.4,0.8,0.6,1.5c0.2,0.7,0.2,1.6,0.1,2.8c1.2-3.3,2.3-6.2,3.2-8.7s1.9-4.7,2.9-6.7c1-2.1,2-4,3.1-5.9
			c1.1-1.9,2.4-3.9,3.9-6.2c-0.7-0.5-0.9-0.9-0.7-1.1c0.2-0.2,0.8-0.3,1.7-0.1c0.3,0,0.7,0.1,1.1,0c0.5,0,1-0.1,1.5-0.2
			c0.5-0.1,1-0.2,1.5-0.3c0.5-0.1,0.9-0.2,1.3-0.3c0.3-0.1,0.8-0.2,1.3-0.4c0.5-0.2,1.1-0.4,1.7-0.6c0.6-0.2,1.1-0.4,1.6-0.7
			c0.5-0.2,1-0.5,1.4-0.6c0.7-0.4,1.3-0.5,1.8-0.5c0.5,0.1,1.1,0.4,1.8,1.1c0.6,0.6,0.8,1.1,0.8,1.5c-0.1,0.5-0.6,1-1.6,1.7
			c-0.6,0.4-1.3,1-2.1,1.9s-1.7,1.9-2.6,3c-2.7,3.2-5.2,6.2-7.5,9c-2.3,2.8-4.9,5.4-7.6,7.7c-0.7,0.6-1.2,0.8-1.3,0.5
			c-0.2-0.3-0.2-0.6-0.2-1c0-0.2,0-0.4,0-0.7c0-0.3,0.1-0.5,0.2-0.9c0.1-0.3,0.4-0.7,0.7-1c0.3-0.4,0.9-0.8,1.6-1.4
			c0.7-0.5,1.7-1.4,2.9-2.7c1.2-1.3,2.5-2.8,3.9-4.5c1.4-1.7,2.8-3.5,4.2-5.3c1.4-1.8,2.7-3.5,3.8-5.1c-1,0.1-1.9,0.4-2.8,0.7
			C296.6,91.6,295.5,92,294.3,92.5z M315.2,131.4c0.1,0.2,0.2,0.4,0.1,0.6c-0.1,0.2-0.3,0.4-0.6,0.6c-0.3,0.2-0.8,0.3-1.3,0.3
			c-0.5,0-1.1,0-1.9-0.3c-0.7-0.2-1.6-0.4-2.6-0.5s-2.2-0.3-3.3-0.4c-1.2-0.1-2.3-0.2-3.5-0.3c-1.2,0-2.2-0.1-3.2-0.1
			c-1,0-2.1,0.1-3.4,0.3c-1.3,0.2-2.7,0.5-4.1,0.8c-1.4,0.3-2.8,0.6-4.1,1c-1.3,0.4-2.5,0.7-3.4,1c-1.8,0.7-2.9,0.4-3.1-0.8
			c-0.1-0.4,0.1-0.8,0.5-1c0.4-0.2,1.1-0.5,2.1-0.8c1.2-0.3,2.3-0.6,3.3-0.9s1.8-0.6,2.5-0.8c0.7-0.3,1.4-0.5,2-0.9
			c0.6-0.3,1.1-0.7,1.6-1.1c1.1-1,2.3-2.3,3.6-4c1.3-1.7,2.6-3.8,4-6.2c-1.4,0.1-2.7,0.3-3.8,0.5c-1.1,0.3-2.3,0.6-3.5,1.1
			c-1,0.3-1.9,0.4-2.7,0.1c-0.9-0.3-1.6-1-2.3-2c-0.7-1.1-0.4-1.5,0.7-0.9c1.7,0.8,3.3,0.9,4.9,0.4c1.2-0.4,2.3-0.8,3.3-1.2
			c1-0.4,1.7-0.7,2-0.8c0.9-0.3,1.6-0.5,2.1-0.5s1.2,0.2,1.8,0.7c0.5,0.5,0.7,1.1,0.5,1.9c-0.2,0.8-0.9,1.9-2.1,3.4
			c-0.2,0.3-0.6,0.8-1,1.4c-0.5,0.7-1,1.4-1.5,2.3c-0.5,0.8-1.1,1.7-1.7,2.6c-0.6,0.9-1.1,1.8-1.5,2.6c2.7-0.2,5.3-0.4,7.7-0.4
			s4.6,0.1,6.6,0.3c1.3,0.1,2.4,0.3,3.4,0.6C314.2,130.7,314.9,131.1,315.2,131.4z M300.1,102.3c-0.5-0.3-0.7-0.6-0.5-0.8
			c0.1-0.3,0.6-0.3,1.5-0.2c3.9,0.6,6.5,1.5,7.9,2.6c1.1,0.9,1.6,1.6,1.4,2.2c-0.2,0.6-0.7,1-1.4,1.1c-1.5,0.3-3.2,0.7-5,1.3
			c-1.8,0.5-3.9,1.2-6.2,1.9c-1.2,0.4-1.9,0.5-1.9,0.3c0-0.2,0.5-0.5,1.5-0.9c2.1-0.8,3.8-1.5,5-2c1.2-0.5,2-1,2.5-1.4
			c0.5-0.4,0.7-0.7,0.6-0.9c-0.1-0.2-0.3-0.5-0.6-0.6c-0.9-0.4-1.7-0.8-2.4-1.1C301.8,103.2,301,102.8,300.1,102.3z"/>
		<path d="M386.7,108.8c0.3,1.5,0.3,2.5,0,3c-0.3,0.5-1.1,0.9-2.3,1c-1.8,0.2-3.8,0.5-6,0.8c-2.2,0.4-4.3,0.8-6.3,1.3
			c-1,0.2-1.7,0.4-2,0.4c-0.4,0-0.3-0.1,0.1-0.3c0.5-0.2,1.4-0.5,2.7-1c1.4-0.5,3.3-1,5.8-1.8c4-1.2,5.7-2.2,5.3-3
			c-0.4-0.8-2.7-1.2-6.9-1.1c-2.8,0-5.8,0.2-9.2,0.5c-3.4,0.4-6.5,0.8-9.6,1.4c-3,0.5-5.9,1.2-8.8,1.9c-2.8,0.7-5.1,1.4-6.9,2.1
			c-1.5,0.7-3,0.9-4.5,0.8c-1.5-0.2-2.9-0.8-4.5-2c-1.6-1.2-2.2-1.9-1.8-2.2c0.4-0.3,1.3,0,2.7,0.8c0.9,0.5,2,0.7,3.2,0.6
			c1.2-0.1,2.9-0.4,5.1-0.9c2.3-0.6,4.9-1.2,7.8-1.8c2.9-0.6,5.8-1.1,8.7-1.6c2.9-0.5,6-0.9,9.2-1.3c3.2-0.4,6.3-0.6,9.3-0.8
			c2.3-0.1,4.4,0.2,6,0.8C385.5,106.9,386.5,107.7,386.7,108.8z"/>
		<path d="M422.8,104.3c0.7-1.4,1.2-2.1,1.5-2c0.3,0.1,0.3,0.6-0.1,1.7c-1.1,3.2-2.4,6.5-3.7,9.7c-1.3,3.2-2.6,6.3-3.9,9.1
			c-1.2,2.8-2.3,5.4-3.3,7.5c-1,2.2-1.7,3.9-2.2,5c-0.6,1.4-1,2-1.3,1.9c-0.3-0.1-0.6-0.9-0.8-2.4c-0.1-0.8,0-1.8,0.3-3.1
			c0.3-1.2,0.7-2.2,1.3-2.9c1.4-1.8,2.2-3.5,2.5-5.1c0.3-1.6,0.2-3.4-0.4-5.3c-0.4-1.4-0.9-2.4-1.6-3c-0.7-0.6-1.3-0.7-1.6-0.4
			c-0.7,0.6-1.2,1.1-1.6,1.5c-0.4,0.4-0.8,0.8-1.2,1.3c-1.2,1.2-2.1,1.9-2.6,2c-0.5,0.1-0.7-0.4-0.6-1.5c0-0.8,0.2-1.4,0.5-1.7
			c0.3-0.3,0.7-0.6,1.2-0.9c0.5-0.2,1.4-0.9,2.6-1.9c1.2-1,2.6-2.5,4.1-4.5c1.5-1.9,2.3-3.2,2.4-4.1c0.1-0.9-0.2-1.6-0.9-2
			c-1.3-0.9-2.4-1.3-3.4-1.1c-1,0.2-2.2,0.8-3.6,2c-1,0.8-1.8,1.2-2.1,1.1c-0.4,0-0.5-0.4-0.5-1.1c0-0.3,0-0.6,0.1-0.9
			c0.1-0.3,0.2-0.5,0.4-0.8c0.2-0.3,0.5-0.5,0.9-0.8c0.4-0.3,0.9-0.6,1.6-1c0.4-0.2,0.8-0.5,1.3-0.9c0.5-0.3,1.1-0.8,1.8-1.5
			c0.7-0.7,1.6-1.5,2.6-2.6c1-1.1,2.3-2.5,3.8-4.2c0.7-0.8,1-1.7,0.9-2.5c-0.1-0.9-0.6-2-1.5-3.3c-0.4-0.5-0.5-0.9-0.3-1.1
			c0.2-0.2,0.7,0,1.3,0.6c0.7,0.6,1.4,1.2,2,1.9c0.6,0.6,1.2,1.3,1.5,1.9c0.3,0.5,0.3,1.1,0,1.8c-0.3,0.7-1.2,1.6-2.8,2.9
			c-0.9,0.7-1.8,1.5-2.7,2.5s-2,2.2-3.3,3.9c1.4,0.5,2.5,1.1,3.3,1.7c0.8,0.6,1.3,1.2,1.7,1.8c0.3,0.6,0.5,1.2,0.4,1.8
			c-0.1,0.6-0.3,1.1-0.6,1.5c-0.5,0.6-1.1,1.5-2,2.7c-0.9,1.2-1.8,2.4-2.7,3.7c1.2,0.8,2.1,1.7,2.8,2.8c0.6,1,1,2.2,1,3.5
			c1-1.8,1.9-3.4,2.6-4.9c0.7-1.4,1.4-2.8,2-4c0.6-1.2,1.2-2.3,1.6-3.4C421.9,106.4,422.3,105.3,422.8,104.3z M457.5,139.9
			c0.5,1.6,0.7,2.5,0.4,2.9c-0.2,0.4-0.8,0.2-1.7-0.5c-0.6-0.4-1.4-1-2.4-1.8c-1-0.8-2.2-1.9-3.4-3.2c-1.3-1.3-2.6-2.9-4-4.9
			s-2.8-4.3-4.1-6.9c-2.1,1.2-4.4,2.1-6.9,2.9c-2.6,0.7-5.3,1.1-8.3,1.2c-1.7,0.1-2.5,0-2.6-0.4c0-0.4,0.6-0.7,1.9-0.9
			c3.1-0.4,6-1.1,8.5-2c2.6-0.9,4.7-1.9,6.3-3c-0.1-0.2-0.2-0.5-0.4-0.8c-0.1-0.3-0.3-0.5-0.4-0.8c-1-2.2-2.1-4.9-3-7.9
			c-1,0.6-1.8,1.1-2.5,1.5c-0.7,0.4-1.2,0.8-1.6,1c-0.4,0.3-0.8,0.5-1,0.7c-0.3,0.2-0.5,0.4-0.7,0.5c-1,0.8-1.7,1.4-2.3,1.8
			s-1.1,0.7-1.5,0.9c-0.4,0.1-0.8,0.2-1,0.1c-0.3-0.1-0.6-0.2-0.9-0.5c-0.8-0.5-1.1-1.1-1-1.6c0.1-0.5,0.9-1.6,2.3-3.1
			c1.1-1.2,2.3-2.7,3.7-4.5c1.4-1.8,2.7-3.6,4.1-5.4c-0.2-0.8-0.5-1.6-0.6-2.5c-0.2-0.8-0.4-1.7-0.6-2.5c-1.4,1-2.4,1.6-3.2,1.8
			c-0.7,0.2-1.3,0.3-1.7,0.2c-0.6-0.1-1-0.2-1.4-0.4c-0.4-0.1-0.8-0.4-1.2-0.8c-0.8-0.7-0.6-1.1,0.5-1.1c1,0,2.1-0.2,3.2-0.6
			c1.1-0.4,2.1-0.9,3.2-1.6c-0.4-1.8-0.8-3.5-1.3-5.3s-0.8-3.6-1.2-5.3c-0.4-1.9-0.9-3.3-1.5-4.2c-0.6-0.9-1.5-1.6-2.6-2.1
			c-0.9-0.4-1.3-0.7-1.2-1c0-0.3,0.6-0.3,1.6-0.1c1,0.2,1.9,0.4,2.6,0.7c0.7,0.3,1.3,0.6,1.8,1.1c0.5,0.5,0.9,1.1,1.2,1.9
			c0.3,0.7,0.5,1.7,0.6,2.8c0.1,1.3,0.4,2.8,0.6,4.5s0.7,3.6,1.4,5.9c0.7-0.4,1.5-0.9,2.4-1.4c0.9-0.5,1.8-1,2.6-1.5
			c0.9-0.5,1.6-0.9,2.3-1.3c0.7-0.4,1.2-0.6,1.6-0.8c1-0.3,1.6-0.3,2,0.1c0.4,0.4,0.1,1.3-0.9,2.7c-0.7,1-1.4,2-2,2.9
			c-0.6,0.9-1.2,1.8-1.8,2.6c-0.6,0.9-1.2,1.7-1.8,2.6c-0.6,0.9-1.3,1.8-2.1,2.8c0.1,0.2,0.2,0.5,0.2,0.8c0,0.3,0.1,0.5,0.2,0.8
			c0.2,0.7,0.4,1.3,0.6,1.9c0.2,0.6,0.3,1.2,0.5,1.8c1.3-0.7,2.5-1.4,3.5-1.9c1.1-0.6,1.9-1,2.5-1.4c0.4-0.2,0.7-0.5,0.9-0.7
			c0.2-0.2,0.2-0.5,0.1-0.8c-0.1-0.3-0.4-0.8-0.9-1.4s-1.2-1.3-2.2-2.3c-0.5-0.5-0.7-0.9-0.4-1c0.2-0.1,0.5,0,0.9,0.3
			c1.3,1.2,2.5,2.2,3.4,2.9s2.1,1.3,3.5,1.8c0.8,0.4,1.1,0.8,0.9,1.4c-0.2,0.5-0.9,0.9-2,1.2c-1.7,0.4-3.1,0.8-4.4,1.3
			c-1.3,0.5-2.6,1.1-4,1.9c-0.2,0.1-0.4,0.2-0.6,0.3c-0.2,0.1-0.3,0.2-0.5,0.3c0.6,1.7,1.1,3.3,1.7,4.8c0.5,1.6,1.2,3,1.8,4.4
			l0.4-0.4c1.3-1.4,2.2-2.6,2.5-3.4c0.3-0.8,0.1-1.6-0.5-2.5c-0.3-0.4-0.4-0.7-0.1-0.8c0.3-0.2,0.7-0.1,1.3,0.2
			c1,0.6,1.7,1.1,1.9,1.6c0.2,0.5,0.2,1.2-0.1,2.2c-0.2,0.8-0.6,1.6-1.2,2.4c-0.6,0.8-1.3,1.5-2.1,2.2l-1.1,0.9c1,2.1,2.2,4,3.4,5.8
			c1.2,1.8,2.6,3.5,4.2,5.3c0.7,0.7,1.2,0.9,1.6,0.7c0.4-0.2,0.7-0.7,0.8-1.3c0-0.3,0.1-1,0.2-2c0.1-1,0.2-2.1,0.4-3.3
			c0.1-1.2,0.3-2.4,0.4-3.7c0.1-1.3,0.3-2.4,0.4-3.3c0.1-1.5,0.3-2.2,0.6-2.1c0.2,0.1,0.3,0.8,0.3,2c-0.1,1.5-0.1,3.2-0.1,4.9
			c0,1.7,0.1,3.4,0.2,5c0.1,1.6,0.2,3.1,0.4,4.5C457,138,457.2,139.1,457.5,139.9z M428.5,117.3c1.1-0.9,2.4-1.8,3.8-2.7
			s2.9-1.8,4.4-2.8c-0.2-0.7-0.5-1.4-0.6-2.1s-0.4-1.4-0.6-2.1c-1.2,1.5-2.4,3.1-3.6,4.9S429.4,115.9,428.5,117.3z M435.6,98.9
			c0.2,1.1,0.6,2.4,1.1,3.9c1.2-1.8,2.3-3.4,3.3-4.8s1.6-2.5,2-3.1c-0.8,0.3-1.7,0.9-2.9,1.7C437.8,97.4,436.7,98.1,435.6,98.9z
			 M446.4,89.4c-0.9-0.7-1.2-1.1-1-1.4c0.2-0.3,0.9-0.3,2.2-0.1c1.4,0.3,2.6,0.7,3.6,1.1c1,0.5,1.7,0.9,2.1,1.3
			c1.2,1,1.7,1.8,1.5,2.3c-0.3,0.5-1,0.5-2.3,0c-1.4-0.5-2.5-1-3.5-1.5C448.1,90.6,447.3,90,446.4,89.4z"/>
	</g>
</g>
</svg>
