<?xml version="1.0" encoding="utf-8"?>
<!-- Generator: Adobe Illustrator 22.0.0, SVG Export Plug-In . SVG Version: 6.00 Build 0)  -->
<svg version="1.1" id="图层_1" xmlns="http://www.w3.org/2000/svg" xmlns:xlink="http://www.w3.org/1999/xlink" x="0px" y="0px"
	 viewBox="0 0 846.4 184" style="enable-background:new 0 0 846.4 184;" xml:space="preserve">
<style type="text/css">
	.st0{display:none;}
	.st1{display:inline;}
	.st2{fill:#D9475A;}
</style>
<g id="图层_1_1_" class="st0">
	<g id="_x30_pnQnQ.tif" class="st1">
	</g>
</g>
<path class="st2" d="M0,104.2c0,0,68.5-1.1,112.1-23.2s54.9-33.4,21.5-45.9c0,0,113.3,0-13.6,56.1V124h16.4v19.3H58.3v-18.7h14.2
	v-22.1C72.5,102.5,30,108.2,0,104.2z"/>
<path class="st2" d="M119.5,69.2V26.6h-47c0,0-3.4,21.3-31.1,21.3v13.3h31.1v28C72.5,89.2,100.2,81.8,119.5,69.2z"/>
<g>
	<path d="M189.5,117.2c-0.3,0.9-0.5,1.3-0.8,1.3c-0.3,0-0.5-0.4-0.7-1c-0.2-0.8-0.7-1.8-1.5-2.9c-0.7-1.1-1.5-2-2.3-2.8
		c-0.3-0.3-0.5-0.6-0.6-0.8c-0.2,1.2-0.4,2.2-0.6,3.1s-0.4,1.6-0.6,2.3c-0.2,0.7-0.3,1.3-0.5,1.9c-0.2,0.6-0.4,1.1-0.6,1.6
		c-0.4,0.9-0.8,1.7-1.3,2.3c-0.5,0.6-1.1,1.1-1.7,1.4c-0.6,0.3-1.2,0.5-1.7,0.6c-0.6,0.1-1.1,0.1-1.6,0c-0.5-0.1-0.7-0.2-0.7-0.3
		c0-0.1,0.3-0.3,0.7-0.4c0.8-0.3,1.4-0.6,2-0.9c0.6-0.3,1.1-0.7,1.5-1.3c0.5-0.6,0.9-1.3,1.3-2.2c0.4-0.9,0.8-2.1,1.3-3.6
		c0.6-1.9,1-3.9,1.3-5.7c0.3-1.9,0.5-3.9,0.5-6c0-1,0-1.8-0.2-2.4c-0.2-0.6-0.5-1.1-0.9-1.4c-0.4-0.3-0.5-0.5-0.3-0.7
		c0.2-0.2,0.6-0.1,1.3,0c0.4,0.1,0.7,0.2,1,0.4c0.2,0.1,0.4,0.3,0.6,0.6c0.1,0.3,0.2,0.7,0.3,1.1c0.1,0.5,0.1,1,0,1.7
		c0,0.8-0.1,1.7-0.2,2.9c-0.1,1.2-0.3,2.5-0.6,4c0,0.2-0.1,0.3-0.1,0.5c0,0.2-0.1,0.3-0.1,0.5c0.1,0,0.4,0.1,0.9,0.5
		c1.1,1,2.1,1.8,3,2.5c0.2,0.2,0.3,0.3,0.4,0.3c0.1,0,0.2,0,0.3-0.1c0.1-0.1,0.1-0.3,0.2-0.7c0-0.3,0.1-0.8,0.2-1.5
		c0.1-0.8,0.1-1.9,0.1-3.1s0-2.4,0-3.7c0-1.3-0.1-2.5-0.1-3.7s-0.1-2.3-0.1-3.2c-0.1-1.2-0.2-2.2-0.3-3c-0.2-0.8-0.4-1.3-0.6-1.7
		s-0.5-0.6-0.9-0.7c-0.3-0.1-0.7-0.1-1.2,0c-0.6,0.1-1.3,0.3-2.1,0.5c-0.8,0.2-1.6,0.6-2.5,1.2c-0.4,0.3-0.8,0.7-1,1.3
		s-0.4,1.4-0.5,2.5c0.1,0.1,0.1,0.4,0.1,0.7c0,0.4-0.1,1-0.4,1.9c-0.3,1.1-0.5,2.3-0.6,3.6c-0.1,1.3-0.2,2.5-0.2,3.7
		c0,1.2,0,2.4,0.1,3.5c0.1,1.1,0.1,2,0.2,2.8c0.1,0.8,0,1.3-0.1,1.4c-0.1,0.2-0.3,0.1-0.6-0.2c-0.5-0.6-0.8-1.1-1-1.7
		c-0.2-0.5-0.3-1.1-0.4-1.8c0-0.2,0-0.6,0-1.1c0-0.5,0-1.1,0.1-1.8c0-0.7,0.1-1.4,0.2-2.2c0.1-0.8,0.1-1.5,0.2-2.2
		c0.1-0.7,0.1-1.4,0.2-1.9c0.1-0.6,0.1-1,0.2-1.3c0.2-0.8,0.2-1.7,0.1-2.7c-0.1-1-0.3-2-0.7-3.3c-0.1-0.3-0.1-0.5,0-0.5
		c0.1,0,0.3,0.1,0.6,0.4c0.3,0.3,0.6,0.6,0.8,0.9s0.4,0.6,0.7,0.9c0.2-0.9,0.3-1.5,0.5-1.9c0.1-0.4,0.4-0.9,0.8-1.4
		c0.4-0.5,0.8-1,1.3-1.4c0.5-0.4,1.1-0.7,1.8-1c1.6-0.5,2.7-0.7,3.5-0.7c0.8,0.1,1.3,0.2,1.7,0.5c0.7,0.6,1.2,1.1,1.4,1.6
		c0.2,0.5,0.3,1.1,0.2,1.9c0,0.4-0.1,0.7-0.1,1.1c0,0.3,0,0.7,0,1.2c0,0.5,0,1,0.1,1.6c0,0.6,0.1,1.4,0.2,2.3
		c0.1,1.1,0.2,2.4,0.2,3.9c0,1.5,0,3,0,4.5c-0.1,1.5-0.2,2.9-0.3,4.2C190,115.4,189.8,116.5,189.5,117.2z M185.4,117.9
		c1.5,0.7,2.7,1.4,3.7,2.2c1,0.8,1.8,1.8,2.5,3c0.6,1,0.7,1.6,0.5,1.8c-0.2,0.3-0.7,0-1.5-0.7c-1.3-1.2-2.4-2.3-3.2-3.1
		c-0.8-0.8-1.6-1.7-2.4-2.5c-0.6-0.6-0.8-1-0.7-1.1C184.5,117.6,184.9,117.7,185.4,117.9z M212.1,97.9c0.2,0.5,0.2,0.8,0,1
		c-0.2,0.2-0.9,0.4-2,0.6c-0.6,0.1-1.2,0.2-2,0.5c-0.7,0.2-1.5,0.5-2.3,0.8c0,0.6,0.1,1.2,0.1,1.8c0,0.6,0,1.3,0.1,2
		c0.2-0.4,0.4-0.7,0.4-1c0.1-0.7,0.3-1,0.5-1c0.2,0,0.4,0.3,0.7,0.7c0.5,0.8,0.7,1.3,0.6,1.7s-0.2,0.7-0.5,0.9
		c-0.2,0.2-0.5,0.4-0.8,0.7c-0.3,0.3-0.6,0.6-0.9,1c0,2.1,0.1,4.3,0.2,6.5c0.1,2.2,0.1,4.3,0.2,6.2c0,1.9,0.1,3.5,0.1,4.9
		c0,1.4,0.1,2.2,0.1,2.5c0,1.2-0.2,1.9-0.6,2c-0.4,0.1-1.1-0.2-2.1-0.8c-0.5-0.3-1.1-0.8-1.9-1.3c-0.8-0.6-1.5-1.1-2.3-1.8
		c-0.8-0.6-1.5-1.3-2.1-1.9c-0.7-0.6-1.2-1.2-1.6-1.7c-0.9-1.2-1.3-1.8-1.3-2c0-0.2,0.4,0.1,1.2,0.9c0.4,0.4,1,0.9,1.6,1.4
		c0.6,0.5,1.2,1,1.9,1.5c0.6,0.5,1.3,0.9,1.9,1.3c0.6,0.4,1.1,0.7,1.5,0.9c0.9,0.5,1.4,0.6,1.7,0.3s0.4-1.1,0.4-2.4
		c0-0.3,0-0.9,0-1.8c0-0.9,0-2-0.1-3.4c0-1.3-0.1-2.8-0.1-4.5c0-1.6-0.1-3.3-0.1-5c-1.1,1.4-2.1,2.6-3,3.5c-0.9,1-1.8,1.8-2.7,2.4
		c-0.9,0.7-1.8,1.2-2.7,1.7c-0.9,0.4-1.9,0.8-3,1.2c-0.8,0.3-1.3,0.4-1.7,0.4c-0.4,0-0.2-0.2,0.5-0.5c1.1-0.5,2.2-1.1,3.3-1.7
		c1.1-0.6,2.1-1.4,3.2-2.3c1.1-0.9,2.1-1.9,3.1-3.1c1-1.2,2-2.5,3-4.1c0-1-0.1-1.9-0.1-2.9c0-1,0-1.9-0.1-2.7
		c-1.2,0.5-2.4,1-3.5,1.6c-1.1,0.6-1.9,1-2.5,1.5c-0.8,0.6-1.5,0.9-2.1,0.9c-0.6,0-1.4-0.2-2.4-0.5c-0.6-0.3-0.9-0.5-0.9-0.7
		c0-0.2,0.4-0.3,1.1-0.3c0.4,0,0.9,0,1.4-0.1c0.5-0.1,1.1-0.3,1.8-0.7c1.2-0.6,2.5-1.2,3.6-1.7c1.2-0.5,2.3-1,3.4-1.4
		c-0.1-1.3-0.1-2.4-0.1-3.2c0-0.9,0-1.5,0-1.7c0.1-2.1,0.1-3.7,0.1-4.7c-0.1-1-0.2-1.7-0.4-1.9c-1-1.1-1.3-1.7-1.1-1.8
		c0.2-0.2,1.2,0.2,2.9,1.1c0.8,0.4,1.3,0.8,1.4,1.1c0.1,0.3,0,0.7-0.3,1.2c-0.4,0.6-0.6,1.5-0.7,2.6c-0.1,1.1-0.2,2.5-0.2,4.1
		c0,0.2,0,0.5,0,1c0,0.5,0,1.1,0.1,1.8c0.8-0.3,1.5-0.6,2.1-0.9c0.6-0.2,1.2-0.4,1.6-0.6c0.8-0.3,1.4-0.4,1.8-0.4
		C211.7,97.5,212,97.6,212.1,97.9z"/>
	<path d="M248.1,95.5c-0.9,0.4-2,0.2-3.2-0.6c-0.9,1.5-1.7,3-2.5,4.4s-1.4,2.9-2.1,4.4c-0.6,1.5-1.2,3-1.7,4.6s-1,3.3-1.5,5
		c-0.2,0.8-0.5,1.5-0.8,2.2c-0.3,0.7-0.8,1.5-1.4,2.6c-0.3,0.5-0.6,1-0.8,1.4s-0.4,0.8-0.6,1c-0.3,0.4-0.5,0.7-0.7,1.1
		c-0.2,0.3-0.3,0.7-0.5,1s-0.2,0.7-0.3,1.1c-0.1,0.4-0.2,0.8-0.3,1.2c-0.3,1.5-0.6,2.2-1,2.1c-0.4-0.1-0.7-1-0.8-2.8
		c-0.1-0.7,0-1.4,0.4-2c0.3-0.6,0.8-1.3,1.5-2.1c0.9-1,1.5-2.1,1.9-3.3c0.4-1.2,0.5-2.6,0.5-4.2c0-0.8-0.3-1.4-0.8-1.8
		c-0.5-0.5-0.9-0.6-1.3-0.4c-0.6,0.3-1,0.6-1.4,0.9s-0.7,0.6-1,1c-0.9,0.8-1.4,1.2-1.6,1.3c-0.2,0-0.3-0.4-0.4-1.2
		c0-0.7,0.1-1.2,0.4-1.6c0.3-0.4,0.6-0.6,1-0.8c0.6-0.4,1.3-0.8,2-1.4c0.7-0.6,1.4-1.4,2.1-2.5c0.5-0.7,0.9-1.3,1.2-1.8
		c0.3-0.5,0.4-0.9,0.4-1.3c0-0.4-0.1-0.7-0.3-1.1c-0.2-0.3-0.5-0.7-1-1.2c-0.2-0.2-0.4-0.4-0.7-0.5c-0.2-0.1-0.5-0.1-0.9,0
		c-0.4,0.1-0.8,0.3-1.4,0.6c-0.6,0.3-1.3,0.8-2.1,1.4c-1.1,0.8-1.9,1.2-2.3,1.2c-0.4,0-0.7-0.2-0.7-0.8c0-0.5,0.1-0.9,0.3-1.2
		c0.2-0.3,0.8-0.6,1.7-1.1c1-0.5,2.3-1.4,4-2.9c1.7-1.5,3.6-3.7,5.8-6.6c0.4-0.5,0.5-0.9,0.5-1.4c-0.1-0.5-0.4-1.2-0.9-2.1
		c-0.2-0.4-0.3-0.6-0.1-0.8c0.2-0.2,0.5-0.1,1,0.3c0.5,0.3,0.9,0.7,1.4,1.1c0.5,0.4,1,0.9,1.6,1.6c0.4,0.4,0.5,0.8,0.3,1.1
		c-0.2,0.3-0.6,0.7-1.3,1.3c-0.5,0.4-1,0.9-1.6,1.4c-0.6,0.6-1.2,1.1-1.7,1.7c-0.6,0.6-1.1,1.1-1.6,1.7c-0.5,0.6-0.9,1-1.2,1.4
		c0.7,0.8,1.2,1.5,1.7,2c0.5,0.5,0.9,1,1.3,1.6c0.5,0.7,0.7,1.3,0.5,1.8c-0.2,0.5-0.5,1-0.8,1.5c-0.3,0.4-0.6,0.8-0.9,1.3
		c-0.3,0.5-0.6,1-1,1.4c-0.2,0.3-0.4,0.6-0.5,0.9c-0.1,0.2-0.1,0.5-0.1,0.7c0,0.2,0.2,0.5,0.4,0.7c0.2,0.3,0.5,0.6,0.9,1
		c0.2,0.2,0.3,0.5,0.4,1c0.1,0.5,0.1,1.1,0.1,1.9c0.8-2.3,1.6-4.4,2.2-6.1s1.3-3.3,2-4.7c0.7-1.4,1.4-2.8,2.2-4.1
		c0.8-1.3,1.7-2.8,2.8-4.3c-0.5-0.4-0.6-0.6-0.5-0.8s0.5-0.2,1.2-0.1c0.2,0,0.5,0,0.8,0c0.3,0,0.7-0.1,1-0.1
		c0.4-0.1,0.7-0.1,1.1-0.2s0.6-0.1,0.9-0.2c0.2-0.1,0.5-0.2,0.9-0.3c0.4-0.1,0.8-0.3,1.2-0.4c0.4-0.2,0.8-0.3,1.2-0.5
		c0.4-0.2,0.7-0.3,1-0.5c0.5-0.3,0.9-0.4,1.3-0.3c0.4,0.1,0.8,0.3,1.2,0.8c0.4,0.4,0.6,0.8,0.5,1.1c0,0.3-0.4,0.7-1.1,1.2
		c-0.4,0.3-0.9,0.7-1.5,1.3c-0.6,0.6-1.2,1.3-1.8,2.1c-1.9,2.2-3.6,4.3-5.3,6.3c-1.6,2-3.4,3.8-5.3,5.4c-0.5,0.4-0.8,0.6-0.9,0.4
		c-0.1-0.2-0.2-0.4-0.1-0.7c0-0.1,0-0.3,0-0.5c0-0.2,0-0.4,0.2-0.6c0.1-0.2,0.3-0.5,0.5-0.7c0.2-0.3,0.6-0.6,1.1-1
		c0.5-0.3,1.2-1,2-1.9c0.9-0.9,1.8-2,2.7-3.2c1-1.2,1.9-2.4,2.9-3.7c1-1.3,1.9-2.5,2.6-3.6c-0.7,0.1-1.3,0.3-2,0.5
		C249.7,94.9,249,95.2,248.1,95.5z M262.8,122.8c0.1,0.1,0.1,0.3,0.1,0.5c0,0.2-0.2,0.3-0.4,0.4s-0.5,0.2-0.9,0.2s-0.8,0-1.3-0.2
		c-0.5-0.1-1.1-0.3-1.9-0.4c-0.7-0.1-1.5-0.2-2.3-0.3c-0.8-0.1-1.6-0.1-2.5-0.2c-0.8,0-1.6-0.1-2.2-0.1s-1.5,0.1-2.4,0.2
		c-0.9,0.2-1.9,0.3-2.9,0.6c-1,0.2-1.9,0.5-2.9,0.7c-0.9,0.3-1.7,0.5-2.4,0.7c-1.3,0.5-2,0.3-2.2-0.6c-0.1-0.3,0-0.5,0.4-0.7
		c0.3-0.2,0.8-0.3,1.5-0.5c0.9-0.2,1.6-0.5,2.3-0.7c0.7-0.2,1.2-0.4,1.8-0.6c0.5-0.2,1-0.4,1.4-0.6c0.4-0.2,0.8-0.5,1.1-0.8
		c0.8-0.7,1.6-1.6,2.5-2.8c0.9-1.2,1.8-2.6,2.8-4.3c-1,0.1-1.9,0.2-2.7,0.4c-0.8,0.2-1.6,0.4-2.4,0.8c-0.7,0.2-1.3,0.2-1.9,0
		c-0.6-0.2-1.1-0.7-1.6-1.4c-0.5-0.8-0.3-1,0.5-0.7c1.2,0.5,2.3,0.6,3.4,0.3c0.9-0.3,1.6-0.5,2.3-0.8c0.7-0.3,1.2-0.5,1.4-0.6
		c0.6-0.2,1.1-0.4,1.5-0.4s0.8,0.2,1.3,0.5c0.4,0.3,0.5,0.8,0.4,1.3s-0.6,1.3-1.5,2.4c-0.2,0.2-0.4,0.5-0.7,1
		c-0.3,0.5-0.7,1-1.1,1.6c-0.4,0.6-0.8,1.2-1.2,1.9s-0.8,1.3-1.1,1.8c1.9-0.2,3.7-0.3,5.4-0.3c1.7,0,3.2,0.1,4.6,0.2
		c0.9,0.1,1.7,0.2,2.4,0.5C262.1,122.3,262.6,122.5,262.8,122.8z M252.2,102.3c-0.3-0.2-0.5-0.4-0.4-0.6c0.1-0.2,0.4-0.2,1.1-0.1
		c2.7,0.4,4.5,1,5.5,1.8c0.8,0.6,1.1,1.1,1,1.6c-0.1,0.4-0.5,0.7-1,0.8c-1.1,0.2-2.2,0.5-3.5,0.9c-1.3,0.4-2.7,0.8-4.3,1.3
		c-0.9,0.3-1.3,0.3-1.3,0.2c0-0.1,0.3-0.3,1-0.6c1.5-0.6,2.7-1,3.5-1.4c0.8-0.4,1.4-0.7,1.8-1c0.4-0.3,0.5-0.5,0.4-0.7
		c-0.1-0.2-0.2-0.3-0.5-0.5c-0.6-0.3-1.2-0.5-1.7-0.8C253.4,103,252.8,102.7,252.2,102.3z"/>
	<path d="M312.9,106.9c0.2,1,0.2,1.7,0,2.1c-0.2,0.4-0.7,0.6-1.6,0.7c-1.3,0.1-2.7,0.3-4.2,0.6c-1.6,0.3-3,0.5-4.4,0.9
		c-0.7,0.2-1.2,0.3-1.4,0.3c-0.3,0-0.2,0,0.1-0.2c0.3-0.2,1-0.4,1.9-0.7c1-0.3,2.3-0.7,4-1.2c2.8-0.8,4-1.5,3.7-2.1
		c-0.3-0.6-1.9-0.8-4.9-0.8c-1.9,0-4.1,0.1-6.4,0.4c-2.4,0.3-4.6,0.6-6.7,1s-4.2,0.8-6.1,1.3c-2,0.5-3.6,1-4.8,1.5
		c-1.1,0.5-2.1,0.6-3.1,0.5c-1-0.1-2.1-0.6-3.1-1.4c-1.1-0.8-1.5-1.3-1.3-1.5c0.3-0.2,0.9,0,1.9,0.6c0.6,0.4,1.4,0.5,2.3,0.5
		c0.9-0.1,2.1-0.3,3.6-0.7c1.6-0.4,3.4-0.9,5.4-1.3s4.1-0.8,6.1-1.2c2-0.4,4.2-0.7,6.4-0.9c2.3-0.3,4.4-0.5,6.5-0.6
		c1.6-0.1,3.1,0.1,4.2,0.6C312.1,105.6,312.8,106.2,312.9,106.9z"/>
	<path d="M338.2,103.8c0.5-1,0.9-1.5,1.1-1.4c0.2,0,0.2,0.4-0.1,1.2c-0.8,2.3-1.7,4.5-2.6,6.8c-0.9,2.3-1.8,4.4-2.7,6.4
		c-0.9,2-1.6,3.8-2.3,5.3c-0.7,1.5-1.2,2.7-1.5,3.5c-0.4,1-0.7,1.4-0.9,1.4c-0.2-0.1-0.4-0.6-0.5-1.7c-0.1-0.6,0-1.3,0.2-2.2
		c0.2-0.9,0.5-1.5,0.9-2c1-1.2,1.6-2.4,1.8-3.6c0.2-1.1,0.1-2.4-0.3-3.7c-0.3-1-0.7-1.7-1.2-2.1c-0.5-0.4-0.9-0.5-1.2-0.3
		c-0.5,0.4-0.9,0.7-1.2,1c-0.3,0.3-0.6,0.6-0.9,0.9c-0.9,0.9-1.5,1.3-1.9,1.4c-0.4,0.1-0.5-0.3-0.5-1.1c0-0.6,0.1-1,0.3-1.2
		c0.2-0.2,0.5-0.4,0.8-0.6c0.4-0.2,1-0.6,1.8-1.3c0.9-0.7,1.8-1.8,2.9-3.1c1.1-1.3,1.6-2.3,1.7-2.9s-0.2-1.1-0.6-1.4
		c-0.9-0.6-1.7-0.9-2.4-0.8c-0.7,0.1-1.5,0.6-2.6,1.4c-0.7,0.6-1.2,0.8-1.5,0.8c-0.3,0-0.4-0.3-0.4-0.8c0-0.2,0-0.4,0.1-0.6
		c0-0.2,0.2-0.4,0.3-0.6s0.4-0.4,0.7-0.6c0.3-0.2,0.7-0.4,1.1-0.7c0.3-0.2,0.6-0.4,0.9-0.6c0.3-0.2,0.8-0.6,1.3-1.1s1.1-1.1,1.9-1.8
		c0.7-0.8,1.6-1.7,2.7-2.9c0.5-0.6,0.7-1.2,0.7-1.8c-0.1-0.6-0.4-1.4-1.1-2.3c-0.3-0.4-0.3-0.6-0.2-0.8c0.2-0.1,0.5,0,0.9,0.4
		c0.5,0.4,1,0.9,1.4,1.3c0.5,0.4,0.8,0.9,1.1,1.4c0.2,0.4,0.2,0.8,0,1.3c-0.2,0.5-0.9,1.2-1.9,2.1c-0.6,0.5-1.3,1.1-1.9,1.7
		c-0.6,0.7-1.4,1.6-2.3,2.7c1,0.4,1.7,0.8,2.3,1.2c0.6,0.4,0.9,0.8,1.2,1.3c0.2,0.4,0.3,0.8,0.3,1.2c-0.1,0.4-0.2,0.8-0.4,1.1
		c-0.3,0.4-0.8,1-1.4,1.9c-0.6,0.9-1.2,1.7-1.9,2.6c0.8,0.6,1.5,1.2,1.9,1.9c0.5,0.7,0.7,1.5,0.7,2.5c0.7-1.3,1.3-2.4,1.8-3.4
		c0.5-1,1-1.9,1.4-2.8c0.4-0.9,0.8-1.6,1.1-2.4C337.6,105.2,337.9,104.5,338.2,103.8z M362.6,128.7c0.4,1.1,0.5,1.8,0.3,2
		c-0.2,0.3-0.6,0.1-1.2-0.3c-0.4-0.3-1-0.7-1.7-1.3c-0.7-0.6-1.5-1.3-2.4-2.2c-0.9-0.9-1.8-2.1-2.8-3.4c-1-1.4-2-3-2.9-4.9
		c-1.4,0.8-3.1,1.5-4.9,2s-3.7,0.8-5.8,0.9c-1.2,0.1-1.8,0-1.8-0.3c0-0.3,0.4-0.5,1.3-0.6c2.2-0.3,4.2-0.8,6-1.4
		c1.8-0.6,3.3-1.3,4.4-2.1c-0.1-0.2-0.2-0.3-0.3-0.5c-0.1-0.2-0.2-0.4-0.2-0.6c-0.7-1.6-1.4-3.4-2.1-5.5c-0.7,0.4-1.3,0.7-1.8,1
		c-0.5,0.3-0.9,0.5-1.2,0.7c-0.3,0.2-0.5,0.4-0.7,0.5c-0.2,0.1-0.3,0.3-0.5,0.4c-0.7,0.5-1.2,1-1.6,1.3c-0.4,0.3-0.8,0.5-1.1,0.6
		c-0.3,0.1-0.5,0.1-0.7,0.1c-0.2,0-0.4-0.2-0.7-0.3c-0.5-0.4-0.8-0.7-0.7-1.1c0.1-0.4,0.6-1.1,1.6-2.2c0.8-0.9,1.6-1.9,2.6-3.2
		c1-1.2,1.9-2.5,2.9-3.8c-0.2-0.6-0.3-1.1-0.5-1.7c-0.1-0.6-0.3-1.2-0.5-1.8c-1,0.7-1.7,1.1-2.2,1.3c-0.5,0.2-0.9,0.2-1.2,0.2
		c-0.4-0.1-0.7-0.2-1-0.3c-0.3-0.1-0.5-0.3-0.8-0.6c-0.5-0.5-0.4-0.8,0.4-0.8c0.7,0,1.5-0.1,2.2-0.4s1.5-0.7,2.2-1.1
		c-0.3-1.2-0.6-2.5-0.9-3.7c-0.3-1.3-0.6-2.5-0.8-3.7c-0.3-1.3-0.6-2.3-1.1-3c-0.4-0.6-1-1.1-1.8-1.5c-0.6-0.3-0.9-0.5-0.9-0.7
		c0-0.2,0.4-0.2,1.2-0.1c0.7,0.1,1.3,0.3,1.8,0.5c0.5,0.2,0.9,0.5,1.3,0.8c0.4,0.4,0.6,0.8,0.8,1.3c0.2,0.5,0.3,1.2,0.4,1.9
		c0.1,0.9,0.3,2,0.5,3.1c0.2,1.2,0.5,2.5,1,4.1c0.5-0.3,1.1-0.6,1.7-1c0.6-0.4,1.2-0.7,1.8-1.1c0.6-0.3,1.1-0.6,1.6-0.9
		c0.5-0.3,0.9-0.4,1.1-0.5c0.7-0.2,1.1-0.2,1.4,0.1c0.3,0.3,0.1,0.9-0.6,1.9c-0.5,0.7-1,1.4-1.4,2c-0.4,0.6-0.8,1.2-1.3,1.8
		c-0.4,0.6-0.8,1.2-1.3,1.8c-0.4,0.6-0.9,1.3-1.5,2c0.1,0.2,0.1,0.4,0.2,0.6c0,0.2,0.1,0.4,0.2,0.6c0.2,0.5,0.3,0.9,0.4,1.4
		c0.1,0.4,0.2,0.9,0.4,1.3c0.9-0.5,1.7-1,2.5-1.4c0.8-0.4,1.3-0.7,1.7-1c0.3-0.2,0.5-0.3,0.7-0.5s0.2-0.3,0.1-0.6
		c-0.1-0.2-0.3-0.6-0.6-1c-0.3-0.4-0.9-0.9-1.6-1.6c-0.4-0.4-0.5-0.6-0.3-0.7c0.2-0.1,0.4,0,0.6,0.2c0.9,0.9,1.7,1.6,2.4,2.1
		c0.7,0.5,1.5,0.9,2.5,1.3c0.6,0.3,0.8,0.6,0.7,1c-0.1,0.4-0.6,0.7-1.4,0.9c-1.2,0.3-2.2,0.6-3.1,0.9c-0.9,0.3-1.8,0.8-2.8,1.4
		c-0.2,0.1-0.3,0.1-0.4,0.2c-0.1,0.1-0.2,0.2-0.4,0.2c0.4,1.2,0.8,2.3,1.2,3.4c0.4,1.1,0.8,2.1,1.3,3.1l0.3-0.3
		c0.9-1,1.5-1.8,1.7-2.4c0.2-0.6,0.1-1.2-0.4-1.8c-0.2-0.3-0.3-0.5-0.1-0.6c0.2-0.1,0.5-0.1,0.9,0.1c0.7,0.4,1.2,0.8,1.4,1.1
		c0.2,0.4,0.2,0.9-0.1,1.5c-0.2,0.6-0.5,1.1-0.9,1.7c-0.4,0.5-0.9,1.1-1.5,1.6l-0.8,0.6c0.7,1.4,1.5,2.8,2.4,4
		c0.9,1.3,1.8,2.5,2.9,3.7c0.5,0.5,0.9,0.6,1.2,0.5c0.3-0.2,0.5-0.5,0.6-0.9c0-0.2,0-0.7,0.1-1.4c0.1-0.7,0.2-1.4,0.3-2.3
		c0.1-0.8,0.2-1.7,0.3-2.6c0.1-0.9,0.2-1.7,0.3-2.3c0.1-1.1,0.2-1.6,0.4-1.5c0.2,0.1,0.2,0.6,0.2,1.4c-0.1,1.1-0.1,2.2-0.1,3.4
		c0,1.2,0.1,2.4,0.1,3.5c0.1,1.1,0.2,2.2,0.3,3.2C362.2,127.4,362.4,128.2,362.6,128.7z M342.2,112.9c0.8-0.6,1.7-1.2,2.7-1.9
		c1-0.7,2-1.3,3.1-1.9c-0.2-0.5-0.3-1-0.5-1.5c-0.1-0.5-0.3-1-0.5-1.5c-0.8,1.1-1.7,2.2-2.6,3.4
		C343.7,110.8,342.9,111.9,342.2,112.9z M347.2,100c0.2,0.8,0.4,1.7,0.8,2.8c0.9-1.2,1.6-2.4,2.3-3.4c0.7-1,1.1-1.7,1.4-2.2
		c-0.5,0.2-1.2,0.6-2.1,1.2S348,99.4,347.2,100z M354.8,93.3c-0.6-0.5-0.8-0.8-0.7-1s0.6-0.2,1.5-0.1c1,0.2,1.8,0.5,2.5,0.8
		c0.7,0.3,1.2,0.6,1.5,0.9c0.9,0.7,1.2,1.3,1,1.6s-0.7,0.3-1.6,0c-1-0.4-1.8-0.7-2.4-1.1C356,94.1,355.4,93.7,354.8,93.3z"/>
	<path d="M370,123.3c-0.2,0-0.4,0-0.6-0.2c-0.1-0.2-0.2-0.3-0.3-0.5c-0.1-0.3,0-0.6,0.3-1.1c0.3-0.5,0.6-0.9,1-1.4
		c0.4-0.5,0.8-0.9,1.3-1.3s0.9-0.6,1.3-0.7c0.1,0,0.3,0,0.4,0.2c0.2,0.2,0.2,0.3,0.2,0.6c0,0.5-0.2,1-0.5,1.6
		c-0.3,0.6-0.7,1.2-1.1,1.8s-0.9,1.2-1.4,1.7c-0.5,0.5-0.9,0.9-1.3,1.2c-0.3,0.2-0.5,0.2-0.6,0.2s-0.2-0.1-0.2-0.3s0.1-0.3,0.3-0.5
		C369.2,124.4,369.5,123.9,370,123.3z"/>
	<path d="M404.3,101.4c1.9,0,3.4,0,4.3,0.1s1.4,0.3,1.6,0.4c0.1,0.1,0.1,0.2,0,0.3c-0.1,0.1-0.3,0.2-0.7,0.3c-0.4,0.1-1,0.2-1.9,0.4
		c-0.9,0.2-2,0.4-3.5,0.7c-0.7,0.1-1.1-0.3-1.3-1.3c-0.1-0.5,0-1.1,0.1-1.8c0.1-0.7,0.4-1.4,0.7-2c0.3-0.7,0.7-1.3,1.1-1.9
		c0.4-0.6,0.9-1,1.5-1.3c1.2-0.7,2.5-1.4,3.9-1.9c1.3-0.5,2.6-0.9,3.7-1.2c1.2-0.3,2.1-0.4,3-0.4c0.8,0,1.4,0.1,1.7,0.3
		c0.7,0.7,1.3,1.4,1.8,2.3c0.5,0.9,0.8,1.7,1.1,2.6c0.2,0.9,0.3,1.7,0.3,2.6c0,0.8-0.2,1.6-0.5,2.2c-0.3,0.6-0.6,1.1-0.9,1.6
		c-0.3,0.5-0.7,1-1.3,1.5c-0.6,0.5-1.4,1.1-2.4,1.8c-1,0.7-2.4,1.5-4.1,2.5c-1.1,0.6-2,1.2-2.8,1.8c-0.8,0.5-1.5,1.1-2.2,1.6
		c-0.7,0.6-1.3,1.1-1.9,1.8c-0.6,0.6-1.3,1.3-2,2.1c-1.1,1.1-1.3,2.4-0.5,4c2.5,0.3,5.1,0.1,7.8-0.4c2.7-0.5,5.3-1.6,7.8-3.3
		c0.4-0.3,0.7-0.3,0.8-0.2c0.1,0.1,0,0.3-0.1,0.7c-0.3,0.8-0.6,1.4-1.1,1.8c-0.4,0.4-1,0.9-1.7,1.4c-1.1,0.8-2.6,1.4-4.5,1.7
		c-1.9,0.3-3.9,0.5-6.2,0.7c-0.8,0.1-1.5,0-2.1-0.1s-1.1-0.4-1.3-0.7c-0.2-0.3-0.5-0.6-0.7-0.9c-0.2-0.3-0.5-0.8-0.8-1.4
		c-0.2-0.4-0.3-1,0-1.8c0.2-0.8,0.7-1.7,1.4-2.7c0.7-1,1.7-2,3-3.2c1.3-1.1,2.9-2.3,4.8-3.5c0.8-0.5,1.6-1,2.3-1.4s1.3-0.8,2-1.3
		c0.6-0.4,1.2-0.9,1.8-1.3c0.6-0.5,1.2-1,1.9-1.6c1-0.9,1.5-2,1.6-3.3c0.1-1.4-0.2-2.7-0.8-4.1c-0.2-0.4-0.4-0.8-0.8-1.1
		c-0.4-0.3-1-0.5-1.7-0.5c-1.2-0.1-2.4,0-3.7,0.5c-1.3,0.4-2.5,1-3.7,1.8c-1.1,0.8-2.1,1.6-3,2.6C405,99.5,404.5,100.5,404.3,101.4z
		"/>
	<path d="M437.6,113.9c-0.1,0.3-0.1,0.7-0.2,1.3c0,0.5-0.1,1.1-0.1,1.7s0,1.2,0,1.8s0,1.2,0,1.7c0.5,0.4,0.8,0.8,0.8,1.3
		c0.1,0.7-0.4,1.4-1.6,2.1c-0.3,0.2-0.5,0.2-0.7,0c-0.1-0.2-0.2-0.7-0.3-1.6c-0.1-0.5-0.1-1.1-0.2-1.8c0-0.7-0.1-1.4-0.1-2.1
		c0-0.7,0-1.4,0-2.1c0-0.7,0.1-1.2,0.1-1.7c-1.4,0.2-2.6,0.3-3.6,0.4c-1,0.1-1.8,0.1-2.4,0.2c-0.7,0-1.2,0-1.7,0
		c-0.5,0-0.9-0.1-1.3-0.2c-0.3-0.1-0.6-0.2-0.9-0.3c-0.3-0.1-0.5-0.3-0.6-0.5c-0.3-0.6-0.5-1.1-0.7-1.5c-0.2-0.4-0.2-0.8-0.3-1.2
		c0-0.4,0-0.7,0-1s0.2-0.6,0.4-1c0.5-1.2,1.2-2.5,2-3.8s1.9-2.6,3.2-4c1.3-1.4,3-2.7,4.9-4.1s4.3-2.8,7.2-4.3c0.5-0.3,1-0.5,1.4-0.7
		c0.4-0.2,0.7-0.3,0.8-0.3c0.8,0,1.2,0.5,1.4,1.4c0,0.2-0.1,0.7-0.3,1.4c0.4,0.3,0.6,0.6,0.7,1c0,0.4-0.1,1-0.4,1.8
		c-0.2,0.4-0.4,0.9-0.7,1.6c-0.3,0.7-0.8,1.6-1.5,2.7c-0.8,1.3-1.5,2.5-2,3.4c-0.5,0.9-1,1.7-1.3,2.5c-0.4,0.7-0.7,1.4-0.9,2
		s-0.5,1.3-0.7,2c0.6-0.1,1.3-0.2,2-0.3c0.7-0.1,1.3-0.2,1.9-0.3c0.6-0.1,1.1-0.2,1.5-0.2c0.4-0.1,0.6-0.1,0.7-0.1
		c0.4,0,0.7,0,0.9,0s0.4,0.2,0.5,0.5c0.1,0.4,0,0.7-0.3,0.9c-0.2,0.2-0.5,0.4-0.8,0.4L437.6,113.9z M435.9,112.3
		c0.4-1.3,0.9-2.6,1.4-3.7c0.5-1.1,1-2.2,1.6-3.3s1.2-2.2,1.9-3.3c0.7-1.1,1.4-2.2,2.3-3.4c0.6-0.8,0.9-1.5,1-2.1
		c0.1-0.6,0.1-1.2,0-1.9c0-0.2-0.1-0.3-0.2-0.4c-0.1-0.1-0.3-0.1-0.4-0.1c-0.2,0-0.7,0.2-1.5,0.7c-0.8,0.4-1.8,1-3,1.8
		c-1.2,0.8-2.5,1.7-3.8,2.8c-1.4,1.1-2.7,2.2-3.9,3.4c-1.5,1.5-2.8,3.1-3.8,4.7c-1,1.6-1.6,3.5-1.7,5.6c1.9,0,3.6-0.1,5.2-0.3
		S434.1,112.5,435.9,112.3z"/>
	<path d="M465.9,116.5c-1.6,2.1-3,3.7-4.2,4.8c-1.2,1.1-2.2,1.6-3,1.6c-1.3,0-2.1-0.8-2.4-2.3c-0.2-1.2,0.1-2.9,0.9-5
		c0.8-2.1,1.9-4.4,3.3-6.8c-1.1,0.7-2.3,1.9-3.7,3.6c-1.4,1.8-2.9,3.9-4.5,6.5c-0.3,0.6-0.6,1.1-0.8,1.5c-0.2,0.5-0.4,0.8-0.6,1
		c-0.2,0.3-0.5,0.5-0.9,0.6c-1.3,0-2.2-1.6-2.8-4.7c-0.3-1.3-0.3-2.6-0.2-3.8s0.7-2.8,1.5-4.5c2-4.3,3.8-7.9,5.3-10.5
		c1.5-2.7,2.8-4.7,4-6.1c1.1-1.4,1.9-2.1,2.4-2.1c0.6,0,1,0.1,1,0.5c0.1,0.4-0.3,1-1,2c-0.8,1.1-1.6,2.3-2.5,3.6
		c-0.9,1.3-1.7,2.8-2.7,4.4s-1.9,3.6-3,5.9c-1,2.2-2.1,4.8-3.3,7.8l0.9,4.9c2-3.2,3.8-5.8,5.4-7.6c1.6-1.8,2.8-3.2,3.8-4
		c0.5-0.4,0.9-0.7,1.3-0.8s0.7-0.2,1-0.2c0.5,0,1,0.2,1.4,0.7c0.4,0.5,0.4,0.9,0.2,1.4c-0.6,0.9-1.1,1.9-1.6,2.9s-1,2-1.4,2.9
		c-0.4,0.9-0.7,1.7-1,2.4c-0.3,0.7-0.4,1.2-0.5,1.5c-0.2,0.6-0.2,1.1-0.2,1.4c0,0.3,0.1,0.5,0.3,0.6c0.2,0.1,0.3,0.1,0.6,0.1
		c0.2-0.1,0.5-0.2,0.7-0.3c0.5-0.4,1-0.8,1.5-1.2s0.9-0.8,1.4-1.2c0.4-0.4,0.9-0.8,1.4-1.3c0.5-0.5,1-1,1.6-1.6L465.9,116.5z"/>
	<path d="M509.5,111c0.5,0.4,0.7,0.8,0.6,1.1c0,0.3-0.3,0.4-0.9,0.5c-0.8,0.1-1.9,0-3.3-0.2c-1.4-0.1-2.7-0.2-3.8-0.2
		c-1.1,0-2.1-0.1-3.1-0.2c-0.6,0-1-0.1-1.3-0.1c-0.3,0-0.3-0.1-0.1-0.1c0.2,0,0.7-0.1,1.4-0.2c0.7-0.1,1.7-0.2,3.1-0.3
		c3.2-0.2,4.8-0.3,4.7-0.5c-0.1-0.2-2.1-0.3-6-0.5c-1.3-0.1-2.7-0.1-4.1-0.1s-2.9,0-4.4,0.1c-1.2,1.3-2.4,2.5-3.6,3.6
		c-1.2,1.2-2.4,2.2-3.6,3.2c0.1,0.1,0.2,0.2,0.3,0.4c0.2,0.2,0.3,0.4,0.5,0.8c0,0.1,0.1,0.2,0.2,0.4c0.1,0.2,0.1,0.4,0.2,0.6
		c0.1,0,0.1-0.1,0.2-0.1s0.2,0,0.3,0c0.7-0.1,1.4-0.3,2.2-0.5c0.8-0.2,1.6-0.4,2.6-0.7c0.7-0.2,1.3-0.4,2-0.7
		c0.7-0.2,1.3-0.5,1.9-0.7c0.6-0.2,1.1-0.4,1.5-0.5c0.4-0.2,0.7-0.3,0.8-0.3c0.7-0.3,1.4-0.6,2-0.7c0.6-0.1,1.2,0.1,1.8,0.5
		c0.9,0.7,1.4,1.3,1.6,1.9c0.2,0.5,0.1,1-0.2,1.5c-0.2,0.4-0.5,0.8-0.9,1.4c-0.4,0.5-0.8,1.1-1.2,1.7c-0.4,0.6-0.8,1.2-1.3,1.8
		c-0.4,0.6-0.8,1.2-1.1,1.6c-0.2,0.3-0.1,0.5,0.4,0.6c0.5,0.1,0.8,0.3,0.9,0.7c0.1,0.4,0,0.6-0.2,0.7c-0.2,0.1-0.8,0.1-1.6-0.1
		c-1.3-0.3-2.6-0.4-3.9-0.3c-1.3,0.1-2.8,0.3-4.5,0.6c-0.1,0-0.3,0-0.4,0s-0.2,0-0.4,0.1c0.1,0.2,0.1,0.3,0.1,0.5
		c0,0.1,0,0.3,0.1,0.4c0.2,1,0.1,1.5-0.2,1.6c-0.3,0.1-0.6-0.3-1-1c-0.3-0.6-0.5-1.3-0.8-2.2c-0.3-0.9-0.6-1.8-0.8-2.8
		c-0.3-1-0.5-2-0.7-3c-0.2-1-0.4-1.9-0.5-2.8c0-0.5,0-0.9,0-1.1l-1.2,0.9c-2.5,1.9-4.6,3-6.4,3.4c-1.7,0.4-3.1,0.1-4.1-0.7
		c-1-0.8-1.6-1.7-1.8-2.7s-0.1-1.9,0.4-2.8c0.3-0.5,0.7-1.1,1.2-1.6s0.9-1,1.4-1.5c0.5-0.4,1-0.8,1.5-1.1c0.5-0.3,1-0.5,1.5-0.7
		c0.4-0.1,1-0.3,1.6-0.4s1.4-0.3,2.1-0.4c0.8-0.1,1.5-0.3,2.3-0.4c0.8-0.1,1.6-0.2,2.3-0.3c2.1-0.2,4-0.3,5.8-0.3
		c0.8-1,1.6-1.9,2.3-2.8c0.7-0.9,1.3-1.8,1.9-2.6c0.4-0.6,0.6-1.2,0.6-1.6s-0.1-0.8-0.4-0.9c-0.3-0.2-0.6-0.2-1.1-0.1
		c-0.5,0.1-1,0.4-1.6,0.9c-0.4,0.3-1,0.7-1.7,1.2s-1.5,1-2.3,1.5c-0.9,0.5-1.8,1.1-2.7,1.7c-1,0.6-1.9,1.2-2.9,1.8
		c-0.8,0.5-1.3,0.3-1.4-0.7c0-0.8,0.3-1.4,0.9-1.7c0.3-0.1,0.6-0.4,1-0.7c0.4-0.3,0.7-0.6,1.1-1c0.4-0.4,0.7-0.7,1.1-1.1
		c0.4-0.4,0.7-0.7,1-1c0.8-0.7,1.3-1.4,1.5-1.9c0.2-0.5,0.3-1.1,0.2-1.8c-0.1-0.8,0-1.2,0.4-1.3c0.3-0.1,0.6,0.2,0.9,1
		c0.4,1,0.5,1.7,0.5,2.2c0,0.5-0.2,0.8-0.6,1.2c-0.5,0.6-1.1,1.1-1.6,1.6s-1.3,1.1-2.2,1.8c1.3-0.9,2.5-1.7,3.5-2.4
		c1-0.6,1.8-1.2,2.5-1.6c0.7-0.4,1.3-0.7,1.8-0.9c0.5-0.2,1-0.4,1.4-0.5c1.1-0.2,2.1,0.3,3,1.6c0.2,0.3,0.3,0.8,0.1,1.3
		c-0.2,0.6-0.7,1.4-1.5,2.5c-0.5,0.7-1.1,1.4-1.6,2.1s-1.1,1.4-1.8,2.1c3-0.1,6.1,0,9.1,0.2c1,0.1,1.9,0.2,2.6,0.3s1.3,0.2,1.8,0.4
		c0.5,0.2,0.9,0.3,1.3,0.6S509.2,110.7,509.5,111z M479.7,119.2c1.7-0.9,3.5-2.2,5.3-3.7c1.8-1.6,3.6-3.2,5.3-5
		c-1.8,0.1-3.6,0.2-5.4,0.4c-1.7,0.2-3.4,0.3-4.9,0.6c-1.5,0.2-2.7,0.5-3.6,0.9s-1.8,0.9-2.7,1.6c-0.6,0.5-1.1,1-1.4,1.7
		c-0.4,0.7-0.5,1.2-0.6,1.7c0,0.8,0.2,1.4,0.6,1.9c0.4,0.5,1,0.9,1.8,1.1c0.7,0.2,1.6,0.2,2.6,0
		C477.6,120.2,478.6,119.8,479.7,119.2z M476.5,104.3c-0.1,0.6-0.2,0.9-0.5,0.9c-0.3,0-0.5-0.3-0.7-0.9c-0.2-0.6-0.3-1.1-0.3-1.5
		c0-0.4,0.1-0.9,0.4-1.3c0.5-0.8,0.9-1.5,1.2-2.2c0.3-0.7,0.5-1.2,0.7-1.7c0.2-0.8,0.4-1.6,0.6-2.4c0.2-0.8,0.2-1.6,0.1-2.2
		c-0.1-0.6,0.1-0.9,0.4-0.9s0.6,0.3,0.8,1c0.2,0.6,0.3,1.2,0.4,1.9c0.1,0.7,0,1.3-0.1,2c0.6-0.5,1.4-1,2.4-1.5c1-0.5,2.1-1,3.2-1.5
		c1.2-0.5,2.4-0.9,3.7-1.3c1.3-0.4,2.6-0.7,3.9-0.9c0.2,0,0.3-0.1,0.5-0.1c0.2,0,0.3,0,0.5-0.1c-0.6-0.7-1.3-1.6-2.1-2.6
		c-0.8-1-1.5-2.1-2.2-3.2c-0.4-0.6-0.5-0.9-0.4-1c0.1-0.1,0.5,0.1,1.2,0.6c0.5,0.4,1,0.8,1.6,1.3c0.6,0.5,1.1,1,1.5,1.6
		c0.5,0.6,0.9,1.1,1.3,1.7c0.4,0.6,0.7,1,0.9,1.5c1.2-0.2,2.4-0.3,3.4-0.3c1,0,1.9,0,2.8,0c0.9,0.1,1.7,0.2,2.4,0.3
		c0.8,0.2,1.5,0.4,2.3,0.7c0.6,0.2,1.1,0.6,1.5,1.1s0.7,1.1,0.8,1.7c0.1,0.7,0.1,1.2-0.1,1.5c-0.2,0.3-0.5,0.4-1,0.5
		c-0.5,0.1-1.2,0.1-2.2,0.1c-0.9,0-1.9,0-3,0c-1,0-2-0.1-3-0.1c-1,0-1.7-0.1-2.2-0.1c-1.2-0.1-1.9-0.3-1.9-0.4s0.5-0.2,1.7-0.2
		c0.6,0,1.3,0,2.1-0.1c0.8,0,1.6-0.1,2.4-0.2c0.8-0.1,1.5-0.2,2.3-0.3c0.7-0.1,1.4-0.3,1.9-0.4c0.4-0.1,0.7-0.3,0.9-0.6
		c0.2-0.3,0.1-0.6-0.1-0.9c-0.2-0.3-0.6-0.6-1.3-0.8c-0.6-0.3-1.5-0.4-2.6-0.5c-2-0.1-4.2,0-6.3,0.3c-2.2,0.3-4.3,0.7-6.4,1.2
		c-2.1,0.6-4.1,1.2-5.9,2.1c-1.9,0.8-3.5,1.8-5,2.8c0,0-0.1,0.1-0.1,0.1s0,0-0.1,0c0,0.1-0.1,0.1-0.1,0.2s-0.1,0.1-0.1,0.2
		c-0.6,1.1-1.1,2.1-1.4,2.9C476.7,103.2,476.5,103.9,476.5,104.3z M487,120c-0.2,0-0.3,0-0.4,0c0.3,0.9,0.6,1.9,0.9,3.2
		c0.3,1.3,0.6,2.4,0.9,3.5c0.1,0,0.2-0.1,0.2-0.1c0.1,0,0.2-0.1,0.4-0.1c1-0.3,2.2-0.5,3.6-0.6c1.4-0.1,2.7-0.1,3.8-0.1
		c0-0.1,0.1-0.2,0.2-0.3c0.1-0.1,0.2-0.3,0.3-0.4c0.8-1.1,1.5-2.2,2.3-3.3s1.4-2.1,1.9-3c0.1-0.2,0.2-0.5,0.2-0.7s-0.1-0.5-0.3-0.7
		c-0.2-0.2-0.4-0.3-0.7-0.4c-0.3-0.1-0.7,0-1.1,0.1c-1.7,0.6-3.2,1.2-4.4,1.6c-1.2,0.4-2.3,0.7-3.3,0.9c-0.9,0.2-1.8,0.4-2.5,0.4
		C488.3,120.1,487.6,120.1,487,120z"/>
	<path d="M533,103.4c-0.3,0-0.6,0-1,0c-0.4,0-0.7-0.1-1.1-0.2c-0.4-0.1-0.7-0.2-1.1-0.3c-0.3-0.1-0.6-0.2-0.9-0.3
		c0,1.2-0.1,2.5-0.2,4c-0.1,1.5-0.3,3-0.4,4.5s-0.3,3-0.6,4.4c-0.2,1.4-0.4,2.7-0.7,3.7c-0.4,1.7-0.8,3.1-1.1,4.2
		c-0.3,1.1-0.6,1.9-0.9,2.6c-0.2,0.4-0.5,0.7-0.9,0.7s-0.7-0.1-1-0.5c-0.1-0.2-0.2-0.3-0.3-0.4c-0.1-0.1-0.1-0.3-0.2-0.5
		c-0.1-0.5,0-0.9,0.4-1.3c0.4-0.3,0.8-1,1.1-1.9c1-3.8,1.8-7.4,2.2-10.7s0.7-6.8,0.8-10.3c0-0.9,0.1-1.7,0.1-2.3
		c0-0.6,0-1.1-0.1-1.5c-0.1-0.4-0.2-0.8-0.4-1.2s-0.4-0.8-0.8-1.3c-0.4-0.7-0.5-1.1-0.3-1.2c0.2-0.1,0.6,0,1.2,0.4
		c0.7,0.4,1.3,0.8,1.7,1.1c0.4,0.3,0.7,0.6,0.9,0.8c0.2,0.3,0.3,0.6,0.3,0.9c0,0.3-0.1,0.7-0.2,1.1c-0.1,0.4-0.2,0.9-0.3,1.7
		s-0.2,1.5-0.3,2.1c0.1,0,0.3,0,0.4,0c0.1,0,0.3,0,0.5,0c0.3,0,0.6,0,1.1,0.1s0.9,0.1,1.4,0.2c0.5,0.1,1,0.2,1.5,0.3s1,0.3,1.4,0.4
		c0.6,0.3,0.9,0.6,0.8,1c-0.1,0.4-0.5,0.9-1.4,1.3c-0.5,0.2-0.9,0.5-1.2,0.7c-0.3,0.2-0.6,0.5-0.9,0.8c-0.7,0.6-1.1,0.8-1.2,0.7
		c-0.1-0.1,0.3-0.5,1-1.2c0.2-0.1,0.4-0.3,0.6-0.6c0.2-0.3,0.5-0.5,0.8-0.7c0.3-0.2,0.3-0.5,0.2-0.7
		C533.6,103.5,533.4,103.4,533,103.4z M531.7,113.1c-0.5,0.4-1,0.6-1.4,0.6c-0.4,0-0.7-0.3-1.1-0.9c-0.3-0.5-0.4-0.9-0.5-1.4
		c-0.1-0.4-0.1-0.7-0.1-0.9c0.2-0.4,0.3-0.4,0.5,0c0.2,0.7,0.5,1.1,0.8,1.2c0.3,0.1,0.9-0.1,1.6-0.5c0.5-0.3,1-0.6,1.5-1.1
		c0.6-0.5,1.3-1.2,2.1-2.2c0.5-0.5,0.7-0.6,0.7-0.4c0,0.3-0.2,0.6-0.5,1.2c-0.4,0.7-1,1.5-1.7,2.4C533,112,532.3,112.6,531.7,113.1z
		 M539.6,92.9c-0.3,0.6-0.5,1.2-0.7,1.9c-0.2,0.7-0.3,1.7-0.3,2.8c-0.1,1.7-0.3,3.6-0.4,5.5c-0.1,1.9-0.2,3.8-0.3,5.6
		s-0.2,3.5-0.2,5.1c-0.1,1.6-0.1,2.9-0.1,4c0,1.6-0.1,3.2-0.1,4.9s-0.1,3.1-0.3,4.4c-0.1,0.7-0.2,1.2-0.6,1.3
		c-0.3,0.1-0.7-0.3-1.3-1.2c-0.2-0.4-0.5-1-0.9-1.6c-0.4-0.6-0.8-1.3-1.3-2c-0.5-0.7-0.9-1.4-1.4-2.1s-0.9-1.3-1.2-1.9
		c-0.4-0.6-0.5-1-0.4-1.2c0.2-0.2,0.5,0,0.9,0.6c0.5,0.7,1.1,1.3,1.6,1.8c0.5,0.5,1.1,1.1,1.8,1.7c0.5,0.5,0.8,0.6,0.9,0.4
		c0.1-0.2,0.2-0.8,0.3-1.8c0.1-2.3,0.3-4.4,0.4-6.4s0.2-4,0.3-6.1c0.1-2.1,0.2-4.4,0.4-6.8c0.1-2.4,0.3-5.3,0.5-8.5
		c0.1-0.8-0.1-1.3-0.5-1.5s-0.9,0-1.6,0.6c-0.6,0.5-1,0.8-1.4,1.1c-0.4,0.3-0.7,0.5-1,0.6c-0.3,0.1-0.6,0.1-0.8,0.1
		c-0.3,0-0.6-0.1-0.9-0.3c-0.6-0.2-0.8-0.4-0.8-0.7c0-0.2,0.3-0.4,0.9-0.6c1-0.3,1.8-0.7,2.5-1.1c0.7-0.4,1.4-1,2.2-1.9
		c0.3-0.3,0.7-0.4,1.2-0.3c0.5,0.1,1.2,0.4,2,1c0.5,0.4,0.8,0.8,0.9,1.2C539.9,92.1,539.8,92.5,539.6,92.9z M561.3,123.6
		c0.3,0.6,0.4,0.9,0.3,1.1s-0.6-0.1-1.3-0.7c-1.4-1-2.7-2-3.9-2.9c-1.2-1-2.6-2.1-4.2-3.5c-1.1,1.3-2.2,2.3-3.5,2.9
		c-1.2,0.6-2.8,0.9-4.6,0.8c0,0.8,0,1.5-0.1,2.3c0,0.8-0.1,1.6-0.2,2.6c-0.1,0.6-0.2,0.8-0.4,0.8c-0.2,0-0.4-0.5-0.7-1.4
		c-0.1-0.4-0.2-1.1-0.4-1.9s-0.2-1.7-0.3-2.7c-0.6-0.2-1.1-0.4-1.5-0.7c-0.4-0.3-0.8-0.6-1.2-0.9c-0.3-0.3-0.4-0.5-0.3-0.7
		c0.2-0.2,0.4-0.1,0.8,0.2c0.1,0.1,0.4,0.2,0.8,0.4c0.4,0.2,0.8,0.3,1.4,0.4c-0.1-1.2-0.1-2.5,0-3.8c0-1.3,0.2-2.4,0.3-3.4
		c0-0.1,0-0.2,0-0.3s0-0.2,0.1-0.4c-0.5-0.1-0.9-0.1-1.4-0.2c-0.5,0-1,0-1.6,0c-0.9,0-1.4-0.1-1.5-0.3c-0.1-0.2,0.3-0.5,1.2-0.8
		c0.4-0.2,0.9-0.3,1.5-0.3c0.6,0,1.2,0,1.9,0.1c0-0.4,0.1-0.9,0.1-1.3c0-0.4,0-0.8,0-1.2c0-0.8,0.1-1.6,0.1-2.4
		c0-0.7,0.1-1.5,0.2-2.3c0.1-0.8,0.2-1.6,0.3-2.5c0.1-0.9,0.2-1.9,0.4-3c-0.3,0.1-0.5,0.1-0.8,0.1c-0.3,0-0.6,0-0.9,0.1
		c-0.4,0-0.6,0-0.7-0.2c-0.1-0.2,0-0.3,0.2-0.6c0.3-0.3,0.7-0.6,1.1-1c0.4-0.4,0.8-0.7,1.3-1.1c1-0.9,1.9-1.6,2.6-2.1
		c0.7-0.5,1.3-1,1.8-1.3c0.5-0.4,1-0.6,1.4-0.9c0.4-0.2,0.8-0.5,1.2-0.8c0.3-0.2,0.7-0.3,1.2-0.2c0.5,0.1,1.2,0.5,2.3,1.3
		c0.8,0.5,1.3,1,1.5,1.4c0.2,0.4,0.2,0.8,0,1c-0.2,0.2-0.3,0.5-0.4,0.9s-0.3,0.8-0.4,1.2c-0.3,1-0.6,2-1,3s-0.9,1.8-1.4,2.6
		c-0.4,0.5-0.7,0.8-1,0.8c-0.3,0-0.7-0.1-1-0.4c-0.8-0.5-1.4-1-2-1.4c-0.6-0.4-1.1-0.9-1.6-1.5c-0.4-0.4-0.5-0.6-0.4-0.8
		s0.4-0.1,0.9,0.2c0.8,0.4,1.5,0.8,2,1c0.5,0.2,0.9,0.4,1.3,0.4c0.3,0,0.6,0,0.8-0.2c0.2-0.2,0.4-0.4,0.5-0.7c0.4-0.8,0.7-1.4,0.9-2
		c0.2-0.6,0.4-1.3,0.6-2.2c0.2-0.5,0.2-0.9,0-1.2c-0.1-0.3-0.4-0.6-0.8-1c-0.3-0.3-0.6-0.4-0.9-0.4c-0.3,0-0.7,0.2-1.3,0.4
		c-0.9,0.4-1.7,0.9-2.4,1.5s-1.3,1.3-2,2.2c-0.3,0.4-0.7,0.7-1,1c0.1,1.1,0.1,2.3,0,3.7c-0.1,1.4-0.3,2.8-0.5,4.3
		c-0.1,0.4-0.1,0.9-0.2,1.4c0,0.5-0.1,1-0.2,1.5c0,0,0.1,0,0.2,0c0.7-0.1,1.3-0.2,1.9-0.4c0.6-0.2,1.1-0.4,1.7-0.8
		c0.6-0.3,1.2-0.8,1.8-1.3c0.7-0.5,1.4-1.2,2.3-1.9c0.6-0.6,1.2-0.9,1.8-0.9c0.6,0,1.2,0.2,1.9,0.7c0.8,0.6,1.2,1.1,1.4,1.7
		c0.2,0.5,0.1,1-0.1,1.4c-0.2,0.3-0.3,0.6-0.4,1c-0.1,0.4-0.3,0.8-0.4,1.4c-0.4,1.5-0.9,2.9-1.4,4.1s-1.1,2.2-1.6,3.1
		c0.5,0.4,0.9,0.7,1.3,1.1c0.4,0.3,0.9,0.7,1.3,1.1c0.8,0.6,1.4,1.1,2,1.6c0.6,0.5,1.1,0.9,1.5,1.3s0.8,0.8,1.1,1.2
		C560.8,122.7,561,123.2,561.3,123.6z M549.3,118.2c0.3-0.3,0.5-0.5,0.8-0.8s0.5-0.6,0.8-0.9c-1.4-1.2-2.6-2.2-3.7-2.8
		c-1.1-0.7-2.1-1.1-3.2-1.4c-0.1,1.1-0.1,2.1,0,3c0,0.8,0.1,1.5,0.1,2.3c0,0.8,0.1,1.6,0.1,2.5c1.1,0,2-0.1,2.7-0.4
		C547.6,119.5,548.4,119,549.3,118.2z M544.2,109.4c0,0.3-0.1,0.5-0.1,0.7s0,0.4,0,0.7c0.8,0.3,1.7,0.6,2.5,1
		c0.9,0.4,1.7,0.9,2.5,1.4c0.5,0.3,1,0.7,1.5,1c0.5,0.3,0.9,0.6,1.2,0.9c0.6-1,1.1-2.1,1.5-3.4c0.5-1.3,0.8-2.8,1.2-4.5
		c0.2-0.8,0.2-1.3,0.2-1.6s-0.2-0.6-0.6-0.8c-0.3-0.2-0.6-0.2-1,0c-0.4,0.2-0.8,0.5-1.2,0.9c-0.7,0.8-1.5,1.4-2.3,2
		c-0.8,0.6-1.7,1-2.6,1.3c-0.5,0.2-1,0.3-1.6,0.3C545,109.5,544.6,109.5,544.2,109.4z"/>
	<path d="M569.4,122.8c-0.4,0-0.7,0-0.8-0.1c-0.1-0.1-0.2-0.3-0.3-0.8c-0.1-0.5,0-1,0.2-1.5c0.2-0.5,0.5-1,0.9-1.4s0.8-0.7,1.2-1
		s0.9-0.4,1.3-0.4c0.3,0,0.5,0,0.6,0s0.2,0.2,0.3,0.5c0,0.4,0,0.8-0.2,1.4c-0.2,0.5-0.4,1-0.8,1.5s-0.7,0.9-1.1,1.3
		C570.3,122.6,569.8,122.8,569.4,122.8z M572.9,112.3c-0.4,0-0.6-0.1-0.6-0.2c0-0.1-0.1-0.4-0.2-0.9c-0.1-0.3,0-0.7,0.2-1.2
		c0.2-0.5,0.4-1,0.7-1.4c0.3-0.5,0.7-0.9,1.1-1.2c0.4-0.4,0.9-0.6,1.4-0.6c0.3,0,0.6,0,0.7,0.1c0.1,0.1,0.2,0.3,0.2,0.7
		c0,0.4-0.1,0.9-0.3,1.4s-0.4,1.1-0.8,1.6c-0.3,0.5-0.7,0.9-1.1,1.3C573.7,112.1,573.3,112.3,572.9,112.3z"/>
	<path d="M604.6,97.3c0.9-0.9,1.7-1.7,2.4-2.3c0.7-0.6,1.4-1.2,2-1.7c0.6-0.5,1.2-0.9,1.8-1.3c0.6-0.4,1.2-0.8,1.8-1.2
		c0.8,1,1.2,1.9,1.2,2.8c0,0.9-0.1,1.9-0.3,3c-0.1,0.7-0.4,1.5-0.8,2.5s-0.8,2.3-1.4,3.8c-0.7,2.1-1.3,4-1.8,5.9
		c-0.5,1.9-0.8,3.6-1.1,5c-0.3,1.5-0.4,2.7-0.5,3.7c0,1,0,1.6,0.1,1.9c0.5,1.2,0.8,2,0.7,2.4c-0.1,0.4-0.1,0.5-0.3,0.5
		c-0.6,0-1.1-0.4-1.6-1.2c-0.3-0.5-0.5-0.9-0.7-1.4s-0.2-1-0.3-1.7c-0.1-0.8-0.1-2.1,0.2-3.8c0.3-1.7,0.7-3.7,1.3-6
		c0.6-2.3,1.3-4.7,2.1-7.3c0.8-2.6,1.7-5.2,2.6-7.8c-0.9,0.4-1.9,1-3,1.9c-1.1,0.9-2.6,2.1-4.5,3.6L604.6,97.3z"/>
	<path d="M628.8,107.6c0.8,0.8,1.5,1.6,2,2.4c0.5,0.9,0.9,1.5,1.2,2c1,2.1,1.2,4.1,0.8,6c-0.5,1.9-1.6,3.4-3.6,4.7
		c-0.9,0.6-1.9,1-3.1,1.1s-2.2,0-3.3-0.3s-1.9-0.7-2.7-1.4c-0.8-0.6-1.2-1.4-1.3-2.2c-0.1-0.6,0-1.3,0.2-2.1s0.6-1.7,1.2-2.7
		c0.6-1,1.4-2.1,2.4-3.4s2.2-2.7,3.7-4.3c-1-0.8-1.8-1.6-2.5-2.3c-0.7-0.7-1.2-1.4-1.7-2c-0.4-0.6-0.8-1.2-1-1.8
		c-0.2-0.6-0.4-1.1-0.5-1.7c-0.1-0.8-0.1-1.5,0-2.1c0.1-0.6,0.3-1.2,0.6-1.7c0.3-0.5,0.7-1,1.1-1.4c0.5-0.4,1-0.8,1.6-1.3
		c0.8-0.5,1.9-0.9,3.2-1.2s2.7-0.5,4.2-0.6c1.5-0.1,2.9-0.2,4.3-0.1c1.4,0.1,2.6,0.2,3.5,0.4c0.7,0.2,1.1,0.4,1.1,0.7
		c0,0.3-0.1,0.6-0.5,0.9c-0.2,0.1-0.4,0.2-0.7,0.3c-0.3,0.1-0.8,0.1-1.4,0.1c0.4,0.5,0.6,0.9,0.7,1.3c0,0.2,0,0.4-0.1,0.7
		c-0.1,0.3-0.3,0.7-0.5,1.2c-0.3,0.5-0.7,1.1-1.2,1.8c-0.5,0.7-1.2,1.5-2.1,2.5c-0.7,0.8-1.3,1.4-1.8,2c-0.5,0.6-1,1.1-1.5,1.6
		c-0.5,0.5-0.9,1-1.3,1.4C629.6,106.7,629.2,107.1,628.8,107.6z M627.7,108.8c-1,0.9-1.9,1.9-2.7,3c-0.8,1.1-1.7,2.4-2.7,3.9
		c-0.6,0.9-1,1.7-1.2,2.4c-0.2,0.7-0.2,1.2-0.2,1.5c0.1,0.5,0.5,1,1.3,1.5c0.8,0.4,1.7,0.7,2.9,0.7c1.1,0,2.2-0.3,3.2-1
		s1.7-1.5,2.2-2.7c0.4-1.1,0.5-2.5,0.2-4C630.2,112.4,629.3,110.7,627.7,108.8z M627.4,106.1c2-2.2,3.8-4.3,5.4-6.3
		c1.6-2,2.9-3.8,3.9-5.3c0.3-0.4,0.5-0.7,0.5-0.8c0-0.3-0.5-0.5-1.3-0.6c-0.9-0.1-1.9-0.1-3-0.1c-1.2,0-2.4,0.2-3.6,0.4
		c-1.2,0.2-2.2,0.5-3,0.8c-0.7,0.3-1.4,0.6-2,1c-0.6,0.4-1,0.8-1.3,1.3c-0.3,0.5-0.5,1.1-0.5,1.8c0,0.7,0.1,1.5,0.5,2.4
		c0.1,0.3,0.3,0.6,0.6,1.1c0.3,0.4,0.6,0.9,1,1.4c0.4,0.5,0.8,1,1.3,1.5C626.3,105.2,626.8,105.6,627.4,106.1z"/>
	<path d="M659.9,93c0.4,0.1,0.6,0.2,0.6,0.4c0,0.2-0.7,0.8-2.1,1.6s-2.7,1.6-3.9,2.5c-1.2,0.9-2.4,1.8-3.4,2.8s-2,2.2-2.9,3.5
		c-0.9,1.3-1.8,2.9-2.6,4.6c-0.5,1.1-0.7,1.7-0.6,1.8c0.2,0.1,0.6-0.4,1.3-1.3c0.6-0.9,1.3-1.7,2.1-2.4s1.6-1.3,2.5-1.8
		c0.9-0.5,1.7-0.9,2.6-1.1c0.8-0.3,1.6-0.4,2.3-0.4c1.5,0,2.8,0.4,3.9,1.3c1.1,0.9,1.7,2.2,2,4c0.1,0.9,0.1,1.9-0.1,3
		c-0.2,1.1-0.5,2.1-1,3.2c-0.5,1.1-1,2.1-1.7,3.1c-0.7,1-1.5,1.9-2.3,2.6c-1.5,1.3-3,2.1-4.5,2.3c-1.5,0.2-2.9-0.2-4.3-1.3
		c-1.2-0.9-2.2-2-3-3.4c-0.9-1.4-1.4-2.8-1.6-4.4c-0.3-2,0.1-4.3,1.1-6.9c1-2.6,2.7-5.1,5.1-7.7c2.3-2.5,5.2-4.6,8.6-6.4L659.9,93z
		 M650.3,120.7c0.4,0,1.1-0.1,2-0.4s2-0.9,3.3-2c1.4-1.2,2.4-2.6,3.1-4.3c0.6-1.7,1-3.3,1.1-4.9c0-1.4-0.4-2.5-1.2-3.2
		c-0.8-0.7-1.8-1-2.8-0.9c-0.7,0.1-1.4,0.2-2.2,0.5c-0.8,0.2-1.6,0.6-2.4,1.1c-0.8,0.5-1.6,1.2-2.4,2s-1.6,1.8-2.3,2.9
		c-0.5,0.8-0.8,1.5-0.9,2.3c-0.1,0.8-0.1,1.5,0.2,2.2c0.5,1.6,1.1,2.8,2,3.6C648.5,120.3,649.4,120.7,650.3,120.7z"/>
	<path d="M670.2,101.4c1.9,0,3.4,0,4.3,0.1s1.4,0.3,1.6,0.4c0.1,0.1,0.1,0.2,0,0.3c-0.1,0.1-0.3,0.2-0.7,0.3c-0.4,0.1-1,0.2-1.9,0.4
		c-0.9,0.2-2,0.4-3.5,0.7c-0.7,0.1-1.1-0.3-1.3-1.3c-0.1-0.5,0-1.1,0.1-1.8c0.1-0.7,0.4-1.4,0.7-2c0.3-0.7,0.7-1.3,1.1-1.9
		c0.4-0.6,0.9-1,1.5-1.3c1.2-0.7,2.5-1.4,3.9-1.9c1.3-0.5,2.6-0.9,3.7-1.2c1.2-0.3,2.1-0.4,3-0.4c0.8,0,1.4,0.1,1.7,0.3
		c0.7,0.7,1.3,1.4,1.8,2.3c0.5,0.9,0.8,1.7,1.1,2.6c0.2,0.9,0.3,1.7,0.3,2.6c0,0.8-0.2,1.6-0.5,2.2c-0.3,0.6-0.6,1.1-0.9,1.6
		c-0.3,0.5-0.7,1-1.3,1.5c-0.6,0.5-1.4,1.1-2.4,1.8c-1,0.7-2.4,1.5-4.1,2.5c-1.1,0.6-2,1.2-2.8,1.8c-0.8,0.5-1.5,1.1-2.2,1.6
		c-0.7,0.6-1.3,1.1-1.9,1.8c-0.6,0.6-1.3,1.3-2,2.1c-1.1,1.1-1.3,2.4-0.5,4c2.5,0.3,5.1,0.1,7.8-0.4c2.7-0.5,5.3-1.6,7.8-3.3
		c0.4-0.3,0.7-0.3,0.8-0.2c0.1,0.1,0,0.3-0.1,0.7c-0.3,0.8-0.6,1.4-1.1,1.8c-0.4,0.4-1,0.9-1.7,1.4c-1.1,0.8-2.6,1.4-4.5,1.7
		c-1.9,0.3-3.9,0.5-6.2,0.7c-0.8,0.1-1.5,0-2.1-0.1s-1.1-0.4-1.3-0.7c-0.2-0.3-0.5-0.6-0.7-0.9c-0.2-0.3-0.5-0.8-0.8-1.4
		c-0.2-0.4-0.3-1,0-1.8c0.2-0.8,0.7-1.7,1.4-2.7c0.7-1,1.7-2,3-3.2c1.3-1.1,2.9-2.3,4.8-3.5c0.8-0.5,1.6-1,2.3-1.4s1.3-0.8,2-1.3
		c0.6-0.4,1.2-0.9,1.8-1.3c0.6-0.5,1.2-1,1.9-1.6c1-0.9,1.5-2,1.6-3.3c0.1-1.4-0.2-2.7-0.8-4.1c-0.2-0.4-0.4-0.8-0.8-1.1
		c-0.4-0.3-1-0.5-1.7-0.5c-1.2-0.1-2.4,0-3.7,0.5c-1.3,0.4-2.5,1-3.7,1.8c-1.1,0.8-2.1,1.6-3,2.6
		C670.9,99.5,670.4,100.5,670.2,101.4z"/>
	<path d="M690.8,97.3c0.9-0.9,1.7-1.7,2.4-2.3c0.7-0.6,1.4-1.2,2-1.7c0.6-0.5,1.2-0.9,1.8-1.3c0.6-0.4,1.2-0.8,1.8-1.2
		c0.8,1,1.2,1.9,1.2,2.8c0,0.9-0.1,1.9-0.3,3c-0.1,0.7-0.4,1.5-0.8,2.5s-0.8,2.3-1.4,3.8c-0.7,2.1-1.3,4-1.8,5.9
		c-0.5,1.9-0.8,3.6-1.1,5c-0.3,1.5-0.4,2.7-0.5,3.7c0,1,0,1.6,0.1,1.9c0.5,1.2,0.8,2,0.7,2.4c-0.1,0.4-0.1,0.5-0.3,0.5
		c-0.6,0-1.1-0.4-1.6-1.2c-0.3-0.5-0.5-0.9-0.7-1.4s-0.2-1-0.3-1.7c-0.1-0.8-0.1-2.1,0.2-3.8c0.3-1.7,0.7-3.7,1.3-6
		c0.6-2.3,1.3-4.7,2.1-7.3c0.8-2.6,1.7-5.2,2.6-7.8c-0.9,0.4-1.9,1-3,1.9c-1.1,0.9-2.6,2.1-4.5,3.6L690.8,97.3z"/>
	<path d="M715,107.6c0.8,0.8,1.5,1.6,2,2.4c0.5,0.9,0.9,1.5,1.2,2c1,2.1,1.2,4.1,0.8,6c-0.5,1.9-1.6,3.4-3.6,4.7
		c-0.9,0.6-1.9,1-3.1,1.1s-2.2,0-3.3-0.3s-1.9-0.7-2.7-1.4c-0.8-0.6-1.2-1.4-1.3-2.2c-0.1-0.6,0-1.3,0.2-2.1s0.6-1.7,1.2-2.7
		c0.6-1,1.4-2.1,2.4-3.4s2.2-2.7,3.7-4.3c-1-0.8-1.8-1.6-2.5-2.3c-0.7-0.7-1.2-1.4-1.7-2c-0.4-0.6-0.8-1.2-1-1.8
		c-0.2-0.6-0.4-1.1-0.5-1.7c-0.1-0.8-0.1-1.5,0-2.1c0.1-0.6,0.3-1.2,0.6-1.7c0.3-0.5,0.7-1,1.1-1.4c0.5-0.4,1-0.8,1.6-1.3
		c0.8-0.5,1.9-0.9,3.2-1.2s2.7-0.5,4.2-0.6c1.5-0.1,2.9-0.2,4.3-0.1c1.4,0.1,2.6,0.2,3.5,0.4c0.7,0.2,1.1,0.4,1.1,0.7
		c0,0.3-0.1,0.6-0.5,0.9c-0.2,0.1-0.4,0.2-0.7,0.3c-0.3,0.1-0.8,0.1-1.4,0.1c0.4,0.5,0.6,0.9,0.7,1.3c0,0.2,0,0.4-0.1,0.7
		c-0.1,0.3-0.3,0.7-0.5,1.2c-0.3,0.5-0.7,1.1-1.2,1.8c-0.5,0.7-1.2,1.5-2.1,2.5c-0.7,0.8-1.3,1.4-1.8,2c-0.5,0.6-1,1.1-1.5,1.6
		c-0.5,0.5-0.9,1-1.3,1.4C715.8,106.7,715.4,107.1,715,107.6z M713.9,108.8c-1,0.9-1.9,1.9-2.7,3c-0.8,1.1-1.7,2.4-2.7,3.9
		c-0.6,0.9-1,1.7-1.2,2.4c-0.2,0.7-0.2,1.2-0.2,1.5c0.1,0.5,0.5,1,1.3,1.5c0.8,0.4,1.7,0.7,2.9,0.7c1.1,0,2.2-0.3,3.2-1
		s1.7-1.5,2.2-2.7c0.4-1.1,0.5-2.5,0.2-4C716.4,112.4,715.5,110.7,713.9,108.8z M713.6,106.1c2-2.2,3.8-4.3,5.4-6.3
		c1.6-2,2.9-3.8,3.9-5.3c0.3-0.4,0.5-0.7,0.5-0.8c0-0.3-0.5-0.5-1.3-0.6c-0.9-0.1-1.9-0.1-3-0.1c-1.2,0-2.4,0.2-3.6,0.4
		c-1.2,0.2-2.2,0.5-3,0.8c-0.7,0.3-1.4,0.6-2,1c-0.6,0.4-1,0.8-1.3,1.3c-0.3,0.5-0.5,1.1-0.5,1.8c0,0.7,0.1,1.5,0.5,2.4
		c0.1,0.3,0.3,0.6,0.6,1.1c0.3,0.4,0.6,0.9,1,1.4c0.4,0.5,0.8,1,1.3,1.5C712.5,105.2,713,105.6,713.6,106.1z"/>
	<path d="M746.1,93c0.4,0.1,0.6,0.2,0.6,0.4c0,0.2-0.7,0.8-2.1,1.6s-2.7,1.6-3.9,2.5c-1.2,0.9-2.4,1.8-3.4,2.8s-2,2.2-2.9,3.5
		c-0.9,1.3-1.8,2.9-2.6,4.6c-0.5,1.1-0.7,1.7-0.6,1.8c0.2,0.1,0.6-0.4,1.3-1.3c0.6-0.9,1.3-1.7,2.1-2.4s1.6-1.3,2.5-1.8
		c0.9-0.5,1.7-0.9,2.6-1.1c0.8-0.3,1.6-0.4,2.3-0.4c1.5,0,2.8,0.4,3.9,1.3c1.1,0.9,1.7,2.2,2,4c0.1,0.9,0.1,1.9-0.1,3
		c-0.2,1.1-0.5,2.1-1,3.2c-0.5,1.1-1,2.1-1.7,3.1c-0.7,1-1.5,1.9-2.3,2.6c-1.5,1.3-3,2.1-4.5,2.3c-1.5,0.2-2.9-0.2-4.3-1.3
		c-1.2-0.9-2.2-2-3-3.4c-0.9-1.4-1.4-2.8-1.6-4.4c-0.3-2,0.1-4.3,1.1-6.9c1-2.6,2.7-5.1,5.1-7.7c2.3-2.5,5.2-4.6,8.6-6.4L746.1,93z
		 M736.5,120.7c0.4,0,1.1-0.1,2-0.4s2-0.9,3.3-2c1.4-1.2,2.4-2.6,3.1-4.3c0.6-1.7,1-3.3,1.1-4.9c0-1.4-0.4-2.5-1.2-3.2
		c-0.8-0.7-1.8-1-2.8-0.9c-0.7,0.1-1.4,0.2-2.2,0.5c-0.8,0.2-1.6,0.6-2.4,1.1c-0.8,0.5-1.6,1.2-2.4,2s-1.6,1.8-2.3,2.9
		c-0.5,0.8-0.8,1.5-0.9,2.3c-0.1,0.8-0.1,1.5,0.2,2.2c0.5,1.6,1.1,2.8,2,3.6C734.7,120.3,735.6,120.7,736.5,120.7z"/>
	<path d="M763.6,107.6c0.8,0.8,1.5,1.6,2,2.4c0.5,0.9,0.9,1.5,1.2,2c1,2.1,1.2,4.1,0.8,6c-0.5,1.9-1.6,3.4-3.6,4.7
		c-0.9,0.6-1.9,1-3.1,1.1s-2.2,0-3.3-0.3s-1.9-0.7-2.7-1.4c-0.8-0.6-1.2-1.4-1.3-2.2c-0.1-0.6,0-1.3,0.2-2.1s0.6-1.7,1.2-2.7
		c0.6-1,1.4-2.1,2.4-3.4s2.2-2.7,3.7-4.3c-1-0.8-1.8-1.6-2.5-2.3c-0.7-0.7-1.2-1.4-1.7-2c-0.4-0.6-0.8-1.2-1-1.8
		c-0.2-0.6-0.4-1.1-0.5-1.7c-0.1-0.8-0.1-1.5,0-2.1c0.1-0.6,0.3-1.2,0.6-1.7c0.3-0.5,0.7-1,1.1-1.4c0.5-0.4,1-0.8,1.6-1.3
		c0.8-0.5,1.9-0.9,3.2-1.2s2.7-0.5,4.2-0.6c1.5-0.1,2.9-0.2,4.3-0.1c1.4,0.1,2.6,0.2,3.5,0.4c0.7,0.2,1.1,0.4,1.1,0.7
		c0,0.3-0.1,0.6-0.5,0.9c-0.2,0.1-0.4,0.2-0.7,0.3c-0.3,0.1-0.8,0.1-1.4,0.1c0.4,0.5,0.6,0.9,0.7,1.3c0,0.2,0,0.4-0.1,0.7
		c-0.1,0.3-0.3,0.7-0.5,1.2c-0.3,0.5-0.7,1.1-1.2,1.8c-0.5,0.7-1.2,1.5-2.1,2.5c-0.7,0.8-1.3,1.4-1.8,2c-0.5,0.6-1,1.1-1.5,1.6
		c-0.5,0.5-0.9,1-1.3,1.4C764.4,106.7,764,107.1,763.6,107.6z M762.4,108.8c-1,0.9-1.9,1.9-2.7,3c-0.8,1.1-1.7,2.4-2.7,3.9
		c-0.6,0.9-1,1.7-1.2,2.4c-0.2,0.7-0.2,1.2-0.2,1.5c0.1,0.5,0.5,1,1.3,1.5c0.8,0.4,1.7,0.7,2.9,0.7c1.1,0,2.2-0.3,3.2-1
		s1.7-1.5,2.2-2.7c0.4-1.1,0.5-2.5,0.2-4C765,112.4,764,110.7,762.4,108.8z M762.2,106.1c2-2.2,3.8-4.3,5.4-6.3
		c1.6-2,2.9-3.8,3.9-5.3c0.3-0.4,0.5-0.7,0.5-0.8c0-0.3-0.5-0.5-1.3-0.6c-0.9-0.1-1.9-0.1-3-0.1c-1.2,0-2.4,0.2-3.6,0.4
		c-1.2,0.2-2.2,0.5-3,0.8c-0.7,0.3-1.4,0.6-2,1c-0.6,0.4-1,0.8-1.3,1.3c-0.3,0.5-0.5,1.1-0.5,1.8c0,0.7,0.1,1.5,0.5,2.4
		c0.1,0.3,0.3,0.6,0.6,1.1c0.3,0.4,0.6,0.9,1,1.4c0.4,0.5,0.8,1,1.3,1.5C761.1,105.2,761.6,105.6,762.2,106.1z"/>
	<path d="M781.9,101.4c1.9,0,3.4,0,4.3,0.1s1.4,0.3,1.6,0.4c0.1,0.1,0.1,0.2,0,0.3c-0.1,0.1-0.3,0.2-0.7,0.3c-0.4,0.1-1,0.2-1.9,0.4
		c-0.9,0.2-2,0.4-3.5,0.7c-0.7,0.1-1.1-0.3-1.3-1.3c-0.1-0.5,0-1.1,0.1-1.8c0.1-0.7,0.4-1.4,0.7-2c0.3-0.7,0.7-1.3,1.1-1.9
		c0.4-0.6,0.9-1,1.5-1.3c1.2-0.7,2.5-1.4,3.9-1.9c1.3-0.5,2.6-0.9,3.7-1.2c1.2-0.3,2.1-0.4,3-0.4c0.8,0,1.4,0.1,1.7,0.3
		c0.7,0.7,1.3,1.4,1.8,2.3c0.5,0.9,0.8,1.7,1.1,2.6c0.2,0.9,0.3,1.7,0.3,2.6c0,0.8-0.2,1.6-0.5,2.2c-0.3,0.6-0.6,1.1-0.9,1.6
		c-0.3,0.5-0.7,1-1.3,1.5c-0.6,0.5-1.4,1.1-2.4,1.8c-1,0.7-2.4,1.5-4.1,2.5c-1.1,0.6-2,1.2-2.8,1.8c-0.8,0.5-1.5,1.1-2.2,1.6
		c-0.7,0.6-1.3,1.1-1.9,1.8c-0.6,0.6-1.3,1.3-2,2.1c-1.1,1.1-1.3,2.4-0.5,4c2.5,0.3,5.1,0.1,7.8-0.4c2.7-0.5,5.3-1.6,7.8-3.3
		c0.4-0.3,0.7-0.3,0.8-0.2c0.1,0.1,0,0.3-0.1,0.7c-0.3,0.8-0.6,1.4-1.1,1.8c-0.4,0.4-1,0.9-1.7,1.4c-1.1,0.8-2.6,1.4-4.5,1.7
		c-1.9,0.3-3.9,0.5-6.2,0.7c-0.8,0.1-1.5,0-2.1-0.1s-1.1-0.4-1.3-0.7c-0.2-0.3-0.5-0.6-0.7-0.9c-0.2-0.3-0.5-0.8-0.8-1.4
		c-0.2-0.4-0.3-1,0-1.8c0.2-0.8,0.7-1.7,1.4-2.7c0.7-1,1.7-2,3-3.2c1.3-1.1,2.9-2.3,4.8-3.5c0.8-0.5,1.6-1,2.3-1.4s1.3-0.8,2-1.3
		c0.6-0.4,1.2-0.9,1.8-1.3c0.6-0.5,1.2-1,1.9-1.6c1-0.9,1.5-2,1.6-3.3c0.1-1.4-0.2-2.7-0.8-4.1c-0.2-0.4-0.4-0.8-0.8-1.1
		c-0.4-0.3-1-0.5-1.7-0.5c-1.2-0.1-2.4,0-3.7,0.5c-1.3,0.4-2.5,1-3.7,1.8c-1.1,0.8-2.1,1.6-3,2.6
		C782.6,99.5,782.1,100.5,781.9,101.4z"/>
	<path d="M818.8,93c0.4,0.1,0.6,0.2,0.6,0.4c0,0.2-0.7,0.8-2.1,1.6s-2.7,1.6-3.9,2.5c-1.2,0.9-2.4,1.8-3.4,2.8s-2,2.2-2.9,3.5
		c-0.9,1.3-1.8,2.9-2.6,4.6c-0.5,1.1-0.7,1.7-0.6,1.8c0.2,0.1,0.6-0.4,1.3-1.3c0.6-0.9,1.3-1.7,2.1-2.4s1.6-1.3,2.5-1.8
		c0.9-0.5,1.7-0.9,2.6-1.1c0.8-0.3,1.6-0.4,2.3-0.4c1.5,0,2.8,0.4,3.9,1.3c1.1,0.9,1.7,2.2,2,4c0.1,0.9,0.1,1.9-0.1,3
		c-0.2,1.1-0.5,2.1-1,3.2c-0.5,1.1-1,2.1-1.7,3.1c-0.7,1-1.5,1.9-2.3,2.6c-1.5,1.3-3,2.1-4.5,2.3c-1.5,0.2-2.9-0.2-4.3-1.3
		c-1.2-0.9-2.2-2-3-3.4c-0.9-1.4-1.4-2.8-1.6-4.4c-0.3-2,0.1-4.3,1.1-6.9c1-2.6,2.7-5.1,5.1-7.7c2.3-2.5,5.2-4.6,8.6-6.4L818.8,93z
		 M809.3,120.7c0.4,0,1.1-0.1,2-0.4s2-0.9,3.3-2c1.4-1.2,2.4-2.6,3.1-4.3c0.6-1.7,1-3.3,1.1-4.9c0-1.4-0.4-2.5-1.2-3.2
		c-0.8-0.7-1.8-1-2.8-0.9c-0.7,0.1-1.4,0.2-2.2,0.5c-0.8,0.2-1.6,0.6-2.4,1.1c-0.8,0.5-1.6,1.2-2.4,2s-1.6,1.8-2.3,2.9
		c-0.5,0.8-0.8,1.5-0.9,2.3c-0.1,0.8-0.1,1.5,0.2,2.2c0.5,1.6,1.1,2.8,2,3.6C807.5,120.3,808.4,120.7,809.3,120.7z"/>
	<path d="M829.1,101.4c1.9,0,3.4,0,4.3,0.1s1.4,0.3,1.6,0.4c0.1,0.1,0.1,0.2,0,0.3c-0.1,0.1-0.3,0.2-0.7,0.3c-0.4,0.1-1,0.2-1.9,0.4
		c-0.9,0.2-2,0.4-3.5,0.7c-0.7,0.1-1.1-0.3-1.3-1.3c-0.1-0.5,0-1.1,0.1-1.8c0.1-0.7,0.4-1.4,0.7-2c0.3-0.7,0.7-1.3,1.1-1.9
		c0.4-0.6,0.9-1,1.5-1.3c1.2-0.7,2.5-1.4,3.9-1.9c1.3-0.5,2.6-0.9,3.7-1.2c1.2-0.3,2.1-0.4,3-0.4c0.8,0,1.4,0.1,1.7,0.3
		c0.7,0.7,1.3,1.4,1.8,2.3c0.5,0.9,0.8,1.7,1.1,2.6c0.2,0.9,0.3,1.7,0.3,2.6c0,0.8-0.2,1.6-0.5,2.2c-0.3,0.6-0.6,1.1-0.9,1.6
		c-0.3,0.5-0.7,1-1.3,1.5c-0.6,0.5-1.4,1.1-2.4,1.8c-1,0.7-2.4,1.5-4.1,2.5c-1.1,0.6-2,1.2-2.8,1.8c-0.8,0.5-1.5,1.1-2.2,1.6
		c-0.7,0.6-1.3,1.1-1.9,1.8c-0.6,0.6-1.3,1.3-2,2.1c-1.1,1.1-1.3,2.4-0.5,4c2.5,0.3,5.1,0.1,7.8-0.4c2.7-0.5,5.3-1.6,7.8-3.3
		c0.4-0.3,0.7-0.3,0.8-0.2c0.1,0.1,0,0.3-0.1,0.7c-0.3,0.8-0.6,1.4-1.1,1.8c-0.4,0.4-1,0.9-1.7,1.4c-1.1,0.8-2.6,1.4-4.5,1.7
		c-1.9,0.3-3.9,0.5-6.2,0.7c-0.8,0.1-1.5,0-2.1-0.1s-1.1-0.4-1.3-0.7c-0.2-0.3-0.5-0.6-0.7-0.9c-0.2-0.3-0.5-0.8-0.8-1.4
		c-0.2-0.4-0.3-1,0-1.8c0.2-0.8,0.7-1.7,1.4-2.7c0.7-1,1.7-2,3-3.2c1.3-1.1,2.9-2.3,4.8-3.5c0.8-0.5,1.6-1,2.3-1.4s1.3-0.8,2-1.3
		c0.6-0.4,1.2-0.9,1.8-1.3c0.6-0.5,1.2-1,1.9-1.6c1-0.9,1.5-2,1.6-3.3c0.1-1.4-0.2-2.7-0.8-4.1c-0.2-0.4-0.4-0.8-0.8-1.1
		c-0.4-0.3-1-0.5-1.7-0.5c-1.2-0.1-2.4,0-3.7,0.5c-1.3,0.4-2.5,1-3.7,1.8c-1.1,0.8-2.1,1.6-3,2.6
		C829.8,99.5,829.3,100.5,829.1,101.4z"/>
</g>
</svg>
